<svg width="1256" height="744" viewBox="0 0 1256 744" fill="none" xmlns="http://www.w3.org/2000/svg">
<path d="M292.583 255.46H200.276C200.01 249.359 199.082 244.187 197.491 239.943C196.164 235.434 194.308 231.72 191.92 228.802C189.533 225.619 186.615 223.365 183.167 222.038C179.719 220.447 176.005 219.651 172.026 219.651C168.048 219.651 164.467 220.314 161.284 221.64C158.101 222.967 155.316 224.823 152.928 227.211C150.806 229.598 149.082 232.516 147.756 235.964C146.695 239.412 146.164 243.391 146.164 247.9C146.164 253.736 147.093 259.571 148.949 265.407C150.806 271.242 152.796 277.211 154.918 283.311C157.04 289.147 159.029 295.115 160.886 301.216C162.743 307.317 163.671 313.418 163.671 319.518C163.671 331.189 159.957 341.136 152.53 349.359C145.103 357.582 134.228 363.417 119.904 366.866H293.777V438.484H37.9416V366.866H45.5013C58.4986 366.866 68.0477 365.009 74.1485 361.295C80.2493 357.317 83.2997 350.951 83.2997 342.197C83.2997 335.566 81.8408 328.935 78.923 322.303C76.0052 315.407 72.6896 307.98 68.9761 300.022C65.5278 292.065 62.2122 283.444 59.0291 274.16C56.1114 264.876 54.6525 254.532 54.6525 243.126C54.6525 228.802 57.305 215.805 62.61 204.134C68.1803 192.463 76.0052 182.516 86.0848 174.293C96.1644 165.805 108.366 159.306 122.69 154.797C137.278 150.288 153.591 148.033 171.629 148.033C189.931 148.033 206.376 150.42 220.965 155.195C235.554 159.704 248.021 166.601 258.366 175.884C268.711 184.903 276.801 196.176 282.636 209.704C288.472 222.967 291.788 238.219 292.583 255.46ZM253.989 278.139V341.799H37.9416V278.139H253.989Z" fill="#F9F9FA"/>
<path d="M0.168183 659.531V480.781H68.6682C100.168 480.781 124.252 488.531 140.918 504.031C157.752 519.365 166.168 541.531 166.168 570.531C166.168 599.365 157.752 621.448 140.918 636.781C124.252 651.948 100.168 659.531 68.6682 659.531H0.168183ZM56.9182 614.531H67.1682C81.3349 614.531 91.6682 610.865 98.1682 603.531C104.668 596.198 107.918 585.031 107.918 570.031C107.918 555.031 104.668 543.948 98.1682 536.781C91.8349 529.448 81.5015 525.781 67.1682 525.781H56.9182V614.531ZM178.147 659.531V480.781H234.897V547.031H279.647V480.781H336.397V659.531H279.647V591.531H234.897V659.531H178.147Z" fill="#F9F9FA"/>
<path d="M136.67 794.211L130.702 718.614H202.319L196.351 794.211H136.67ZM130.702 1037.31L136.67 960.523H196.351L202.319 1037.31H130.702ZM43.9642 877.765C43.9642 860.524 46.8819 844.874 52.7175 830.815C58.8183 816.492 67.3063 804.29 78.1816 794.211C89.057 784.131 102.187 776.306 117.572 770.736C132.956 765.166 150.065 762.38 168.898 762.38C186.139 762.38 201.789 764.768 215.847 769.542C230.171 774.051 242.638 780.55 253.248 789.038C264.123 797.261 272.876 807.341 279.508 819.277C286.404 831.213 290.781 844.608 292.638 859.463H203.513C202.452 854.688 200.861 850.577 198.739 847.128C196.882 843.415 194.495 840.364 191.577 837.977C188.659 835.325 185.211 833.335 181.232 832.009C177.518 830.683 173.407 830.02 168.898 830.02C163.062 830.02 157.89 831.081 153.381 833.203C148.871 835.325 145.025 838.508 141.842 842.752C138.659 846.73 136.272 851.638 134.68 857.473C133.089 863.309 132.293 870.073 132.293 877.765C132.293 885.457 133.089 892.354 134.68 898.455C136.272 904.29 138.659 909.33 141.842 913.574C145.025 917.553 148.871 920.603 153.381 922.725C157.89 924.847 163.062 925.908 168.898 925.908C173.407 925.908 177.518 925.245 181.232 923.919C185.211 922.592 188.659 920.736 191.577 918.348C194.495 915.696 196.882 912.513 198.739 908.799C200.861 905.086 202.452 900.842 203.513 896.067H292.638C290.781 910.921 286.404 924.317 279.508 936.253C272.876 948.189 264.123 958.401 253.248 966.89C242.638 975.378 230.171 982.009 215.847 986.783C201.789 991.293 186.139 993.547 168.898 993.547C150.065 993.547 132.956 990.762 117.572 985.192C102.187 979.622 89.057 971.797 78.1816 961.717C67.3063 951.638 58.8183 939.569 52.7175 925.51C46.8819 911.187 43.9642 895.272 43.9642 877.765Z" fill="#F9F9FA"/>
<path d="M763.065 245.061L757.097 167.475H828.715L822.747 245.061H763.065ZM757.495 551.427L763.463 472.647H823.145L829.113 551.427H757.495ZM666.779 399.039H760.28C761.076 405.405 762.402 410.976 764.259 415.75C766.381 420.525 769.033 424.504 772.216 427.687C775.399 430.87 779.246 433.389 783.755 435.246C788.529 436.838 793.834 437.634 799.67 437.634C804.179 437.634 808.158 437.236 811.606 436.44C815.32 435.644 818.503 434.583 821.155 433.257C823.808 431.665 825.797 429.676 827.123 427.289C828.715 424.636 829.511 421.718 829.511 418.535C829.511 415.618 828.98 412.965 827.919 410.578C826.858 408.191 824.471 405.936 820.757 403.814C817.309 401.692 812.269 399.703 805.638 397.846C799.007 395.724 790.121 393.469 778.98 391.082C759.882 387.368 743.569 383.124 730.041 378.35C716.779 373.575 705.771 367.74 697.017 360.843C688.529 353.947 682.296 345.724 678.317 336.175C674.338 326.626 672.349 315.087 672.349 301.559C672.349 288.297 675.002 276.095 680.307 264.955C685.877 253.814 693.702 244.265 703.781 236.307C714.126 228.35 726.726 222.249 741.58 218.005C756.434 213.496 773.277 211.241 792.11 211.241C812.535 211.241 830.439 213.894 845.824 219.199C861.208 224.504 874.073 231.931 884.418 241.48C895.028 250.764 903.118 261.904 908.688 274.902C914.259 287.899 917.442 302.222 918.237 317.872H825.134C824.604 312.302 823.41 307.262 821.553 302.753C819.962 297.978 817.707 294.132 814.789 291.215C812.137 288.032 808.821 285.644 804.842 284.053C801.129 282.196 796.752 281.268 791.712 281.268C787.734 281.268 784.02 281.798 780.572 282.859C777.123 283.655 774.206 284.981 771.818 286.838C769.696 288.429 767.972 290.419 766.646 292.806C765.585 294.928 765.055 297.448 765.055 300.366C765.055 303.814 765.85 306.864 767.442 309.517C769.033 311.904 771.686 314.159 775.399 316.281C779.113 318.138 784.02 319.862 790.121 321.453C796.487 323.045 804.047 324.636 812.8 326.228C834.285 329.676 851.924 334.185 865.718 339.756C879.776 345.326 890.916 351.825 899.139 359.252C907.362 366.679 913.065 375.167 916.248 384.716C919.696 394 921.42 404.344 921.42 415.75C921.42 429.809 918.635 442.541 913.065 453.947C907.76 465.352 899.802 475.034 889.192 482.992C878.848 490.949 866.115 497.05 850.996 501.294C835.877 505.538 818.768 507.66 799.67 507.66C778.185 507.66 759.352 505.14 743.171 500.1C726.991 495.061 713.33 487.899 702.19 478.615C691.049 469.066 682.429 457.66 676.328 444.397C670.492 430.87 667.309 415.75 666.779 399.039Z" fill="#F9F9FA"/>
<path d="M635.214 766.464V733.838H821.421V766.464H635.214ZM635.214 711.557V678.931H821.421V711.557H635.214ZM663.066 722.299C663.066 700.018 666.381 679.859 673.013 661.822C679.909 643.52 689.724 627.87 702.456 614.872C715.453 601.875 731.103 591.928 749.405 585.032C767.973 577.87 788.928 574.289 812.27 574.289C831.368 574.289 849.007 576.809 865.188 581.848C881.633 586.888 895.957 594.581 908.158 604.925C920.36 615.005 930.44 627.737 938.397 643.122C946.355 658.241 951.66 676.013 954.312 696.437H860.413C858.556 680.522 853.251 668.188 844.498 659.435C836.01 650.416 824.737 645.907 810.678 645.907C801.925 645.907 794.1 647.631 787.204 651.079C780.572 654.527 774.869 659.567 770.095 666.199C765.32 672.83 761.607 680.92 758.954 690.469C756.567 699.753 755.373 710.363 755.373 722.299C755.373 734.501 756.567 745.376 758.954 754.925C761.607 764.209 765.32 772.167 770.095 778.798C774.869 785.429 780.705 790.469 787.601 793.917C794.763 797.366 802.853 799.09 811.872 799.09C826.196 799.09 837.469 794.713 845.692 785.96C853.914 776.941 858.822 763.546 860.413 745.774H954.71C952.323 766.198 947.018 784.236 938.795 799.885C930.837 815.27 920.625 828.267 908.158 838.877C895.692 849.222 881.103 857.18 864.392 862.75C847.946 868.055 829.909 870.708 810.28 870.708C787.734 870.708 767.31 867.259 749.007 860.363C730.97 853.201 715.586 843.121 702.854 830.124C690.121 817.127 680.307 801.61 673.411 783.572C666.514 765.27 663.066 744.846 663.066 722.299Z" fill="#F9F9FA"/>
<path d="M374.08 381.111V282.835H351.003V253.392H374.08V224.745H351.003V195.302H374.08V97.0259H436.547L467.581 195.302H503.788V97.0259H547.952V195.302H570.631V224.745H547.952V253.392H570.631V282.835H547.952V381.111H485.088L453.257 282.835H418.244V381.111H374.08ZM418.244 253.392H444.504L435.751 224.745H417.448L418.244 253.392ZM504.982 319.042H506.971L505.379 282.835H494.637L504.982 319.042ZM416.653 195.302H427.793L416.255 157.105H414.663L416.653 195.302ZM486.281 253.392H504.584L503.788 224.745H477.13L486.281 253.392Z" fill="#F9F9FA"/>
<path d="M333.51 744.158V459.676H467.993C508.842 459.676 538.948 467.899 558.311 484.344C577.675 500.525 587.356 524.397 587.356 555.962C587.356 587.527 577.675 611.532 558.311 627.978C538.948 644.158 508.842 652.249 467.993 652.249H423.828V744.158H333.51ZM423.828 584.609H464.014C474.094 584.609 481.919 582.487 487.489 578.243C493.059 573.999 495.844 567.235 495.844 557.952C495.844 548.668 493.059 541.904 487.489 537.66C481.919 533.416 474.094 531.294 464.014 531.294H423.828V584.609ZM491.866 744.158L439.744 629.967H532.847L595.712 744.158H491.866Z" fill="#F9F9FA"/>
<path d="M919.513 296.484V117.734H988.013C1019.51 117.734 1043.6 125.484 1060.26 140.984C1077.1 156.317 1085.51 178.484 1085.51 207.484C1085.51 236.317 1077.1 258.4 1060.26 273.734C1043.6 288.9 1019.51 296.484 988.013 296.484H919.513ZM976.263 251.484H986.513C1000.68 251.484 1011.01 247.817 1017.51 240.484C1024.01 233.15 1027.26 221.984 1027.26 206.984C1027.26 191.984 1024.01 180.9 1017.51 173.734C1011.18 166.4 1000.85 162.734 986.513 162.734H976.263V251.484ZM1097.49 296.484V117.734H1154.24V183.984H1198.99V117.734H1255.74V296.484H1198.99V228.484H1154.24V296.484H1097.49Z" fill="#F9F9FA"/>
<path d="M1000.88 624.531V526.256H977.806V496.813H1000.88V468.166H977.806V438.723H1000.88V340.447H1063.35L1094.38 438.723H1130.59V340.447H1174.75V438.723H1197.43V468.166H1174.75V496.813H1197.43V526.256H1174.75V624.531H1111.89L1080.06 526.256H1045.05V624.531H1000.88ZM1045.05 496.813H1071.31L1062.55 468.166H1044.25L1045.05 496.813ZM1131.78 562.463H1133.77L1132.18 526.256H1121.44L1131.78 562.463ZM1043.46 438.723H1054.6L1043.06 400.526H1041.47L1043.46 438.723ZM1113.08 496.813H1131.39L1130.59 468.166H1103.93L1113.08 496.813Z" fill="#F9F9FA"/>
<path d="M1055.61 730.948L1049.64 653.362H1121.26L1115.29 730.948H1055.61ZM1050.04 1037.31L1056.01 958.534H1115.69L1121.66 1037.31H1050.04ZM959.321 884.927H1052.82C1053.62 891.293 1054.94 896.863 1056.8 901.638C1058.92 906.412 1061.58 910.391 1064.76 913.574C1067.94 916.757 1071.79 919.277 1076.3 921.134C1081.07 922.725 1086.38 923.521 1092.21 923.521C1096.72 923.521 1100.7 923.123 1104.15 922.327C1107.86 921.531 1111.05 920.47 1113.7 919.144C1116.35 917.553 1118.34 915.563 1119.67 913.176C1121.26 910.524 1122.05 907.606 1122.05 904.423C1122.05 901.505 1121.52 898.852 1120.46 896.465C1119.4 894.078 1117.01 891.823 1113.3 889.701C1109.85 887.579 1104.81 885.59 1098.18 883.733C1091.55 881.611 1082.66 879.356 1071.52 876.969C1052.42 873.256 1036.11 869.012 1022.58 864.237C1009.32 859.463 998.313 853.627 989.56 846.73C981.072 839.834 974.839 831.611 970.86 822.062C966.881 812.513 964.892 800.975 964.892 787.447C964.892 774.184 967.544 761.983 972.849 750.842C978.419 739.701 986.244 730.152 996.324 722.195C1006.67 714.237 1019.27 708.136 1034.12 703.892C1048.98 699.383 1065.82 697.128 1084.65 697.128C1105.08 697.128 1122.98 699.781 1138.37 705.086C1153.75 710.391 1166.62 717.818 1176.96 727.367C1187.57 736.651 1195.66 747.792 1201.23 760.789C1206.8 773.786 1209.98 788.11 1210.78 803.76H1117.68C1117.15 798.189 1115.95 793.15 1114.1 788.64C1112.5 783.866 1110.25 780.02 1107.33 777.102C1104.68 773.919 1101.36 771.532 1097.38 769.94C1093.67 768.083 1089.29 767.155 1084.25 767.155C1080.28 767.155 1076.56 767.685 1073.11 768.746C1069.67 769.542 1066.75 770.868 1064.36 772.725C1062.24 774.317 1060.51 776.306 1059.19 778.693C1058.13 780.815 1057.6 783.335 1057.6 786.253C1057.6 789.701 1058.39 792.752 1059.98 795.404C1061.58 797.792 1064.23 800.046 1067.94 802.168C1071.66 804.025 1076.56 805.749 1082.66 807.341C1089.03 808.932 1096.59 810.524 1105.34 812.115C1126.83 815.563 1144.47 820.073 1158.26 825.643C1172.32 831.213 1183.46 837.712 1191.68 845.139C1199.9 852.566 1205.61 861.054 1208.79 870.603C1212.24 879.887 1213.96 890.232 1213.96 901.638C1213.96 915.696 1211.18 928.428 1205.61 939.834C1200.3 951.24 1192.35 960.921 1181.73 968.879C1171.39 976.836 1158.66 982.937 1143.54 987.181C1128.42 991.425 1111.31 993.547 1092.21 993.547C1070.73 993.547 1051.89 991.027 1035.71 985.988C1019.53 980.948 1005.87 973.786 994.732 964.502C983.592 954.953 974.971 943.547 968.87 930.285C963.035 916.757 959.852 901.638 959.321 884.927Z" fill="#F9F9FA"/>
</svg>
