<svg width="54" height="55" viewBox="0 0 54 55" fill="none" xmlns="http://www.w3.org/2000/svg">
<g clip-path="url(#clip0_1_1142)">
<path d="M45.3769 26.2092C45.4856 26.0113 45.5534 25.7936 45.5764 25.5689C45.5994 25.3443 45.5771 25.1173 45.5108 24.9015C45.4445 24.6856 45.3356 24.4853 45.1905 24.3123C45.0453 24.1393 44.8669 23.9972 44.6659 23.8944C44.4648 23.7916 44.2452 23.7303 44.02 23.7139C43.7947 23.6975 43.5685 23.7265 43.3547 23.7992C43.1409 23.8719 42.9439 23.9867 42.7753 24.1369C42.6067 24.2871 42.4699 24.4696 42.3731 24.6736C40.8131 27.6789 38.3807 30.1422 35.3953 31.74L31.5478 23.081C32.7068 22.2123 33.5933 21.0303 34.1025 19.6743C34.6118 18.3184 34.7226 16.8451 34.4219 15.4282C34.1212 14.0113 33.4216 12.71 32.4056 11.6777C31.3895 10.6454 30.0994 9.92521 28.6875 9.60211V5.19141C28.6875 4.74385 28.5097 4.31463 28.1932 3.99816C27.8768 3.6817 27.4476 3.50391 27 3.50391C26.5524 3.50391 26.1232 3.6817 25.8068 3.99816C25.4903 4.31463 25.3125 4.74385 25.3125 5.19141V9.60211C23.9006 9.92521 22.6105 10.6454 21.5944 11.6777C20.5784 12.71 19.8788 14.0113 19.5781 15.4282C19.2774 16.8451 19.3883 18.3184 19.8975 19.6743C20.4067 21.0303 21.2932 22.2123 22.4522 23.081L11.958 46.6934C11.8668 46.896 11.8165 47.1147 11.81 47.3369C11.8035 47.5591 11.841 47.7804 11.9203 47.988C11.9996 48.1957 12.1191 48.3856 12.272 48.5469C12.4249 48.7083 12.6081 48.8378 12.8112 48.9281C13.0143 49.0184 13.2333 49.0677 13.4555 49.0731C13.6777 49.0786 13.8988 49.04 14.1061 48.9598C14.3133 48.8795 14.5027 48.7591 14.6633 48.6055C14.8239 48.4518 14.9526 48.268 15.042 48.0645L20.3449 36.1338C22.4845 36.8788 24.7344 37.2575 27 37.2539C29.2668 37.2513 31.518 36.8801 33.6656 36.1549L38.958 48.0645C39.1412 48.4713 39.4781 48.7891 39.8949 48.9482C40.3117 49.1073 40.7746 49.0949 41.1823 48.9137C41.5901 48.7324 41.9094 48.397 42.0705 47.981C42.2316 47.5649 42.2213 47.1019 42.042 46.6934L36.7685 34.8281C40.4561 32.9089 43.4622 29.8992 45.3769 26.2092ZM27 33.8789C25.2084 33.8811 23.428 33.5962 21.7266 33.0352L25.5403 24.4542C26.5069 24.6455 27.5016 24.6455 28.4681 24.4542L32.2945 33.0605C30.582 33.6026 28.7963 33.8786 27 33.8789Z" fill="url(#paint0_linear_1_1142)"/>
</g>
<defs>
<linearGradient id="paint0_linear_1_1142" x1="28.6973" y1="3.50391" x2="28.6973" y2="49.0736" gradientUnits="userSpaceOnUse">
<stop stop-color="#55185D"/>
<stop offset="1" stop-color="#290849"/>
</linearGradient>
<clipPath id="clip0_1_1142">
<rect width="54" height="54" fill="white" transform="translate(0 0.128906)"/>
</clipPath>
</defs>
</svg>
