<svg width="54" height="55" viewBox="0 0 54 55" fill="none" xmlns="http://www.w3.org/2000/svg">
<g clip-path="url(#clip0_1_1156)">
<path d="M48.9375 25.4414H47.1783C46.7733 20.673 44.6952 16.2015 41.3113 12.8176C37.9274 9.43375 33.4559 7.35557 28.6875 6.95062V5.19141C28.6875 4.74385 28.5097 4.31463 28.1932 3.99816C27.8768 3.6817 27.4476 3.50391 27 3.50391C26.5524 3.50391 26.1232 3.6817 25.8068 3.99816C25.4903 4.31463 25.3125 4.74385 25.3125 5.19141V6.95062C20.5441 7.35557 16.0726 9.43375 12.6887 12.8176C9.30484 16.2015 7.22666 20.673 6.82172 25.4414H5.0625C4.61495 25.4414 4.18572 25.6192 3.86926 25.9357C3.55279 26.2521 3.375 26.6814 3.375 27.1289C3.375 27.5765 3.55279 28.0057 3.86926 28.3222C4.18572 28.6386 4.61495 28.8164 5.0625 28.8164H6.82172C7.22666 33.5848 9.30484 38.0563 12.6887 41.4402C16.0726 44.8241 20.5441 46.9022 25.3125 47.3072V49.0664C25.3125 49.514 25.4903 49.9432 25.8068 50.2597C26.1232 50.5761 26.5524 50.7539 27 50.7539C27.4476 50.7539 27.8768 50.5761 28.1932 50.2597C28.5097 49.9432 28.6875 49.514 28.6875 49.0664V47.3072C33.4559 46.9022 37.9274 44.8241 41.3113 41.4402C44.6952 38.0563 46.7733 33.5848 47.1783 28.8164H48.9375C49.3851 28.8164 49.8143 28.6386 50.1307 28.3222C50.4472 28.0057 50.625 27.5765 50.625 27.1289C50.625 26.6814 50.4472 26.2521 50.1307 25.9357C49.8143 25.6192 49.3851 25.4414 48.9375 25.4414ZM28.6875 43.9195V42.3164C28.6875 41.8689 28.5097 41.4396 28.1932 41.1232C27.8768 40.8067 27.4476 40.6289 27 40.6289C26.5524 40.6289 26.1232 40.8067 25.8068 41.1232C25.4903 41.4396 25.3125 41.8689 25.3125 42.3164V43.9195C21.4415 43.5246 17.8253 41.8064 15.0739 39.055C12.3225 36.3036 10.6044 32.6874 10.2094 28.8164H11.8125C12.2601 28.8164 12.6893 28.6386 13.0057 28.3222C13.3222 28.0057 13.5 27.5765 13.5 27.1289C13.5 26.6814 13.3222 26.2521 13.0057 25.9357C12.6893 25.6192 12.2601 25.4414 11.8125 25.4414H10.2094C10.6044 21.5704 12.3225 17.9542 15.0739 15.2028C17.8253 12.4514 21.4415 10.7333 25.3125 10.3383V11.9414C25.3125 12.389 25.4903 12.8182 25.8068 13.1346C26.1232 13.4511 26.5524 13.6289 27 13.6289C27.4476 13.6289 27.8768 13.4511 28.1932 13.1346C28.5097 12.8182 28.6875 12.389 28.6875 11.9414V10.3383C32.5585 10.7333 36.1747 12.4514 38.9261 15.2028C41.6775 17.9542 43.3956 21.5704 43.7906 25.4414H42.1875C41.7399 25.4414 41.3107 25.6192 40.9943 25.9357C40.6778 26.2521 40.5 26.6814 40.5 27.1289C40.5 27.5765 40.6778 28.0057 40.9943 28.3222C41.3107 28.6386 41.7399 28.8164 42.1875 28.8164H43.7906C43.3956 32.6874 41.6775 36.3036 38.9261 39.055C36.1747 41.8064 32.5585 43.5246 28.6875 43.9195ZM35.4375 27.1289C35.4375 28.7977 34.9426 30.429 34.0155 31.8165C33.0884 33.2041 31.7706 34.2855 30.2289 34.9241C28.6871 35.5628 26.9906 35.7298 25.3539 35.4043C23.7172 35.0787 22.2138 34.2751 21.0338 33.0951C19.8538 31.9151 19.0502 30.4117 18.7246 28.775C18.3991 27.1383 18.5662 25.4418 19.2048 23.9C19.8434 22.3583 20.9248 21.0405 22.3124 20.1134C23.6999 19.1863 25.3312 18.6914 27 18.6914C29.2378 18.6914 31.3839 19.5804 32.9662 21.1627C34.5486 22.745 35.4375 24.8911 35.4375 27.1289Z" fill="url(#paint0_linear_1_1156)"/>
</g>
<defs>
<linearGradient id="paint0_linear_1_1156" x1="27" y1="3.50391" x2="27" y2="50.7539" gradientUnits="userSpaceOnUse">
<stop stop-color="#55185D"/>
<stop offset="1" stop-color="#290849"/>
</linearGradient>
<clipPath id="clip0_1_1156">
<rect width="54" height="54" fill="white" transform="translate(0 0.128906)"/>
</clipPath>
</defs>
</svg>
