<svg width="1440" height="273" viewBox="0 0 1440 273" fill="none" xmlns="http://www.w3.org/2000/svg">
<g clip-path="url(#clip0_1_882)">
<rect width="1440" height="273" fill="#290849"/>
<path d="M100.412 -62.8751V-95.5011H286.618V-62.8751H100.412ZM100.412 -117.782V-150.408H286.618V-117.782H100.412ZM128.263 -107.04C128.263 -129.321 131.579 -149.48 138.21 -167.517C145.107 -185.819 154.921 -201.469 167.653 -214.467C180.65 -227.464 196.3 -237.411 214.603 -244.307C233.17 -251.469 254.125 -255.05 277.467 -255.05C296.565 -255.05 314.205 -252.53 330.385 -247.49C346.831 -242.451 361.154 -234.758 373.356 -224.413C385.557 -214.334 395.637 -201.602 403.594 -186.217C411.552 -171.098 416.857 -153.326 419.51 -132.902H325.61C323.754 -148.817 318.449 -161.151 309.695 -169.904C301.207 -178.923 289.934 -183.432 275.876 -183.432C267.122 -183.432 259.297 -181.708 252.401 -178.26C245.77 -174.811 240.067 -169.772 235.292 -163.14C230.518 -156.509 226.804 -148.419 224.152 -138.87C221.764 -129.586 220.571 -118.976 220.571 -107.04C220.571 -94.838 221.764 -83.9627 224.152 -74.4136C226.804 -65.1298 230.518 -57.1722 235.292 -50.5409C240.067 -43.9096 245.902 -38.8699 252.799 -35.4216C259.961 -31.9733 268.051 -30.2492 277.069 -30.2492C291.393 -30.2492 302.666 -34.6258 310.889 -43.3791C319.112 -52.3977 324.019 -65.7929 325.61 -83.5648H419.907C417.52 -63.1404 412.215 -45.1033 403.992 -29.4534C396.035 -14.0688 385.823 -1.07149 373.356 9.53859C360.889 19.8834 346.3 27.841 329.589 33.4112C313.144 38.7163 295.106 41.3688 275.478 41.3688C252.931 41.3688 232.507 37.9205 214.205 31.024C196.168 23.8622 180.783 13.7826 168.051 0.785277C155.319 -12.2121 145.504 -27.7293 138.608 -45.7664C131.711 -64.0688 128.263 -84.4932 128.263 -107.04Z" fill="#F9F9FA" fill-opacity="0.05"/>
<path d="M182.34 114.364C203.03 114.364 220.006 117.281 233.269 123.117C246.796 128.953 256.743 137.971 263.109 150.173C269.741 162.374 273.056 178.157 273.056 197.52C273.056 210.517 271.2 221.791 267.486 231.34C264.038 240.624 259.263 248.448 253.162 254.815C247.062 261.181 240.032 266.486 232.075 270.73L289.767 398.448H227.698L181.544 289.43H164.038V398.448H107.937V114.364H182.34ZM177.168 163.701H164.038V240.491H177.964C191.757 240.491 201.571 237.175 207.407 230.544C213.507 223.913 216.558 214.098 216.558 201.101C216.558 192.082 215.099 184.921 212.181 179.616C209.529 174.045 205.285 170.067 199.449 167.679C193.613 165.027 186.186 163.701 177.168 163.701ZM363.772 177.228C375.178 177.228 386.054 178.555 396.398 181.207C406.743 183.86 417.221 188.236 427.831 194.337L413.507 236.91C405.019 232.401 396.929 228.687 389.237 225.769C381.544 222.586 373.852 220.995 366.16 220.995C358.998 220.995 353.693 222.321 350.245 224.974C346.796 227.626 345.072 231.34 345.072 236.114C345.072 239.563 345.868 242.746 347.459 245.663C349.316 248.316 352.897 251.234 358.202 254.417C363.507 257.6 371.2 261.844 381.279 267.149C391.093 272.189 399.581 277.361 406.743 282.666C414.17 287.971 419.873 294.602 423.852 302.56C427.831 310.517 429.82 320.995 429.82 333.992C429.82 356.008 423.189 372.984 409.926 384.921C396.929 396.592 377.698 402.427 352.234 402.427C339.502 402.427 328.627 401.366 319.608 399.244C310.589 397.387 301.438 394.204 292.154 389.695V340.756C301.438 346.061 311.385 350.438 321.995 353.886C332.871 357.334 342.42 359.058 350.643 359.058C359.926 359.058 366.558 357.334 370.536 353.886C374.78 350.438 376.902 345.929 376.902 340.358C376.902 336.645 376.107 333.329 374.515 330.411C372.924 327.228 369.475 323.78 364.17 320.066C358.865 316.088 350.642 311.181 339.502 305.345C328.627 299.509 319.608 293.807 312.446 288.236C305.284 282.401 299.979 275.637 296.531 267.944C293.348 260.252 291.757 250.836 291.757 239.695C291.757 219.536 298.255 204.151 311.253 193.541C324.515 182.666 342.022 177.228 363.772 177.228Z" fill="#F9F9FA" fill-opacity="0.05"/>
<path d="M855.065 -221.23L849.097 -298.817H920.715L914.747 -221.23H855.065ZM849.495 85.1353L855.463 6.35556H915.145L921.113 85.1353H849.495ZM758.779 -67.2518H852.28C853.076 -60.8858 854.402 -55.3155 856.259 -50.5409C858.381 -45.7664 861.033 -41.7876 864.216 -38.6046C867.399 -35.4216 871.246 -32.9017 875.755 -31.0449C880.529 -29.4534 885.834 -28.6577 891.67 -28.6577C896.179 -28.6577 900.158 -29.0555 903.606 -29.8513C907.32 -30.6471 910.503 -31.7081 913.155 -33.0343C915.808 -34.6258 917.797 -36.6152 919.123 -39.0025C920.715 -41.655 921.511 -44.5728 921.511 -47.7558C921.511 -50.6736 920.98 -53.3261 919.919 -55.7134C918.858 -58.1006 916.471 -60.3553 912.757 -62.4773C909.309 -64.5993 904.269 -66.5887 897.638 -68.4454C891.007 -70.5675 882.121 -72.8221 870.98 -75.2094C851.882 -78.9229 835.569 -83.1669 822.041 -87.9414C808.779 -92.716 797.771 -98.5515 789.017 -105.448C780.529 -112.345 774.296 -120.567 770.317 -130.116C766.338 -139.666 764.349 -151.204 764.349 -164.732C764.349 -177.994 767.002 -190.196 772.307 -201.337C777.877 -212.477 785.702 -222.026 795.781 -229.984C806.126 -237.941 818.726 -244.042 833.58 -248.286C848.434 -252.795 865.277 -255.05 884.11 -255.05C904.535 -255.05 922.439 -252.398 937.824 -247.093C953.208 -241.787 966.073 -234.36 976.418 -224.811C987.028 -215.528 995.118 -204.387 1000.69 -191.39C1006.26 -178.392 1009.44 -164.069 1010.24 -148.419H917.134C916.604 -153.989 915.41 -159.029 913.553 -163.538C911.962 -168.313 909.707 -172.159 906.789 -175.077C904.137 -178.26 900.821 -180.647 896.842 -182.238C893.129 -184.095 888.752 -185.024 883.712 -185.024C879.734 -185.024 876.02 -184.493 872.572 -183.432C869.123 -182.636 866.206 -181.31 863.818 -179.453C861.696 -177.862 859.972 -175.872 858.646 -173.485C857.585 -171.363 857.055 -168.843 857.055 -165.925C857.055 -162.477 857.85 -159.427 859.442 -156.774C861.033 -154.387 863.686 -152.132 867.399 -150.01C871.113 -148.154 876.02 -146.429 882.121 -144.838C888.487 -143.246 896.047 -141.655 904.8 -140.063C926.285 -136.615 943.924 -132.106 957.718 -126.536C971.776 -120.965 982.916 -114.467 991.139 -107.04C999.362 -99.6125 1005.07 -91.1245 1008.25 -81.5754C1011.7 -72.2916 1013.42 -61.9468 1013.42 -50.5409C1013.42 -36.4826 1010.64 -23.7505 1005.07 -12.3447C999.76 -0.93886 991.802 8.74283 981.192 16.7004C970.848 24.6579 958.115 30.7587 942.996 35.0028C927.877 39.2468 910.768 41.3688 891.67 41.3688C870.185 41.3688 851.352 38.8489 835.171 33.8091C818.991 28.7693 805.33 21.6075 794.19 12.3237C783.049 2.77467 774.429 -8.63116 768.328 -21.8938C762.492 -35.4216 759.309 -50.5409 758.779 -67.2518Z" fill="#F9F9FA" fill-opacity="0.05"/>
<path d="M855.472 205.08L849.504 129.483H921.122L915.154 205.08H855.472ZM849.504 448.183L855.472 371.393H915.154L921.122 448.183H849.504ZM762.767 288.634C762.767 271.393 765.685 255.743 771.52 241.685C777.621 227.361 786.109 215.159 796.984 205.08C807.86 195 820.99 187.175 836.374 181.605C851.759 176.035 868.868 173.25 887.7 173.25C904.942 173.25 920.592 175.637 934.65 180.411C948.974 184.921 961.44 191.419 972.05 199.907C982.926 208.13 991.679 218.21 998.31 230.146C1005.21 242.082 1009.58 255.478 1011.44 270.332H922.316C921.255 265.557 919.663 261.446 917.541 257.998C915.684 254.284 913.297 251.234 910.379 248.846C907.462 246.194 904.013 244.204 900.035 242.878C896.321 241.552 892.21 240.889 887.7 240.889C881.865 240.889 876.692 241.95 872.183 244.072C867.674 246.194 863.828 249.377 860.645 253.621C857.462 257.6 855.074 262.507 853.483 268.342C851.891 274.178 851.096 280.942 851.096 288.634C851.096 296.326 851.891 303.223 853.483 309.324C855.074 315.159 857.462 320.199 860.645 324.443C863.828 328.422 867.674 331.472 872.183 333.594C876.692 335.716 881.865 336.777 887.7 336.777C892.21 336.777 896.321 336.114 900.035 334.788C904.013 333.462 907.462 331.605 910.379 329.218C913.297 326.565 915.684 323.382 917.541 319.669C919.663 315.955 921.255 311.711 922.316 306.937H1011.44C1009.58 321.791 1005.21 335.186 998.31 347.122C991.679 359.058 982.926 369.271 972.05 377.759C961.44 386.247 948.974 392.878 934.65 397.653C920.592 402.162 904.942 404.417 887.7 404.417C868.868 404.417 851.759 401.631 836.374 396.061C820.99 390.491 807.86 382.666 796.984 372.586C786.109 362.507 777.621 350.438 771.52 336.379C765.685 322.056 762.767 306.141 762.767 288.634Z" fill="#F9F9FA" fill-opacity="0.05"/>
<path d="M473.51 277.867V-6.61547H607.993C648.842 -6.61547 678.948 1.60733 698.311 18.0529C717.675 34.2333 727.356 58.106 727.356 89.6709C727.356 121.236 717.675 145.241 698.311 161.687C678.948 177.867 648.842 185.957 607.993 185.957H563.828V277.867H473.51ZM563.828 118.318H604.014C614.094 118.318 621.919 116.196 627.489 111.952C633.059 107.708 635.844 100.944 635.844 91.6603C635.844 82.3765 633.059 75.6126 627.489 71.3685C621.919 67.1245 614.094 65.0025 604.014 65.0025H563.828V118.318ZM631.866 277.867L579.744 163.676H672.847L735.712 277.867H631.866Z" fill="#F9F9FA" fill-opacity="0.05"/>
<path d="M1092.88 277.867V179.591H1069.81V150.148H1092.88V121.501H1069.81V92.0582H1092.88V-6.2176H1155.35L1186.38 92.0582H1222.59V-6.2176H1266.75V92.0582H1289.43V121.501H1266.75V150.148H1289.43V179.591H1266.75V277.867H1203.89L1172.06 179.591H1137.05V277.867H1092.88ZM1137.05 150.148H1163.31L1154.55 121.501H1136.25L1137.05 150.148ZM1223.78 215.798H1225.77L1224.18 179.591H1213.44L1223.78 215.798ZM1135.46 92.0582H1146.6L1135.06 53.8619H1133.47L1135.46 92.0582ZM1205.08 150.148H1223.39L1222.59 121.501H1195.93L1205.08 150.148Z" fill="#F9F9FA" fill-opacity="0.05"/>
</g>
<defs>
<clipPath id="clip0_1_882">
<rect width="1440" height="273" fill="white"/>
</clipPath>
</defs>
</svg>
