<svg width="26" height="26" viewBox="0 0 26 26" fill="none" xmlns="http://www.w3.org/2000/svg">
<g clip-path="url(#clip0_1_1247)">
<path d="M15.7974 13.194C15.7974 13.8147 15.6133 14.4214 15.2685 14.9375C14.9237 15.4536 14.4335 15.8558 13.8601 16.0933C13.2866 16.3309 12.6556 16.393 12.0469 16.2719C11.4381 16.1508 10.8789 15.852 10.44 15.4131C10.0011 14.9742 9.70225 14.415 9.58116 13.8062C9.46007 13.1975 9.52222 12.5665 9.75975 11.993C9.99727 11.4196 10.3995 10.9294 10.9156 10.5846C11.4317 10.2398 12.0384 10.0557 12.6591 10.0557C13.4914 10.0557 14.2897 10.3864 14.8782 10.9749C15.4667 11.5634 15.7974 12.3617 15.7974 13.194ZM22.8585 8.48658V17.9014C22.8569 19.3574 22.2778 20.7534 21.2482 21.783C20.2186 22.8126 18.8226 23.3918 17.3665 23.3933H7.95173C6.49565 23.3918 5.09966 22.8126 4.07005 21.783C3.04045 20.7534 2.46134 19.3574 2.45978 17.9014V8.48658C2.46134 7.0305 3.04045 5.63451 4.07005 4.60491C5.09966 3.5753 6.49565 2.99619 7.95173 2.99463H17.3665C18.8226 2.99619 20.2186 3.5753 21.2482 4.60491C22.2778 5.63451 22.8569 7.0305 22.8585 8.48658ZM17.3665 13.194C17.3665 12.2629 17.0904 11.3528 16.5732 10.5787C16.0559 9.80456 15.3207 9.2012 14.4606 8.84491C13.6004 8.48862 12.6539 8.3954 11.7408 8.57703C10.8276 8.75867 9.98883 9.20701 9.33049 9.86535C8.67215 10.5237 8.22382 11.3625 8.04218 12.2756C7.86055 13.1888 7.95377 14.1353 8.31006 14.9954C8.66635 15.8556 9.26971 16.5908 10.0438 17.108C10.818 17.6253 11.7281 17.9014 12.6591 17.9014C13.9072 17.9001 15.1038 17.4037 15.9863 16.5212C16.8688 15.6386 17.3652 14.4421 17.3665 13.194ZM19.7202 7.30974C19.7202 7.07698 19.6512 6.84945 19.5219 6.65591C19.3926 6.46238 19.2088 6.31154 18.9937 6.22247C18.7787 6.1334 18.5421 6.11009 18.3138 6.1555C18.0855 6.20091 17.8758 6.31299 17.7112 6.47758C17.5466 6.64216 17.4345 6.85186 17.3891 7.08014C17.3437 7.30843 17.367 7.54506 17.4561 7.7601C17.5452 7.97514 17.696 8.15894 17.8895 8.28825C18.0831 8.41756 18.3106 8.48658 18.5434 8.48658C18.8555 8.48658 19.1548 8.36259 19.3755 8.14189C19.5962 7.92119 19.7202 7.62186 19.7202 7.30974Z" fill="white"/>
</g>
<defs>
<clipPath id="clip0_1_1247">
<rect width="25.1061" height="25.1061" fill="white" transform="translate(0.106079 0.641113)"/>
</clipPath>
</defs>
</svg>
