<svg width="26" height="26" viewBox="0 0 26 26" fill="none" xmlns="http://www.w3.org/2000/svg">
<g clip-path="url(#clip0_1_1250)">
<path d="M21.3059 3.03784H4.11841C3.70401 3.03784 3.30658 3.20246 3.01355 3.49549C2.72053 3.78851 2.55591 4.18594 2.55591 4.60034V21.7878C2.55591 22.2022 2.72053 22.5997 3.01355 22.8927C3.30658 23.1857 3.70401 23.3503 4.11841 23.3503H21.3059C21.7203 23.3503 22.1177 23.1857 22.4108 22.8927C22.7038 22.5997 22.8684 22.2022 22.8684 21.7878V4.60034C22.8684 4.18594 22.7038 3.78851 22.4108 3.49549C22.1177 3.20246 21.7203 3.03784 21.3059 3.03784ZM9.58716 17.8816C9.58716 18.0888 9.50485 18.2875 9.35834 18.434C9.21182 18.5805 9.01311 18.6628 8.80591 18.6628C8.59871 18.6628 8.39999 18.5805 8.25348 18.434C8.10697 18.2875 8.02466 18.0888 8.02466 17.8816V11.6316C8.02466 11.4244 8.10697 11.2257 8.25348 11.0792C8.39999 10.9327 8.59871 10.8503 8.80591 10.8503C9.01311 10.8503 9.21182 10.9327 9.35834 11.0792C9.50485 11.2257 9.58716 11.4244 9.58716 11.6316V17.8816ZM8.80591 10.0691C8.57413 10.0691 8.34756 10.0004 8.15485 9.8716C7.96214 9.74283 7.81193 9.55981 7.72324 9.34567C7.63454 9.13154 7.61133 8.89592 7.65655 8.66859C7.70177 8.44127 7.81338 8.23247 7.97727 8.06858C8.14116 7.90469 8.34997 7.79308 8.57729 7.74786C8.80461 7.70264 9.04023 7.72585 9.25437 7.81455C9.4685 7.90324 9.65152 8.05344 9.78029 8.24616C9.90905 8.43887 9.97778 8.66544 9.97778 8.89722C9.97778 9.20802 9.85432 9.50609 9.63455 9.72586C9.41478 9.94563 9.11671 10.0691 8.80591 10.0691ZM18.1809 17.8816C18.1809 18.0888 18.0986 18.2875 17.9521 18.434C17.8056 18.5805 17.6069 18.6628 17.3997 18.6628C17.1925 18.6628 16.9937 18.5805 16.8472 18.434C16.7007 18.2875 16.6184 18.0888 16.6184 17.8816V14.366C16.6184 13.848 16.4126 13.3512 16.0464 12.9849C15.6801 12.6186 15.1833 12.4128 14.6653 12.4128C14.1473 12.4128 13.6505 12.6186 13.2842 12.9849C12.9179 13.3512 12.7122 13.848 12.7122 14.366V17.8816C12.7122 18.0888 12.6298 18.2875 12.4833 18.434C12.3368 18.5805 12.1381 18.6628 11.9309 18.6628C11.7237 18.6628 11.525 18.5805 11.3785 18.434C11.232 18.2875 11.1497 18.0888 11.1497 17.8816V11.6316C11.1506 11.4402 11.2218 11.2559 11.3497 11.1135C11.4775 10.9711 11.6532 10.8807 11.8434 10.8592C12.0335 10.8378 12.225 10.8869 12.3813 10.9972C12.5377 11.1075 12.6481 11.2714 12.6917 11.4578C13.2202 11.0992 13.8363 10.8915 14.474 10.8567C15.1117 10.822 15.7468 10.9616 16.3111 11.2606C16.8755 11.5595 17.3477 12.0066 17.6771 12.5537C18.0065 13.1008 18.1807 13.7273 18.1809 14.366V17.8816Z" fill="white"/>
</g>
<defs>
<clipPath id="clip0_1_1250">
<rect width="25" height="25" fill="white" transform="translate(0.212158 0.694092)"/>
</clipPath>
</defs>
</svg>
