<svg width="189" height="54" viewBox="0 0 189 54" fill="none" xmlns="http://www.w3.org/2000/svg">
<circle cx="26.1288" cy="26.9477" r="26.1288" fill="white"/>
<path d="M32.1818 17.9172C32.1818 14.3586 35.0666 11.4739 38.6251 11.4739V31.9343C38.6251 35.4929 35.7403 38.3776 32.1818 38.3776V30.3466H34.0788L32.1818 27.061V17.9172Z" fill="#290849"/>
<path d="M29.3505 27.0629V16.8546C25.792 16.8546 22.9072 19.7394 22.9072 23.2979V27.1093L24.7763 30.3466H22.9072V38.3776C26.4657 38.3776 29.3505 35.4929 29.3505 31.9343V30.3466H27.4546L29.3505 27.0629Z" fill="#290849"/>
<path d="M20.0759 22.2354V27.0146L18.1521 30.3466H20.0759V31.9343C20.0759 35.4929 17.1911 38.3776 13.6326 38.3776V28.6787C13.6326 25.1201 16.5173 22.2354 20.0759 22.2354Z" fill="#290849"/>
<path d="M63.2246 35.4478V21.3497H60.8029V17.4685H63.2246V16.963C63.2246 12.6006 65.6626 10.2523 70.1799 10.2523C71.1665 10.2523 72.2673 10.3583 73.3844 10.5703V14.3374C72.5282 14.1825 71.7291 14.1009 71.0687 14.1009C68.8916 14.1009 67.8805 15.0386 67.8805 17.02V17.4685H73.3925V21.3497H68.1088V35.4478H63.2246ZM80.1276 11.3123V15.5849H75.1456V11.3123H80.1276ZM80.0787 17.4685V35.4478H75.1945V17.4685H80.0787ZM87.0426 26.0137V35.4478H82.1584V17.4685H87.0426V22.8745C87.8009 19.0666 90.0269 16.9793 93.3618 16.9793C97.2349 16.9793 99.3304 19.8086 99.3304 25.0027V35.4478H94.4463V25.818C94.4463 22.7522 93.2966 21.2356 90.9564 21.2356C88.4613 21.2356 87.0426 22.9234 87.0426 26.0137ZM113.62 17.4685H118.642L112.592 35.4478H105.824L99.8396 17.4685H104.976L109.274 32.333L113.62 17.4685ZM131.5 29.3568H136.09C135.112 33.4501 131.834 35.937 127.464 35.937C122.041 35.937 118.38 32.1047 118.38 26.4377C118.38 20.7871 122 16.9793 127.366 16.9793C132.682 16.9793 136.172 20.7137 136.172 26.4133C136.172 26.8454 136.156 27.2857 136.107 27.7424H123.093C123.411 30.4331 125.058 32.0313 127.602 32.0313C129.502 32.0313 130.79 31.1344 131.5 29.3568ZM123.15 24.7254H131.483C131.076 22.157 129.673 20.8197 127.39 20.8197C125.05 20.8197 123.542 22.2385 123.15 24.7254ZM142.782 27.2368V35.4478H137.898V17.4685H142.782V23.7143C143.434 19.8657 145.277 17.4685 148.791 17.4685H149.868V22.0673H147.976C143.972 22.0673 142.782 23.698 142.782 27.2368ZM159.134 16.9793C164.426 16.9793 167.483 19.3602 167.483 23.2414H162.665C162.665 21.5699 161.466 20.5507 159.24 20.5507C157.275 20.5507 155.938 21.3253 155.938 22.4831C155.938 23.9019 157.715 24.1873 159.688 24.5216L160.887 24.7336C163.782 25.2228 168.03 25.9485 168.03 30.2456C168.03 33.8659 164.997 35.937 159.55 35.937C153.818 35.937 150.793 33.6458 150.793 29.5362H155.611C155.611 31.3464 156.875 32.333 159.509 32.333C161.817 32.333 163.219 31.591 163.219 30.319C163.219 28.786 161.474 28.4762 159.167 28.0685L157.968 27.8565C155.318 27.3917 151.127 26.666 151.127 22.5728C151.127 19.1156 154.127 16.9793 159.134 16.9793ZM182.27 29.3568H186.861C185.882 33.4501 182.605 35.937 178.234 35.937C172.812 35.937 169.151 32.1047 169.151 26.4377C169.151 20.7871 172.771 16.9793 178.136 16.9793C183.453 16.9793 186.942 20.7137 186.942 26.4133C186.942 26.8454 186.926 27.2857 186.877 27.7424H173.864C174.182 30.4331 175.829 32.0313 178.373 32.0313C180.273 32.0313 181.561 31.1344 182.27 29.3568ZM173.921 24.7254H182.254C181.846 22.157 180.444 20.8197 178.161 20.8197C175.821 20.8197 174.312 22.2385 173.921 24.7254Z" fill="white"/>
</svg>
