<svg width="163" height="46" viewBox="0 0 163 46" fill="none" xmlns="http://www.w3.org/2000/svg">
<circle cx="22.5195" cy="23.2567" r="22.5" fill="url(#paint0_linear_1_808)"/>
<path d="M27.7316 15.4804C27.7316 12.4161 30.2157 9.93201 33.28 9.93201V27.5509C33.28 30.6152 30.7959 33.0993 27.7316 33.0993V26.1836H29.3651L27.7316 23.3544V15.4804Z" fill="#FFD524"/>
<path d="M25.2935 23.356V14.5655C22.2292 14.5655 19.7451 17.0496 19.7451 20.1139V23.3959L21.3546 26.1836H19.7451V33.0993C22.8094 33.0993 25.2935 30.6152 25.2935 27.5509V26.1836H23.6609L25.2935 23.356Z" fill="#FFD524"/>
<path d="M17.3069 19.1989V23.3144L15.6504 26.1836H17.3069V27.5509C17.3069 30.6152 14.8228 33.0993 11.7585 33.0993V24.7473C11.7585 21.683 14.2426 19.1989 17.3069 19.1989Z" fill="#FFD524"/>
<path d="M54.4633 31.2567V19.1167H52.378V15.7745H54.4633V15.3391C54.4633 11.5827 56.5627 9.5605 60.4526 9.5605C61.3022 9.5605 62.2501 9.65178 63.212 9.83434V13.0782C62.4748 12.9448 61.7867 12.8746 61.2179 12.8746C59.3432 12.8746 58.4726 13.6821 58.4726 15.3883V15.7745H63.219V19.1167H58.6692V31.2567H54.4633ZM69.0187 10.4733V14.1525H64.7286V10.4733H69.0187ZM68.9766 15.7745V31.2567H64.7708V15.7745H68.9766ZM74.9734 23.1329V31.2567H70.7675V15.7745H74.9734V20.4297C75.6263 17.1507 77.5432 15.3532 80.415 15.3532C83.7501 15.3532 85.5546 17.7896 85.5546 22.2623V31.2567H81.3488V22.9644C81.3488 20.3244 80.3588 19.0184 78.3436 19.0184C76.1951 19.0184 74.9734 20.4718 74.9734 23.1329ZM97.8593 15.7745H102.184L96.9746 31.2567H91.1468L85.993 15.7745H90.4165L94.1168 28.5745L97.8593 15.7745ZM113.256 26.0117H117.209C116.367 29.5365 113.544 31.678 109.781 31.678C105.111 31.678 101.959 28.3779 101.959 23.498C101.959 18.6322 105.076 15.3532 109.696 15.3532C114.274 15.3532 117.279 18.569 117.279 23.477C117.279 23.8491 117.265 24.2283 117.223 24.6215H106.017C106.291 26.9385 107.709 28.3147 109.9 28.3147C111.536 28.3147 112.645 27.5424 113.256 26.0117ZM106.066 22.0235H113.242C112.891 19.8118 111.683 18.6603 109.717 18.6603C107.702 18.6603 106.403 19.882 106.066 22.0235ZM122.971 24.1861V31.2567H118.766V15.7745H122.971V21.1529C123.533 17.8388 125.12 15.7745 128.146 15.7745H129.073V19.7346H127.444C123.997 19.7346 122.971 21.1388 122.971 24.1861ZM137.052 15.3532C141.609 15.3532 144.242 17.4034 144.242 20.7456H140.093C140.093 19.3062 139.061 18.4286 137.144 18.4286C135.452 18.4286 134.3 19.0956 134.3 20.0926C134.3 21.3144 135.831 21.5601 137.53 21.848L138.562 22.0306C141.055 22.4518 144.713 23.0768 144.713 26.777C144.713 29.8946 142.101 31.678 137.411 31.678C132.474 31.678 129.87 29.705 129.87 26.1662H134.019C134.019 27.7249 135.108 28.5745 137.375 28.5745C139.362 28.5745 140.57 27.9356 140.57 26.8402C140.57 25.5202 139.068 25.2534 137.081 24.9023L136.048 24.7198C133.766 24.3195 130.157 23.6946 130.157 20.1699C130.157 17.1928 132.741 15.3532 137.052 15.3532ZM156.976 26.0117H160.929C160.086 29.5365 157.263 31.678 153.5 31.678C148.831 31.678 145.678 28.3779 145.678 23.498C145.678 18.6322 148.796 15.3532 153.416 15.3532C157.994 15.3532 160.999 18.569 160.999 23.477C160.999 23.8491 160.985 24.2283 160.943 24.6215H149.736C150.01 26.9385 151.429 28.3147 153.619 28.3147C155.255 28.3147 156.365 27.5424 156.976 26.0117ZM149.786 22.0235H156.961C156.61 19.8118 155.403 18.6603 153.437 18.6603C151.422 18.6603 150.123 19.882 149.786 22.0235Z" fill="#290849"/>
<defs>
<linearGradient id="paint0_linear_1_808" x1="22.5195" y1="0.756721" x2="22.5195" y2="45.7567" gradientUnits="userSpaceOnUse">
<stop stop-color="#55185D"/>
<stop offset="1" stop-color="#290849"/>
</linearGradient>
</defs>
</svg>
