<svg width="534" height="451" viewBox="0 0 534 451" fill="none" xmlns="http://www.w3.org/2000/svg">
<g filter="url(#filter0_d_112_22)">
<path d="M61.6132 79.1663C61.6132 51.552 83.9989 29.1662 111.613 29.1662H422.387C450.001 29.1662 472.387 51.552 472.387 79.1662V516.083H61.6132V79.1663Z" fill="white"/>
<path d="M63.6132 79.1663C63.6132 52.6566 85.1035 31.1662 111.613 31.1662H422.387C448.897 31.1662 470.387 52.6566 470.387 79.1662V514.083H63.6132V79.1663Z" stroke="#290849" stroke-width="4"/>
</g>
<circle cx="267" cy="272.624" r="137.547" fill="#55185D" fill-opacity="0.05"/>
<circle cx="267" cy="272.624" r="77.6382" fill="url(#paint0_linear_112_22)"/>
<path d="M284.986 245.792C284.986 235.218 293.557 226.646 304.131 226.646V287.442C304.131 298.015 295.559 306.587 284.986 306.587V282.724H290.622L284.986 272.961V245.792Z" fill="#FFD524"/>
<path d="M276.573 272.967V242.634C265.999 242.634 257.427 251.206 257.427 261.78V273.105L262.981 282.724H257.427V306.587C268.001 306.587 276.573 298.015 276.573 287.442V282.724H270.939L276.573 272.967Z" fill="#FFD524"/>
<path d="M249.014 258.623V272.823L243.298 282.724H249.014V287.442C249.014 298.015 240.443 306.587 229.869 306.587V277.768C229.869 267.194 238.441 258.623 249.014 258.623Z" fill="#FFD524"/>
<rect x="197.02" y="50.6901" width="139.96" height="35.2404" rx="17.6202" fill="#290849"/>
<defs>
<filter id="filter0_d_112_22" x="0.31316" y="0.86623" width="533.374" height="609.516" filterUnits="userSpaceOnUse" color-interpolation-filters="sRGB">
<feFlood flood-opacity="0" result="BackgroundImageFix"/>
<feColorMatrix in="SourceAlpha" type="matrix" values="0 0 0 0 0 0 0 0 0 0 0 0 0 0 0 0 0 0 127 0" result="hardAlpha"/>
<feOffset dy="33"/>
<feGaussianBlur stdDeviation="30.65"/>
<feComposite in2="hardAlpha" operator="out"/>
<feColorMatrix type="matrix" values="0 0 0 0 0 0 0 0 0 0 0 0 0 0 0 0 0 0 0.1 0"/>
<feBlend mode="normal" in2="BackgroundImageFix" result="effect1_dropShadow_112_22"/>
<feBlend mode="normal" in="SourceGraphic" in2="effect1_dropShadow_112_22" result="shape"/>
</filter>
<linearGradient id="paint0_linear_112_22" x1="267" y1="194.986" x2="267" y2="350.263" gradientUnits="userSpaceOnUse">
<stop stop-color="#55185D"/>
<stop offset="1" stop-color="#290849"/>
</linearGradient>
</defs>
</svg>
