<svg width="54" height="55" viewBox="0 0 54 55" fill="none" xmlns="http://www.w3.org/2000/svg">
<g clip-path="url(#clip0_1_1135)">
<path d="M43.875 6.87891H38.8125V5.19141C38.8125 4.74385 38.6347 4.31463 38.3182 3.99816C38.0018 3.6817 37.5726 3.50391 37.125 3.50391C36.6774 3.50391 36.2482 3.6817 35.9318 3.99816C35.6153 4.31463 35.4375 4.74385 35.4375 5.19141V6.87891H28.6875V5.19141C28.6875 4.74385 28.5097 4.31463 28.1932 3.99816C27.8768 3.6817 27.4476 3.50391 27 3.50391C26.5524 3.50391 26.1232 3.6817 25.8068 3.99816C25.4903 4.31463 25.3125 4.74385 25.3125 5.19141V6.87891H18.5625V5.19141C18.5625 4.74385 18.3847 4.31463 18.0682 3.99816C17.7518 3.6817 17.3226 3.50391 16.875 3.50391C16.4274 3.50391 15.9982 3.6817 15.6818 3.99816C15.3653 4.31463 15.1875 4.74385 15.1875 5.19141V6.87891H10.125C9.67745 6.87891 9.24823 7.0567 8.93176 7.37316C8.61529 7.68963 8.4375 8.11885 8.4375 8.56641V42.3164C8.4375 44.1066 9.14866 45.8235 10.4145 47.0894C11.6804 48.3552 13.3973 49.0664 15.1875 49.0664H38.8125C40.6027 49.0664 42.3196 48.3552 43.5855 47.0894C44.8513 45.8235 45.5625 44.1066 45.5625 42.3164V8.56641C45.5625 8.11885 45.3847 7.68963 45.0682 7.37316C44.7518 7.0567 44.3226 6.87891 43.875 6.87891ZM25.3125 11.9414C25.3125 11.4939 25.4903 11.0646 25.8068 10.7482C26.1232 10.4317 26.5524 10.2539 27 10.2539C27.4476 10.2539 27.8768 10.4317 28.1932 10.7482C28.5097 11.0646 28.6875 11.4939 28.6875 11.9414V13.6289C28.6875 14.0765 28.5097 14.5057 28.1932 14.8221C27.8768 15.1386 27.4476 15.3164 27 15.3164C26.5524 15.3164 26.1232 15.1386 25.8068 14.8221C25.4903 14.5057 25.3125 14.0765 25.3125 13.6289V11.9414ZM16.875 15.3164C16.4274 15.3164 15.9982 15.1386 15.6818 14.8221C15.3653 14.5057 15.1875 14.0765 15.1875 13.6289V11.9414C15.1875 11.4939 15.3653 11.0646 15.6818 10.7482C15.9982 10.4317 16.4274 10.2539 16.875 10.2539C17.3226 10.2539 17.7518 10.4317 18.0682 10.7482C18.3847 11.0646 18.5625 11.4939 18.5625 11.9414V13.6289C18.5625 14.0765 18.3847 14.5057 18.0682 14.8221C17.7518 15.1386 17.3226 15.3164 16.875 15.3164ZM33.75 35.5664H20.25C19.8024 35.5664 19.3732 35.3886 19.0568 35.0722C18.7403 34.7557 18.5625 34.3265 18.5625 33.8789C18.5625 33.4314 18.7403 33.0021 19.0568 32.6857C19.3732 32.3692 19.8024 32.1914 20.25 32.1914H33.75C34.1976 32.1914 34.6268 32.3692 34.9432 32.6857C35.2597 33.0021 35.4375 33.4314 35.4375 33.8789C35.4375 34.3265 35.2597 34.7557 34.9432 35.0722C34.6268 35.3886 34.1976 35.5664 33.75 35.5664ZM33.75 28.8164H20.25C19.8024 28.8164 19.3732 28.6386 19.0568 28.3222C18.7403 28.0057 18.5625 27.5765 18.5625 27.1289C18.5625 26.6814 18.7403 26.2521 19.0568 25.9357C19.3732 25.6192 19.8024 25.4414 20.25 25.4414H33.75C34.1976 25.4414 34.6268 25.6192 34.9432 25.9357C35.2597 26.2521 35.4375 26.6814 35.4375 27.1289C35.4375 27.5765 35.2597 28.0057 34.9432 28.3222C34.6268 28.6386 34.1976 28.8164 33.75 28.8164ZM38.8125 13.6289C38.8125 14.0765 38.6347 14.5057 38.3182 14.8221C38.0018 15.1386 37.5726 15.3164 37.125 15.3164C36.6774 15.3164 36.2482 15.1386 35.9318 14.8221C35.6153 14.5057 35.4375 14.0765 35.4375 13.6289V11.9414C35.4375 11.4939 35.6153 11.0646 35.9318 10.7482C36.2482 10.4317 36.6774 10.2539 37.125 10.2539C37.5726 10.2539 38.0018 10.4317 38.3182 10.7482C38.6347 11.0646 38.8125 11.4939 38.8125 11.9414V13.6289Z" fill="url(#paint0_linear_1_1135)"/>
</g>
<defs>
<linearGradient id="paint0_linear_1_1135" x1="27" y1="3.50391" x2="27" y2="49.0664" gradientUnits="userSpaceOnUse">
<stop stop-color="#55185D"/>
<stop offset="1" stop-color="#290849"/>
</linearGradient>
<clipPath id="clip0_1_1135">
<rect width="54" height="54" fill="white" transform="translate(0 0.128906)"/>
</clipPath>
</defs>
</svg>
