<svg width="240" height="75" viewBox="0 0 240 75" fill="none" xmlns="http://www.w3.org/2000/svg">
<path d="M19.4921 19.6554L34.9327 15.3429C35.2353 15.2502 35.5009 15.0641 35.6913 14.8113C35.8818 14.5584 35.9874 14.2518 35.993 13.9353C35.9986 13.6189 35.904 13.3087 35.7226 13.0493C35.5412 12.7899 35.2825 12.5944 34.9833 12.491L1.9833 0.251031C1.71858 0.160996 1.43395 0.146747 1.16156 0.209893C0.889169 0.273038 0.639848 0.411065 0.44174 0.608393C0.243631 0.805721 0.104622 1.0545 0.0404026 1.32664C-0.0238171 1.59878 -0.0106908 1.88345 0.0782997 2.14853L12.3183 35.1485C12.4217 35.4477 12.6171 35.7065 12.8765 35.8878C13.136 36.0692 13.4461 36.1638 13.7626 36.1582C14.0791 36.1526 14.3857 36.047 14.6385 35.8566C14.8913 35.6661 15.0774 35.4006 15.1702 35.0979L19.4921 19.6554Z" fill="#FFD524"/>
<rect x="17.9968" y="18.1648" width="222" height="56" rx="28" fill="#FFD524"/>
<path d="M71.5685 57.1648V34.2848H86.4805V36.8448H74.3205V44.7168H85.9685V47.2128H74.3205V57.1648H71.5685ZM88.9718 57.1648V39.9168H91.6598V57.1648H88.9718ZM88.8438 37.3888V33.8688H91.7878V37.3888H88.8438ZM94.7508 57.1648V39.9168H97.2468L97.3428 43.0208C97.5561 42.4661 97.8441 41.9755 98.2068 41.5488C98.5694 41.1221 98.9854 40.7595 99.4548 40.4608C99.9454 40.1621 100.489 39.9381 101.087 39.7888C101.684 39.6181 102.324 39.5328 103.007 39.5328C103.967 39.5328 104.831 39.6821 105.599 39.9808C106.367 40.2795 107.017 40.7168 107.551 41.2928C108.084 41.8475 108.489 42.5301 108.767 43.3408C109.065 44.1515 109.215 45.0581 109.215 46.0608V57.1648H106.463V47.0848C106.463 46.2528 106.377 45.5275 106.207 44.9088C106.036 44.2688 105.78 43.7355 105.439 43.3088C105.097 42.8821 104.671 42.5621 104.159 42.3488C103.668 42.1355 103.081 42.0288 102.399 42.0288C101.673 42.0288 101.001 42.1568 100.383 42.4128C99.7854 42.6475 99.2734 42.9888 98.8468 43.4368C98.4201 43.8635 98.0894 44.3861 97.8548 45.0048C97.6201 45.6235 97.5028 46.3168 97.5028 47.0848V57.1648H94.7508ZM116.178 57.1648L109.586 39.9168H112.498L117.874 54.5728L123.282 39.9168H126.194L119.57 57.1648H116.178ZM125.988 48.5248C125.988 47.1808 126.18 45.9648 126.564 44.8768C126.969 43.7675 127.524 42.8181 128.228 42.0288C128.953 41.2395 129.828 40.6315 130.852 40.2048C131.876 39.7568 133.007 39.5328 134.244 39.5328C135.46 39.5328 136.559 39.7461 137.54 40.1728C138.543 40.5781 139.396 41.1541 140.1 41.9008C140.825 42.6475 141.38 43.5541 141.764 44.6208C142.148 45.6661 142.34 46.8288 142.34 48.1088V49.4848H128.836C128.921 50.3168 129.103 51.0848 129.38 51.7888C129.679 52.4715 130.052 53.0581 130.5 53.5488C130.969 54.0181 131.524 54.3915 132.164 54.6688C132.825 54.9248 133.551 55.0528 134.34 55.0528C134.959 55.0528 135.513 54.9781 136.004 54.8288C136.516 54.6795 136.975 54.4661 137.38 54.1888C137.785 53.8901 138.137 53.5381 138.436 53.1328C138.735 52.7061 138.98 52.2368 139.172 51.7248H142.084C141.593 53.5168 140.665 54.9355 139.3 55.9808C137.935 57.0261 136.26 57.5488 134.276 57.5488C133.017 57.5488 131.876 57.3355 130.852 56.9088C129.828 56.4608 128.953 55.8421 128.228 55.0528C127.524 54.2421 126.969 53.2928 126.564 52.2048C126.18 51.0955 125.988 49.8688 125.988 48.5248ZM128.9 47.1808H139.46C139.375 46.3915 139.204 45.6875 138.948 45.0688C138.692 44.4288 138.34 43.8848 137.892 43.4368C137.465 42.9888 136.943 42.6475 136.324 42.4128C135.727 42.1568 135.044 42.0288 134.276 42.0288C133.508 42.0288 132.815 42.1568 132.196 42.4128C131.599 42.6475 131.065 42.9888 130.596 43.4368C130.148 43.8848 129.775 44.4288 129.476 45.0688C129.199 45.6875 129.007 46.3915 128.9 47.1808ZM144.813 57.1648V39.9168H147.309L147.405 43.4048C147.747 42.1888 148.301 41.3035 149.069 40.7488C149.837 40.1941 150.808 39.9168 151.981 39.9168H153.933V42.7968H151.821C151.117 42.7968 150.499 42.9035 149.965 43.1168C149.432 43.3301 148.984 43.6395 148.621 44.0448C148.28 44.4288 148.013 44.9088 147.821 45.4848C147.651 46.0395 147.565 46.6688 147.565 47.3728V57.1648H144.813ZM154.414 51.5328H157.23C157.315 52.5995 157.763 53.4528 158.574 54.0928C159.384 54.7328 160.6 55.0528 162.222 55.0528C162.819 55.0528 163.374 55.0101 163.886 54.9248C164.398 54.8181 164.846 54.6581 165.23 54.4448C165.614 54.2315 165.912 53.9648 166.126 53.6448C166.36 53.3035 166.478 52.8981 166.478 52.4288C166.478 51.9381 166.35 51.5435 166.094 51.2448C165.859 50.9248 165.518 50.6688 165.07 50.4768C164.643 50.2635 164.12 50.1035 163.502 49.9968C162.904 49.8688 162.254 49.7515 161.55 49.6448C160.76 49.5168 159.96 49.3675 159.15 49.1968C158.36 49.0048 157.646 48.7381 157.006 48.3968C156.366 48.0555 155.843 47.5968 155.438 47.0208C155.054 46.4448 154.862 45.6981 154.862 44.7808C154.862 43.9915 155.011 43.2768 155.31 42.6368C155.63 41.9968 156.078 41.4528 156.654 41.0048C157.23 40.5355 157.934 40.1728 158.766 39.9168C159.598 39.6608 160.536 39.5328 161.582 39.5328C162.712 39.5328 163.715 39.6821 164.59 39.9808C165.486 40.2795 166.243 40.6848 166.862 41.1968C167.48 41.7088 167.971 42.3168 168.334 43.0208C168.696 43.7035 168.92 44.4501 169.006 45.2608H166.19C166.062 44.2581 165.592 43.4688 164.782 42.8928C163.971 42.3168 162.894 42.0288 161.55 42.0288C160.91 42.0288 160.344 42.0928 159.854 42.2208C159.384 42.3488 158.99 42.5301 158.67 42.7648C158.35 42.9781 158.104 43.2341 157.934 43.5328C157.763 43.8315 157.678 44.1621 157.678 44.5248C157.678 44.9941 157.806 45.3781 158.062 45.6768C158.318 45.9755 158.67 46.2208 159.118 46.4128C159.566 46.6048 160.078 46.7648 160.654 46.8928C161.23 47.0208 161.827 47.1381 162.446 47.2448C163.32 47.3941 164.163 47.5648 164.974 47.7568C165.806 47.9488 166.542 48.2261 167.182 48.5888C167.822 48.9301 168.334 49.3995 168.718 49.9968C169.102 50.5728 169.294 51.3408 169.294 52.3008C169.294 53.1968 169.112 53.9755 168.75 54.6368C168.387 55.2768 167.886 55.8208 167.246 56.2688C166.606 56.6955 165.848 57.0155 164.974 57.2288C164.12 57.4421 163.203 57.5488 162.222 57.5488C161.027 57.5488 159.95 57.3995 158.99 57.1008C158.051 56.8021 157.24 56.3861 156.558 55.8528C155.896 55.3195 155.384 54.6901 155.022 53.9648C154.659 53.2181 154.456 52.4075 154.414 51.5328ZM170.832 48.5248C170.832 47.1808 171.024 45.9648 171.408 44.8768C171.813 43.7675 172.368 42.8181 173.072 42.0288C173.797 41.2395 174.672 40.6315 175.696 40.2048C176.72 39.7568 177.85 39.5328 179.088 39.5328C180.304 39.5328 181.402 39.7461 182.384 40.1728C183.386 40.5781 184.24 41.1541 184.944 41.9008C185.669 42.6475 186.224 43.5541 186.608 44.6208C186.992 45.6661 187.184 46.8288 187.184 48.1088V49.4848H173.68C173.765 50.3168 173.946 51.0848 174.224 51.7888C174.522 52.4715 174.896 53.0581 175.344 53.5488C175.813 54.0181 176.368 54.3915 177.008 54.6688C177.669 54.9248 178.394 55.0528 179.184 55.0528C179.802 55.0528 180.357 54.9781 180.848 54.8288C181.36 54.6795 181.818 54.4661 182.224 54.1888C182.629 53.8901 182.981 53.5381 183.28 53.1328C183.578 52.7061 183.824 52.2368 184.016 51.7248H186.928C186.437 53.5168 185.509 54.9355 184.144 55.9808C182.778 57.0261 181.104 57.5488 179.12 57.5488C177.861 57.5488 176.72 57.3355 175.696 56.9088C174.672 56.4608 173.797 55.8421 173.072 55.0528C172.368 54.2421 171.813 53.2928 171.408 52.2048C171.024 51.0955 170.832 49.8688 170.832 48.5248ZM173.744 47.1808H184.304C184.218 46.3915 184.048 45.6875 183.792 45.0688C183.536 44.4288 183.184 43.8848 182.736 43.4368C182.309 42.9888 181.786 42.6475 181.168 42.4128C180.57 42.1568 179.888 42.0288 179.12 42.0288C178.352 42.0288 177.658 42.1568 177.04 42.4128C176.442 42.6475 175.909 42.9888 175.44 43.4368C174.992 43.8848 174.618 44.4288 174.32 45.0688C174.042 45.6875 173.85 46.3915 173.744 47.1808Z" fill="#290849"/>
</svg>
