<svg width="386" height="368" viewBox="0 0 386 368" fill="none" xmlns="http://www.w3.org/2000/svg">
<path d="M385.502 0.68825V315.508C385.502 369.906 341.538 414.036 287.203 414.305V291.539H315.937H316.803L316.37 290.789L287.203 240.27V99.4858C287.203 45.0875 331.167 0.957485 385.502 0.68825ZM213.851 291.539H242.569V315.508C242.569 369.906 198.605 414.036 144.27 414.305V291.539H172.575H173.441L173.008 290.789L144.27 241.014V182.41C144.27 128.011 188.234 83.8814 242.569 83.6121V240.299L213.418 290.789L212.985 291.539H213.851ZM70.4886 291.539H99.6356V315.508C99.6356 369.906 55.6718 414.036 1.33679 414.305V265.334C1.33679 210.935 45.3006 166.805 99.6356 166.536V239.555L70.0556 290.789L69.6226 291.539H70.4886Z" stroke="#FFD524"/>
</svg>
