<svg width="54" height="55" viewBox="0 0 54 55" fill="none" xmlns="http://www.w3.org/2000/svg">
<g clip-path="url(#clip0_1_1149)">
<path d="M27 8.56641C22.9949 8.56641 19.0798 9.75405 15.7497 11.9791C12.4196 14.2042 9.82412 17.3669 8.29145 21.0671C6.75877 24.7673 6.35776 28.8389 7.13911 32.767C7.92046 36.6951 9.84908 40.3033 12.6811 43.1353C15.5131 45.9673 19.1213 47.896 23.0494 48.6773C26.9775 49.4587 31.0491 49.0576 34.7494 47.525C38.4496 45.9923 41.6122 43.3968 43.8373 40.0667C46.0624 36.7366 47.25 32.8215 47.25 28.8164C47.2439 23.4477 45.1084 18.3006 41.3121 14.5043C37.5159 10.708 32.3688 8.57255 27 8.56641ZM36.6314 21.5728L28.1939 30.0103C28.0371 30.1671 27.851 30.2915 27.6461 30.3763C27.4413 30.4612 27.2217 30.5048 27 30.5048C26.7783 30.5048 26.5587 30.4612 26.3539 30.3763C26.149 30.2915 25.9629 30.1671 25.8061 30.0103C25.6493 29.8535 25.5249 29.6674 25.4401 29.4625C25.3552 29.2577 25.3116 29.0381 25.3116 28.8164C25.3116 28.5947 25.3552 28.3751 25.4401 28.1703C25.5249 27.9654 25.6493 27.7793 25.8061 27.6225L34.2436 19.185C34.4004 19.0282 34.5865 18.9038 34.7914 18.819C34.9962 18.7341 35.2158 18.6905 35.4375 18.6905C35.6592 18.6905 35.8788 18.7341 36.0836 18.819C36.2885 18.9038 36.4746 19.0282 36.6314 19.185C36.7882 19.3418 36.9126 19.5279 36.9974 19.7328C37.0823 19.9376 37.126 20.1572 37.126 20.3789C37.126 20.6006 37.0823 20.8202 36.9974 21.025C36.9126 21.2299 36.7882 21.416 36.6314 21.5728ZM20.25 3.50391C20.25 3.05635 20.4278 2.62713 20.7443 2.31066C21.0607 1.9942 21.49 1.81641 21.9375 1.81641H32.0625C32.5101 1.81641 32.9393 1.9942 33.2558 2.31066C33.5722 2.62713 33.75 3.05635 33.75 3.50391C33.75 3.95146 33.5722 4.38068 33.2558 4.69715C32.9393 5.01362 32.5101 5.19141 32.0625 5.19141H21.9375C21.49 5.19141 21.0607 5.01362 20.7443 4.69715C20.4278 4.38068 20.25 3.95146 20.25 3.50391Z" fill="url(#paint0_linear_1_1149)"/>
</g>
<defs>
<linearGradient id="paint0_linear_1_1149" x1="27" y1="1.81641" x2="27" y2="49.0664" gradientUnits="userSpaceOnUse">
<stop stop-color="#55185D"/>
<stop offset="1" stop-color="#290849"/>
</linearGradient>
<clipPath id="clip0_1_1149">
<rect width="54" height="54" fill="white" transform="translate(0 0.128906)"/>
</clipPath>
</defs>
</svg>
