<svg width="26" height="26" viewBox="0 0 26 26" fill="none" xmlns="http://www.w3.org/2000/svg">
<g clip-path="url(#clip0_1_1244)">
<path d="M22.9809 7.45901C22.8885 7.09747 22.7114 6.76309 22.4644 6.48344C22.2173 6.20379 21.9072 5.9869 21.5598 5.85065C18.198 4.5522 12.8473 4.56397 12.553 4.56397C12.2588 4.56397 6.90809 4.5522 3.54623 5.85065C3.19883 5.9869 2.8888 6.20379 2.64172 6.48344C2.39464 6.76309 2.2176 7.09747 2.12519 7.45901C1.87119 8.43776 1.56913 10.2266 1.56913 13.1942C1.56913 16.1618 1.87119 17.9506 2.12519 18.9294C2.21746 19.2911 2.39444 19.6257 2.64153 19.9055C2.88862 20.1853 3.19872 20.4024 3.54623 20.5387C6.76687 21.7812 11.8077 21.8244 12.4883 21.8244H12.6178C13.2984 21.8244 18.3421 21.7812 21.5598 20.5387C21.9074 20.4024 22.2175 20.1853 22.4645 19.9055C22.7116 19.6257 22.8886 19.2911 22.9809 18.9294C23.2349 17.9486 23.5369 16.1618 23.5369 13.1942C23.5369 10.2266 23.2349 8.43776 22.9809 7.45901ZM15.7492 13.8336L11.8263 16.5796C11.709 16.6618 11.5714 16.7103 11.4284 16.7198C11.2855 16.7294 11.1426 16.6996 11.0154 16.6337C10.8882 16.5678 10.7814 16.4683 10.7067 16.3461C10.632 16.2238 10.5922 16.0834 10.5916 15.9402V10.4482C10.5917 10.3047 10.6311 10.1639 10.7056 10.0412C10.7801 9.91856 10.8868 9.81866 11.0141 9.75242C11.1414 9.68618 11.2845 9.65613 11.4277 9.66555C11.5709 9.67497 11.7088 9.7235 11.8263 9.80584L15.7492 12.5518C15.8524 12.6242 15.9366 12.7203 15.9947 12.8322C16.0529 12.944 16.0833 13.0681 16.0833 13.1942C16.0833 13.3202 16.0529 13.4444 15.9947 13.5562C15.9366 13.668 15.8524 13.7642 15.7492 13.8365V13.8336Z" fill="white"/>
</g>
<defs>
<clipPath id="clip0_1_1244">
<rect width="25.1061" height="25.1061" fill="white" transform="translate(0 0.641113)"/>
</clipPath>
</defs>
</svg>
