<svg width="32" height="40" viewBox="0 0 32 40" fill="none" xmlns="http://www.w3.org/2000/svg">
<path d="M26.7515 21.0701C26.79 18.0829 28.3942 15.2563 30.9392 13.6917C29.3337 11.3988 26.6446 9.94502 23.8468 9.85748C20.8627 9.54427 17.9698 11.6431 16.4492 11.6431C14.8992 11.6431 12.5579 9.88858 10.0368 9.94045C6.75063 10.0466 3.6871 11.915 2.08831 14.7879C-1.34846 20.7382 1.21506 29.483 4.50719 34.2927C6.15432 36.6479 8.07934 39.2787 10.5982 39.1854C13.063 39.0832 13.9836 37.6137 16.9589 37.6137C19.9065 37.6137 20.7702 39.1854 23.3402 39.1261C25.9851 39.0832 27.6515 36.7605 29.2408 34.383C30.4243 32.7048 31.3349 30.8501 31.9391 28.8875C28.8308 27.5729 26.7551 24.4449 26.7515 21.0701Z" fill="white"/>
<path d="M21.8973 6.69438C23.3394 4.96318 24.0498 2.73803 23.8778 0.491455C21.6746 0.72286 19.6394 1.77585 18.1779 3.44063C16.7486 5.06719 16.0048 7.2532 16.1454 9.4139C18.3495 9.4366 20.5162 8.41215 21.8973 6.69438Z" fill="white"/>
</svg>
