<svg width="27" height="21" viewBox="0 0 27 21" fill="none" xmlns="http://www.w3.org/2000/svg">
<path d="M12.5577 1.47271L10.7829 0C4.10099 3.78697 0.968865 8.0999 0.133631 12.9388C-0.492794 16.9361 1.07327 20.092 5.04063 20.092C7.85954 20.092 10.5741 18.1985 11.2005 15.0427C11.7225 11.3609 9.63442 9.15183 7.02431 8.62586C8.06835 5.04929 12.4533 1.47271 12.5577 1.47271ZM21.5365 8.41548C22.6849 4.9441 26.8611 1.47271 26.9655 1.47271L25.1906 0C18.5088 3.78697 15.3766 8.0999 14.5414 12.9388C13.915 16.9361 15.4811 20.092 19.4484 20.092C22.2673 20.092 24.9818 18.1985 25.5039 15.0427C26.1303 11.3609 24.1466 8.94145 21.5365 8.41548Z" fill="black"/>
</svg>
