<svg width="214" height="72" viewBox="0 0 214 72" fill="none" xmlns="http://www.w3.org/2000/svg">
<rect x="1.54407" y="0.802856" width="211.628" height="69.4656" rx="10.5006" fill="black"/>
<rect x="1.54407" y="0.802856" width="211.628" height="69.4656" rx="10.5006" stroke="#A6A6A6" stroke-width="1.61548"/>
<path d="M145.61 34.1153V38.1865H143.058V40.8564H145.61V49.928C145.61 53.0257 147.011 54.2648 150.537 54.2648C151.156 54.2648 151.746 54.191 152.262 54.1025V51.4621C151.82 51.5064 151.54 51.5359 151.053 51.5359C149.475 51.5359 148.781 50.7983 148.781 49.1168V40.8564H152.262V38.1865H148.781V34.1153H145.61Z" fill="white"/>
<path d="M161.243 54.486C165.934 54.486 168.81 51.3441 168.81 46.1371C168.81 40.9596 165.919 37.803 161.243 37.803C156.553 37.803 153.661 40.9596 153.661 46.1371C153.661 51.3441 156.538 54.486 161.243 54.486ZM161.243 51.6686C158.485 51.6686 156.936 49.6478 156.936 46.1371C156.936 42.6559 158.485 40.6204 161.243 40.6204C163.987 40.6204 165.55 42.6559 165.55 46.1371C165.55 49.633 163.987 51.6686 161.243 51.6686Z" fill="white"/>
<path d="M171.271 54.1762H174.443V44.6915C174.443 42.4347 176.139 40.9154 178.543 40.9154C179.104 40.9154 180.048 41.0186 180.314 41.1071V37.98C179.974 37.8915 179.37 37.8472 178.898 37.8472C176.803 37.8472 175.018 38.9978 174.561 40.5761H174.325V38.1127H171.271V54.1762Z" fill="white"/>
<path d="M188.188 40.5023C190.533 40.5023 192.068 42.1397 192.141 44.662H184.028C184.205 42.1544 185.843 40.5023 188.188 40.5023ZM192.127 49.8395C191.536 51.0934 190.224 51.7866 188.306 51.7866C185.769 51.7866 184.132 50.0018 184.028 47.1844V47.0074H195.372V45.9011C195.372 40.8564 192.672 37.803 188.203 37.803C183.674 37.803 180.798 41.0629 180.798 46.1961C180.798 51.3294 183.615 54.486 188.218 54.486C191.891 54.486 194.457 52.7159 195.18 49.8395H192.127Z" fill="white"/>
<path d="M124.812 48.2442C125.057 52.1887 128.344 54.7114 133.236 54.7114C138.465 54.7114 141.737 52.0664 141.737 47.8467C141.737 44.5291 139.872 42.6945 135.346 41.6395L132.915 41.0433C130.041 40.3706 128.879 39.4685 128.879 37.8938C128.879 35.9063 130.683 34.6067 133.389 34.6067C135.958 34.6067 137.731 35.8757 138.052 37.9091H141.385C141.186 34.194 137.915 31.5796 133.435 31.5796C128.619 31.5796 125.409 34.194 125.409 38.1231C125.409 41.3643 127.228 43.2907 131.218 44.2233L134.062 44.9113C136.982 45.5993 138.266 46.6084 138.266 48.2901C138.266 50.2471 136.248 51.6689 133.496 51.6689C130.546 51.6689 128.497 50.3388 128.206 48.2442H124.812Z" fill="white"/>
<path d="M91.9598 37.8472C89.7767 37.8472 87.8886 38.9388 86.9151 40.7679H86.6791V38.1127H83.6257V59.516H86.7971V51.7424H87.0479C87.8886 53.4387 89.703 54.4418 91.9893 54.4418C96.0458 54.4418 98.6272 51.2409 98.6272 46.1371C98.6272 41.0334 96.0458 37.8472 91.9598 37.8472ZM91.06 51.5949C88.4049 51.5949 86.7381 49.5003 86.7381 46.1519C86.7381 42.7887 88.4049 40.6941 91.0748 40.6941C93.7594 40.6941 95.3673 42.7445 95.3673 46.1371C95.3673 49.5445 93.7594 51.5949 91.06 51.5949Z" fill="white"/>
<path d="M109.724 37.8472C107.541 37.8472 105.653 38.9388 104.68 40.7679H104.444V38.1127H101.39V59.516H104.562V51.7424H104.812C105.653 53.4387 107.468 54.4418 109.754 54.4418C113.81 54.4418 116.392 51.2409 116.392 46.1371C116.392 41.0334 113.81 37.8472 109.724 37.8472ZM108.825 51.5949C106.169 51.5949 104.503 49.5003 104.503 46.1519C104.503 42.7887 106.169 40.6941 108.839 40.6941C111.524 40.6941 113.132 42.7445 113.132 46.1371C113.132 49.5445 111.524 51.5949 108.825 51.5949Z" fill="white"/>
<path d="M77.9356 54.1762H81.5744L73.609 32.1147H69.9244L61.959 54.1762H65.4754L67.5088 48.3207H75.9175L77.9356 54.1762ZM71.5908 36.1203H71.8508L75.0461 45.4464H68.3802L71.5908 36.1203Z" fill="white"/>
<path d="M44.7515 36.0701C44.79 33.0829 46.3942 30.2563 48.9392 28.6917C47.3337 26.3988 44.6446 24.945 41.8468 24.8575C38.8627 24.5443 35.9698 26.6431 34.4492 26.6431C32.8992 26.6431 30.5579 24.8886 28.0368 24.9405C24.7506 25.0466 21.6871 26.915 20.0883 29.7879C16.6515 35.7382 19.2151 44.483 22.5072 49.2927C24.1543 51.6479 26.0793 54.2787 28.5982 54.1854C31.063 54.0832 31.9836 52.6137 34.9589 52.6137C37.9065 52.6137 38.7702 54.1854 41.3402 54.1261C43.9851 54.0832 45.6515 51.7605 47.2408 49.383C48.4243 47.7048 49.3349 45.8501 49.9391 43.8875C46.8308 42.5729 44.7551 39.4449 44.7515 36.0701Z" fill="white"/>
<path d="M39.8973 21.6944C41.3394 19.9632 42.0498 17.738 41.8778 15.4915C39.6746 15.7229 37.6394 16.7759 36.1779 18.4406C34.7486 20.0672 34.0048 22.2532 34.1454 24.4139C36.3495 24.4366 38.5162 23.4121 39.8973 21.6944Z" fill="white"/>
<path d="M67.7062 24.8538V14.31H71.7322C74.8888 14.31 76.7594 16.1878 76.7594 19.5271V19.5417C76.7594 22.8882 74.8961 24.8538 71.7322 24.8538H67.7062ZM69.9128 23.027H71.4692C73.442 23.027 74.5088 21.8287 74.5088 19.549V19.5344C74.5088 17.335 73.4055 16.1294 71.4692 16.1294H69.9128V23.027ZM82.1951 25.0145C79.813 25.0145 78.3151 23.4874 78.3151 20.9373V20.9227C78.3151 18.4018 79.8496 16.8601 82.1878 16.8601C84.5333 16.8601 86.075 18.3872 86.075 20.9227V20.9373C86.075 23.4947 84.5625 25.0145 82.1951 25.0145ZM82.2024 23.3412C83.24 23.3412 83.9049 22.4644 83.9049 20.9373V20.9227C83.9049 19.4102 83.2253 18.5333 82.1878 18.5333C81.1575 18.5333 80.4853 19.4102 80.4853 20.9227V20.9373C80.4853 22.4717 81.1502 23.3412 82.2024 23.3412ZM89.231 24.8538L87.1485 17.0208H89.2967L90.4805 22.8298H90.5243L91.9126 17.0208H93.9585L95.3541 22.8298H95.398L96.589 17.0208H98.6934L96.6182 24.8538H94.3458L92.9283 19.3152H92.8844L91.4742 24.8538H89.231ZM100.125 24.8538V17.0208H102.259V18.3068H102.302C102.704 17.4081 103.508 16.8601 104.692 16.8601C106.416 16.8601 107.395 17.9634 107.395 19.7974V24.8538H105.262V20.2358C105.262 19.2129 104.779 18.6283 103.822 18.6283C102.865 18.6283 102.259 19.3298 102.259 20.3527V24.8538H100.125ZM109.397 24.8538V14.31H111.53V24.8538H109.397ZM117.163 25.0145C114.781 25.0145 113.283 23.4874 113.283 20.9373V20.9227C113.283 18.4018 114.818 16.8601 117.156 16.8601C119.502 16.8601 121.043 18.3872 121.043 20.9227V20.9373C121.043 23.4947 119.531 25.0145 117.163 25.0145ZM117.171 23.3412C118.208 23.3412 118.873 22.4644 118.873 20.9373V20.9227C118.873 19.4102 118.194 18.5333 117.156 18.5333C116.126 18.5333 115.454 19.4102 115.454 20.9227V20.9373C115.454 22.4717 116.118 23.3412 117.171 23.3412ZM125.076 24.978C123.505 24.978 122.446 23.9916 122.446 22.6106V22.5959C122.446 21.1711 123.549 20.3381 125.493 20.2139L127.429 20.097V19.6147C127.429 18.9206 126.976 18.4895 126.143 18.4895C125.346 18.4895 124.864 18.8621 124.762 19.3663L124.747 19.4321H122.796L122.804 19.3444C122.921 17.8976 124.163 16.8601 126.231 16.8601C128.255 16.8601 129.562 17.9049 129.562 19.4832V24.8538H127.429V23.6847H127.385C126.939 24.4884 126.106 24.978 125.076 24.978ZM124.557 22.501C124.557 23.0782 125.032 23.4216 125.77 23.4216C126.727 23.4216 127.429 22.8078 127.429 21.9895V21.4268L125.814 21.5291C124.988 21.5803 124.557 21.931 124.557 22.4863V22.501ZM134.443 25.0145C132.47 25.0145 131.257 23.4801 131.257 20.9373V20.93C131.257 18.3799 132.47 16.8601 134.443 16.8601C135.554 16.8601 136.43 17.43 136.854 18.3799H136.898V14.31H139.032V24.8538H136.898V23.5166H136.854C136.438 24.4446 135.575 25.0145 134.443 25.0145ZM135.159 23.2463C136.197 23.2463 136.905 22.3548 136.905 20.9373V20.93C136.905 19.5198 136.189 18.6283 135.159 18.6283C134.099 18.6283 133.427 19.4978 133.427 20.93V20.9373C133.427 22.3621 134.092 23.2463 135.159 23.2463ZM148.215 25.0145C145.833 25.0145 144.335 23.4874 144.335 20.9373V20.9227C144.335 18.4018 145.87 16.8601 148.208 16.8601C150.553 16.8601 152.095 18.3872 152.095 20.9227V20.9373C152.095 23.4947 150.583 25.0145 148.215 25.0145ZM148.222 23.3412C149.26 23.3412 149.925 22.4644 149.925 20.9373V20.9227C149.925 19.4102 149.245 18.5333 148.208 18.5333C147.178 18.5333 146.505 19.4102 146.505 20.9227V20.9373C146.505 22.4717 147.17 23.3412 148.222 23.3412ZM153.797 24.8538V17.0208H155.931V18.3068H155.974C156.376 17.4081 157.18 16.8601 158.364 16.8601C160.088 16.8601 161.067 17.9634 161.067 19.7974V24.8538H158.934V20.2358C158.934 19.2129 158.451 18.6283 157.494 18.6283C156.537 18.6283 155.931 19.3298 155.931 20.3527V24.8538H153.797ZM169.695 25.0145C167.956 25.0145 167.138 24.3423 167.138 22.6617V18.6283H166.049V17.0208H167.138V15.1064H169.294V17.0208H170.726V18.6283H169.294V22.4279C169.294 23.1586 169.622 23.407 170.265 23.407C170.455 23.407 170.594 23.3851 170.726 23.3705V24.9341C170.485 24.9707 170.141 25.0145 169.695 25.0145ZM172.552 24.8538V14.31H174.685V18.3726H174.729C175.131 17.4008 175.957 16.8601 177.133 16.8601C178.828 16.8601 179.881 18.0438 179.881 19.9362V24.8538H177.747V20.3747C177.747 19.2786 177.206 18.6283 176.235 18.6283C175.292 18.6283 174.685 19.3444 174.685 20.3674V24.8538H172.552ZM185.419 25.0145C183.022 25.0145 181.568 23.4582 181.568 20.9519V20.9446C181.568 18.453 183.037 16.8601 185.331 16.8601C187.625 16.8601 189.065 18.4164 189.065 20.7838V21.4415H183.672C183.694 22.6909 184.374 23.4216 185.463 23.4216C186.339 23.4216 186.873 22.9394 187.026 22.501L187.041 22.4571H188.999L188.977 22.5375C188.736 23.692 187.655 25.0145 185.419 25.0145ZM185.368 18.453C184.491 18.453 183.833 19.0375 183.694 20.097H187.019C186.887 19.0156 186.252 18.453 185.368 18.453Z" fill="white"/>
</svg>
