<svg width="65" height="64" viewBox="0 0 65 64" fill="none" xmlns="http://www.w3.org/2000/svg">
<path d="M32.656 30.8162V58.4617C32.656 58.8595 32.2389 59.119 31.8822 58.9434L5.74445 46.0855C5.56095 45.9949 5.44446 45.8084 5.44446 45.6038V18.7255C5.44446 18.3331 5.85128 18.0736 6.20681 18.2384L32.3445 30.3291C32.5347 30.4172 32.656 30.6074 32.656 30.8162ZM59.7685 19.5657V46.4959C59.7685 46.7006 59.652 46.8877 59.4685 46.9776L35.1483 58.944C34.7915 59.1196 34.3744 58.8601 34.3744 58.4623V30.8168C34.3744 30.6073 34.4958 30.4172 34.6859 30.3297L46.0263 25.0832V34.3883C46.0263 34.7034 46.1839 35.0058 46.4573 35.1627C46.5925 35.24 46.7398 35.2774 46.8853 35.2774C47.114 35.2774 47.3392 35.1857 47.5046 35.0142L49.4421 33.003L51.2523 33.2083C51.6187 33.2505 51.9863 33.0525 52.1438 32.6837C52.1891 32.5769 52.2078 32.461 52.2078 32.3451V22.2251L59.0062 19.0804C59.3623 18.9156 59.7685 19.1758 59.7685 19.5675V19.5657ZM46.6462 47.6554C46.4368 47.2299 45.9219 47.0543 45.4958 47.2637L38.628 50.6427C38.2025 50.8521 38.0268 51.367 38.2363 51.7931C38.386 52.0967 38.6908 52.273 39.0077 52.273C39.135 52.273 39.2642 52.2446 39.3861 52.1843L46.2539 48.8053C46.6794 48.5959 46.8557 48.0816 46.6462 47.6554Z" fill="black"/>
<path d="M18.1137 11.2627L7.75592 16.054C7.34064 16.246 7.34064 16.8369 7.75592 17.0289L33.3607 28.8733C33.5037 28.9397 33.6685 28.9397 33.8115 28.8733L44.916 23.7361L18.1137 11.2627ZM57.5989 17.8685C58.0141 17.6765 58.0141 17.0862 57.5989 16.8937L31.9971 5.0498C31.8541 4.9834 31.6893 4.9834 31.5462 5.0498L24.3169 8.39375L51.4168 20.7289L57.5989 17.8685Z" fill="#F87E07"/>
<path d="M49.7182 21.3346L22.6177 9L20.5148 9.973L47.3164 22.4458L49.7182 21.3346Z" fill="black"/>
<path d="M47.4445 24.2694L50.189 23V31.3732L48.9136 31.2289C48.648 31.1987 48.3837 31.2941 48.1984 31.4866L47.4451 32.2689L47.4445 24.2694Z" fill="black"/>
</svg>
