<svg width="16" height="17" viewBox="0 0 16 17" fill="none" xmlns="http://www.w3.org/2000/svg">
<path fill-rule="evenodd" clip-rule="evenodd" d="M8 16.5811C9.05058 16.5811 10.0909 16.3741 11.0615 15.9721C12.0321 15.5701 12.914 14.9808 13.6569 14.2379C14.3997 13.495 14.989 12.6131 15.391 11.6425C15.7931 10.6719 16 9.63163 16 8.58105C16 7.53048 15.7931 6.49019 15.391 5.51959C14.989 4.54898 14.3997 3.66707 13.6569 2.9242C12.914 2.18133 12.0321 1.59206 11.0615 1.19002C10.0909 0.787981 9.05058 0.581055 8 0.581055C5.87827 0.581055 3.84344 1.42391 2.34315 2.9242C0.842855 4.42449 0 6.45932 0 8.58105C0 10.7028 0.842855 12.7376 2.34315 14.2379C3.84344 15.7382 5.87827 16.5811 8 16.5811ZM7.79378 11.8166L12.2382 6.48328L10.8729 5.3455L7.05067 9.93128L5.07289 7.95261L3.816 9.2095L6.48267 11.8762L7.17067 12.5642L7.79378 11.8166Z" fill="#F87E07"/>
</svg>
