<svg width="394" height="430" viewBox="0 0 394 430" fill="none" xmlns="http://www.w3.org/2000/svg">
<g clip-path="url(#clip0_373_3040)">
<path d="M0.5 24C0.5 10.7452 11.2452 0 24.5 0H369.5C382.755 0 393.5 10.7452 393.5 24V430H0.5V24Z" fill="white"/>
<path fill-rule="evenodd" clip-rule="evenodd" d="M348.5 28C348.5 25.7909 350.291 24 352.5 24H366.5C368.709 24 370.5 25.7909 370.5 28V33C370.5 35.2091 368.709 37 366.5 37H352.5C350.291 37 348.5 35.2091 348.5 33V28Z" fill="#D2D2D2"/>
<path d="M348.5 28C348.5 25.7909 350.291 24 352.5 24H364.5V37H352.5C350.291 37 348.5 35.2091 348.5 33V28Z" fill="#1A1A1A"/>
<path d="M371.5 28.8076V32.8656C372.316 32.5219 372.847 31.7224 372.847 30.8366C372.847 29.9508 372.316 29.1513 371.5 28.8076Z" fill="#D2D2D2"/>
<path d="M353.618 34L356.621 28.209V28.126H353.067V26.9492H358.106V28.1406L355.161 34H353.618ZM362.092 34.1807C360.456 34.1807 359.181 33.0234 359.181 30.543V30.5332C359.181 28.1748 360.295 26.7734 362.096 26.7734C363.459 26.7734 364.474 27.5791 364.689 28.6826L364.699 28.7314H363.259L363.239 28.6875C363.073 28.248 362.673 27.9502 362.101 27.9502C361.081 27.9502 360.636 28.9512 360.583 30.2305C360.578 30.2842 360.578 30.3379 360.578 30.3916H360.676C360.929 29.8447 361.52 29.3613 362.492 29.3613C363.864 29.3613 364.792 30.3379 364.792 31.6709V31.6807C364.792 33.1211 363.678 34.1807 362.092 34.1807ZM360.798 31.7002C360.798 32.4424 361.364 33.0137 362.082 33.0137C362.795 33.0137 363.366 32.4521 363.366 31.7295V31.7197C363.366 30.9824 362.829 30.4453 362.092 30.4453C361.364 30.4453 360.798 30.9678 360.798 31.6953V31.7002Z" fill="white"/>
<path d="M332.381 32.5762C333.746 31.3979 335.745 31.3978 337.11 32.5762C337.179 32.6396 337.219 32.7297 337.221 32.8243C337.222 32.9186 337.186 33.0091 337.12 33.0752L334.982 35.2774C334.92 35.3421 334.834 35.3789 334.745 35.3789C334.656 35.3789 334.57 35.342 334.508 35.2774L332.37 33.0752C332.304 33.0091 332.268 32.9185 332.27 32.8243C332.271 32.7297 332.312 32.6396 332.381 32.5762ZM329.49 29.9405C332.432 27.1477 336.986 27.1477 339.928 29.9405C339.994 30.006 340.032 30.0962 340.033 30.1905C340.034 30.2846 339.998 30.3747 339.933 30.4414L338.697 31.7168C338.57 31.8468 338.364 31.8493 338.233 31.7227C337.268 30.8299 336.011 30.336 334.708 30.336C333.406 30.3365 332.15 30.8305 331.185 31.7227C331.054 31.8493 330.848 31.8469 330.721 31.7168L329.485 30.4414C329.42 30.3748 329.384 30.2845 329.385 30.1905C329.386 30.0962 329.424 30.006 329.49 29.9405ZM326.604 27.3096C331.115 22.8969 338.232 22.8967 342.743 27.3096C342.808 27.3752 342.845 27.4651 342.846 27.5586C342.846 27.6521 342.811 27.7423 342.746 27.8086L341.509 29.083C341.381 29.2137 341.174 29.2147 341.045 29.086C339.326 27.4182 337.045 26.4885 334.674 26.4883C332.302 26.4883 330.02 27.4178 328.301 29.086C328.172 29.2148 327.965 29.2137 327.838 29.083L326.6 27.8086C326.535 27.7423 326.499 27.652 326.5 27.5586C326.501 27.4651 326.538 27.3751 326.604 27.3096Z" fill="#1A1A1A"/>
<path d="M313.115 26.8846C313.115 26.3536 313.546 25.9231 314.077 25.9231H315.038C315.57 25.9231 316 26.3536 316 26.8846V34.5769C316 35.108 315.57 35.5385 315.038 35.5385H314.077C313.546 35.5385 313.115 35.108 313.115 34.5769V26.8846Z" fill="#1A1A1A"/>
<path d="M317.923 24.9615C317.923 24.4305 318.354 24 318.885 24H319.846C320.377 24 320.808 24.4305 320.808 24.9615V34.5769C320.808 35.108 320.377 35.5385 319.846 35.5385H318.885C318.354 35.5385 317.923 35.108 317.923 34.5769V24.9615Z" fill="#1A1A1A"/>
<path d="M308.308 30.25C308.308 29.719 308.738 29.2885 309.269 29.2885H310.231C310.762 29.2885 311.192 29.719 311.192 30.25V34.5769C311.192 35.108 310.762 35.5385 310.231 35.5385H309.269C308.738 35.5385 308.308 35.108 308.308 34.5769V30.25Z" fill="#1A1A1A"/>
<path d="M303.5 32.6538C303.5 32.1228 303.93 31.6923 304.462 31.6923H305.423C305.954 31.6923 306.385 32.1228 306.385 32.6538V34.5769C306.385 35.108 305.954 35.5385 305.423 35.5385H304.462C303.93 35.5385 303.5 35.108 303.5 34.5769V32.6538Z" fill="#1A1A1A"/>
<path d="M28.9219 36.2637C26.7612 36.2637 25.3037 34.9453 25.1646 33.2095L25.1572 33.1143H26.9004L26.9077 33.1655C27.0469 34.0298 27.8452 34.7183 28.9292 34.7183C30.167 34.7183 31.0166 33.8467 31.0166 32.6016V32.5869C31.0166 31.3564 30.1523 30.4922 28.9438 30.4922C28.3506 30.4922 27.8379 30.668 27.4497 31.0195C27.2593 31.1807 27.0835 31.3857 26.959 31.6201H25.3403L25.853 25.4312H32.1958V26.9839H27.3252L27.0322 30.1992H27.1567C27.5962 29.4888 28.4165 29.064 29.4126 29.064C31.3828 29.064 32.811 30.5288 32.811 32.5503V32.5649C32.811 34.7622 31.207 36.2637 28.9219 36.2637ZM36.0152 29.1519C35.3487 29.1519 34.8506 28.6392 34.8506 27.9946C34.8506 27.3428 35.3487 26.8374 36.0152 26.8374C36.689 26.8374 37.1797 27.3428 37.1797 27.9946C37.1797 28.6392 36.689 29.1519 36.0152 29.1519ZM36.0152 34.5864C35.3487 34.5864 34.8506 34.0811 34.8506 33.4292C34.8506 32.7773 35.3487 32.272 36.0152 32.272C36.689 32.272 37.1797 32.7773 37.1797 33.4292C37.1797 34.0811 36.689 34.5864 36.0152 34.5864ZM42.0098 36V27.2915H41.8853L39.2559 29.1519V27.3721L42.0172 25.4312H43.8995V36H42.0098ZM50.4947 36.2124C48.1803 36.2124 46.6642 34.9526 46.525 33.1436L46.5177 33.0557H48.3195L48.3268 33.1362C48.4293 34.0298 49.257 34.667 50.4947 34.667C51.7179 34.667 52.5309 33.9858 52.5309 33.0044V32.9897C52.5309 31.8765 51.7106 31.2612 50.3556 31.2612H49.1105V29.855H50.319C51.4835 29.855 52.2599 29.1958 52.2599 28.2729V28.2583C52.2599 27.2915 51.608 26.7202 50.4801 26.7202C49.3668 26.7202 48.5978 27.3135 48.5026 28.2583L48.4952 28.3315H46.7374L46.7447 28.251C46.9059 26.4199 48.3487 25.2188 50.4801 25.2188C52.6554 25.2188 54.069 26.354 54.069 28.0093V28.0239C54.069 29.335 53.1241 30.2065 51.857 30.4702V30.5068C53.4098 30.6533 54.4425 31.5762 54.4425 33.041V33.0557C54.4425 34.916 52.8385 36.2124 50.4947 36.2124Z" fill="#1A1A1A"/>
<circle cx="34.5312" cy="98" r="17.4678" transform="rotate(180 34.5312 98)" fill="white" stroke="#D9D9D9" stroke-width="1.12695"/>
<path d="M35.8216 105.012L37.5371 103.364L31.9647 98.0001L37.5371 92.6358L35.8216 90.9879L28.5215 98.0001L35.8216 105.012Z" fill="black"/>
<path d="M153.881 89L148.921 97.34V103H147.061V97.32L142.121 89H144.201L148.001 95.56L151.801 89H153.881ZM161.799 101.74C160.772 102.753 159.526 103.26 158.059 103.26C156.592 103.26 155.346 102.753 154.319 101.74C153.306 100.727 152.799 99.48 152.799 98C152.799 96.52 153.306 95.2733 154.319 94.26C155.346 93.2467 156.592 92.74 158.059 92.74C159.526 92.74 160.772 93.2467 161.799 94.26C162.826 95.2733 163.339 96.52 163.339 98C163.339 99.48 162.826 100.727 161.799 101.74ZM158.059 101.56C159.059 101.56 159.899 101.22 160.579 100.54C161.259 99.86 161.599 99.0133 161.599 98C161.599 96.9867 161.259 96.14 160.579 95.46C159.899 94.78 159.059 94.44 158.059 94.44C157.072 94.44 156.239 94.78 155.559 95.46C154.879 96.14 154.539 96.9867 154.539 98C154.539 99.0133 154.879 99.86 155.559 100.54C156.239 101.22 157.072 101.56 158.059 101.56ZM172.29 93H174.03V103H172.29V101.56C171.584 102.693 170.504 103.26 169.05 103.26C167.877 103.26 166.937 102.893 166.23 102.16C165.524 101.413 165.17 100.407 165.17 99.14V93H166.91V99.04C166.91 99.8533 167.13 100.487 167.57 100.94C168.01 101.38 168.617 101.6 169.39 101.6C170.257 101.6 170.957 101.333 171.49 100.8C172.024 100.253 172.29 99.42 172.29 98.3V93ZM178.419 94.68C178.993 93.44 180.033 92.82 181.539 92.82V94.64C180.686 94.6 179.953 94.8267 179.339 95.32C178.726 95.8133 178.419 96.6067 178.419 97.7V103H176.679V93H178.419V94.68ZM191.442 103L187.422 89H189.382L192.582 100.52L195.982 89H197.862L201.262 100.52L204.462 89H206.422L202.402 103H200.242L196.922 91.82L193.602 103H191.442ZM215.33 93H217.07V103H215.33V101.28C214.464 102.6 213.204 103.26 211.55 103.26C210.15 103.26 208.957 102.753 207.97 101.74C206.984 100.713 206.49 99.4667 206.49 98C206.49 96.5333 206.984 95.2933 207.97 94.28C208.957 93.2533 210.15 92.74 211.55 92.74C213.204 92.74 214.464 93.4 215.33 94.72V93ZM211.77 101.58C212.784 101.58 213.63 101.24 214.31 100.56C214.99 99.8667 215.33 99.0133 215.33 98C215.33 96.9867 214.99 96.14 214.31 95.46C213.63 94.7667 212.784 94.42 211.77 94.42C210.77 94.42 209.93 94.7667 209.25 95.46C208.57 96.14 208.23 96.9867 208.23 98C208.23 99.0133 208.57 99.8667 209.25 100.56C209.93 101.24 210.77 101.58 211.77 101.58ZM219.707 103V88.4H221.447V103H219.707ZM224.101 103V88.4H225.841V103H224.101ZM229.716 98.8C229.889 99.6933 230.296 100.387 230.936 100.88C231.589 101.373 232.389 101.62 233.336 101.62C234.656 101.62 235.616 101.133 236.216 100.16L237.696 101C236.722 102.507 235.256 103.26 233.296 103.26C231.709 103.26 230.416 102.767 229.416 101.78C228.429 100.78 227.936 99.52 227.936 98C227.936 96.4933 228.422 95.24 229.396 94.24C230.369 93.24 231.629 92.74 233.176 92.74C234.642 92.74 235.836 93.26 236.756 94.3C237.689 95.3267 238.156 96.5667 238.156 98.02C238.156 98.2733 238.136 98.5333 238.096 98.8H229.716ZM233.176 94.38C232.242 94.38 231.469 94.6467 230.856 95.18C230.242 95.7 229.862 96.4 229.716 97.28H236.396C236.249 96.3333 235.876 95.6133 235.276 95.12C234.676 94.6267 233.976 94.38 233.176 94.38ZM245.303 94.68H242.643V100.1C242.643 100.593 242.736 100.947 242.923 101.16C243.123 101.36 243.423 101.467 243.823 101.48C244.223 101.48 244.716 101.467 245.303 101.44V103C243.783 103.2 242.67 103.08 241.963 102.64C241.256 102.187 240.903 101.34 240.903 100.1V94.68H238.923V93H240.903V90.72L242.643 90.2V93H245.303V94.68Z" fill="#262626"/>
<circle cx="356.5" cy="98" r="20.4365" transform="rotate(180 356.5 98)" fill="white" stroke="#D9D9D9" stroke-width="1.12695"/>
<path d="M357.141 88.2661C357.058 88.1818 356.958 88.1149 356.849 88.0692C356.739 88.0235 356.621 88 356.503 88C356.384 88 356.266 88.0235 356.157 88.0692C356.047 88.1149 355.947 88.1818 355.864 88.2661L347.766 96.3638C347.682 96.4474 347.615 96.5469 347.569 96.6566C347.524 96.7662 347.5 96.8838 347.5 97.0026C347.5 97.1214 347.524 97.239 347.569 97.3486C347.615 97.4583 347.682 97.5578 347.766 97.6414C347.85 97.7248 347.95 97.7908 348.06 97.8356C348.169 97.8803 348.287 97.903 348.405 97.9023H349.305V104.201C349.305 104.678 349.494 105.135 349.832 105.473C350.169 105.81 350.627 106 351.104 106H361.901C362.378 106 362.836 105.81 363.173 105.473C363.511 105.135 363.701 104.678 363.701 104.201V97.9023H364.6C364.839 97.9023 365.068 97.8076 365.236 97.6388C365.405 97.4701 365.5 97.2412 365.5 97.0026C365.501 96.8842 365.478 96.7668 365.433 96.6572C365.388 96.5476 365.322 96.4479 365.239 96.3638L357.141 88.2661Z" fill="black"/>
<g clip-path="url(#clip1_373_3040)">
<path d="M14.5 159C14.5 150.163 21.6634 143 30.5 143H364.5C373.337 143 380.5 150.163 380.5 159V242C380.5 250.837 373.337 258 364.5 258H30.5C21.6634 258 14.5 250.837 14.5 242V159Z" fill="#F58417"/>
<circle cx="105" cy="205.5" r="111.5" fill="#F68D26"/>
<circle cx="96" cy="205.5" r="101.5" fill="#FCA047"/>
<path d="M47.036 170.8L43.068 177.472V182H41.58V177.456L37.628 170.8H39.292L42.332 176.048L45.372 170.8H47.036ZM53.3705 180.992C52.5492 181.803 51.5518 182.208 50.3785 182.208C49.2052 182.208 48.2078 181.803 47.3865 180.992C46.5758 180.181 46.1705 179.184 46.1705 178C46.1705 176.816 46.5758 175.819 47.3865 175.008C48.2078 174.197 49.2052 173.792 50.3785 173.792C51.5518 173.792 52.5492 174.197 53.3705 175.008C54.1918 175.819 54.6025 176.816 54.6025 178C54.6025 179.184 54.1918 180.181 53.3705 180.992ZM50.3785 180.848C51.1785 180.848 51.8505 180.576 52.3945 180.032C52.9385 179.488 53.2105 178.811 53.2105 178C53.2105 177.189 52.9385 176.512 52.3945 175.968C51.8505 175.424 51.1785 175.152 50.3785 175.152C49.5892 175.152 48.9225 175.424 48.3785 175.968C47.8345 176.512 47.5625 177.189 47.5625 178C47.5625 178.811 47.8345 179.488 48.3785 180.032C48.9225 180.576 49.5892 180.848 50.3785 180.848ZM61.7635 174H63.1555V182H61.7635V180.848C61.1982 181.755 60.3342 182.208 59.1715 182.208C58.2328 182.208 57.4808 181.915 56.9155 181.328C56.3502 180.731 56.0675 179.925 56.0675 178.912V174H57.4595V178.832C57.4595 179.483 57.6355 179.989 57.9875 180.352C58.3395 180.704 58.8248 180.88 59.4435 180.88C60.1368 180.88 60.6968 180.667 61.1235 180.24C61.5502 179.803 61.7635 179.136 61.7635 178.24V174ZM66.6668 175.344C67.1254 174.352 67.9574 173.856 69.1628 173.856V175.312C68.4801 175.28 67.8934 175.461 67.4028 175.856C66.9121 176.251 66.6668 176.885 66.6668 177.76V182H65.2747V174H66.6668V175.344ZM83.9488 174H85.4048L82.9248 182H81.5008L79.6288 176.08L77.7568 182H76.3328L73.8528 174H75.3088L77.0688 180.08L78.9568 174H80.3008L82.1888 180.096L83.9488 174ZM93.1488 174H94.5408V182H93.1488V180.624C92.4554 181.68 91.4474 182.208 90.1248 182.208C89.0048 182.208 88.0501 181.803 87.2608 180.992C86.4714 180.171 86.0768 179.173 86.0768 178C86.0768 176.827 86.4714 175.835 87.2608 175.024C88.0501 174.203 89.0048 173.792 90.1248 173.792C91.4474 173.792 92.4554 174.32 93.1488 175.376V174ZM90.3008 180.864C91.1114 180.864 91.7888 180.592 92.3328 180.048C92.8768 179.493 93.1488 178.811 93.1488 178C93.1488 177.189 92.8768 176.512 92.3328 175.968C91.7888 175.413 91.1114 175.136 90.3008 175.136C89.5008 175.136 88.8288 175.413 88.2848 175.968C87.7408 176.512 87.4688 177.189 87.4688 178C87.4688 178.811 87.7408 179.493 88.2848 180.048C88.8288 180.592 89.5008 180.864 90.3008 180.864ZM96.6497 182V170.32H98.0418V182H96.6497ZM100.165 182V170.32H101.557V182H100.165ZM104.657 178.64C104.796 179.355 105.121 179.909 105.633 180.304C106.156 180.699 106.796 180.896 107.553 180.896C108.609 180.896 109.377 180.507 109.857 179.728L111.041 180.4C110.262 181.605 109.089 182.208 107.521 182.208C106.252 182.208 105.217 181.813 104.417 181.024C103.628 180.224 103.233 179.216 103.233 178C103.233 176.795 103.622 175.792 104.401 174.992C105.18 174.192 106.188 173.792 107.425 173.792C108.598 173.792 109.553 174.208 110.289 175.04C111.036 175.861 111.409 176.853 111.409 178.016C111.409 178.219 111.393 178.427 111.361 178.64H104.657ZM107.425 175.104C106.678 175.104 106.06 175.317 105.569 175.744C105.078 176.16 104.774 176.72 104.657 177.424H110.001C109.884 176.667 109.585 176.091 109.105 175.696C108.625 175.301 108.065 175.104 107.425 175.104ZM117.127 175.344H114.999V179.68C114.999 180.075 115.073 180.357 115.223 180.528C115.383 180.688 115.623 180.773 115.943 180.784C116.263 180.784 116.657 180.773 117.127 180.752V182C115.911 182.16 115.02 182.064 114.455 181.712C113.889 181.349 113.607 180.672 113.607 179.68V175.344H112.023V174H113.607V172.176L114.999 171.76V174H117.127V175.344ZM127.238 173.792C128.358 173.792 129.312 174.203 130.102 175.024C130.891 175.835 131.286 176.827 131.286 178C131.286 179.173 130.891 180.171 130.102 180.992C129.312 181.803 128.358 182.208 127.238 182.208C125.915 182.208 124.907 181.68 124.214 180.624V182H122.822V170.8H124.214V175.376C124.907 174.32 125.915 173.792 127.238 173.792ZM127.062 180.864C127.862 180.864 128.534 180.592 129.078 180.048C129.622 179.493 129.894 178.811 129.894 178C129.894 177.189 129.622 176.512 129.078 175.968C128.534 175.413 127.862 175.136 127.062 175.136C126.251 175.136 125.574 175.413 125.03 175.968C124.486 176.512 124.214 177.189 124.214 178C124.214 178.811 124.486 179.493 125.03 180.048C125.574 180.592 126.251 180.864 127.062 180.864ZM139.571 174H140.963V182H139.571V180.624C138.877 181.68 137.869 182.208 136.547 182.208C135.427 182.208 134.472 181.803 133.683 180.992C132.893 180.171 132.499 179.173 132.499 178C132.499 176.827 132.893 175.835 133.683 175.024C134.472 174.203 135.427 173.792 136.547 173.792C137.869 173.792 138.877 174.32 139.571 175.376V174ZM136.723 180.864C137.533 180.864 138.211 180.592 138.755 180.048C139.299 179.493 139.571 178.811 139.571 178C139.571 177.189 139.299 176.512 138.755 175.968C138.211 175.413 137.533 175.136 136.723 175.136C135.923 175.136 135.251 175.413 134.707 175.968C134.163 176.512 133.891 177.189 133.891 178C133.891 178.811 134.163 179.493 134.707 180.048C135.251 180.592 135.923 180.864 136.723 180.864ZM143.072 182V170.32H144.464V182H143.072ZM153.211 174H154.603V182H153.211V180.624C152.518 181.68 151.51 182.208 150.187 182.208C149.067 182.208 148.113 181.803 147.323 180.992C146.534 180.171 146.139 179.173 146.139 178C146.139 176.827 146.534 175.835 147.323 175.024C148.113 174.203 149.067 173.792 150.187 173.792C151.51 173.792 152.518 174.32 153.211 175.376V174ZM150.363 180.864C151.174 180.864 151.851 180.592 152.395 180.048C152.939 179.493 153.211 178.811 153.211 178C153.211 177.189 152.939 176.512 152.395 175.968C151.851 175.413 151.174 175.136 150.363 175.136C149.563 175.136 148.891 175.413 148.347 175.968C147.803 176.512 147.531 177.189 147.531 178C147.531 178.811 147.803 179.493 148.347 180.048C148.891 180.592 149.563 180.864 150.363 180.864ZM160.696 173.792C161.635 173.792 162.387 174.091 162.952 174.688C163.518 175.275 163.8 176.075 163.8 177.088V182H162.408V177.168C162.408 176.517 162.232 176.016 161.88 175.664C161.528 175.301 161.043 175.12 160.424 175.12C159.731 175.12 159.171 175.339 158.744 175.776C158.318 176.203 158.104 176.864 158.104 177.76V182H156.712V174H158.104V175.152C158.67 174.245 159.534 173.792 160.696 173.792ZM169.504 182.208C168.298 182.208 167.296 181.808 166.496 181.008C165.696 180.197 165.296 179.195 165.296 178C165.296 176.805 165.696 175.808 166.496 175.008C167.296 174.197 168.298 173.792 169.504 173.792C170.293 173.792 171.002 173.984 171.632 174.368C172.261 174.741 172.73 175.248 173.04 175.888L171.872 176.56C171.669 176.133 171.354 175.792 170.928 175.536C170.512 175.28 170.037 175.152 169.504 175.152C168.704 175.152 168.032 175.424 167.488 175.968C166.954 176.512 166.688 177.189 166.688 178C166.688 178.8 166.954 179.472 167.488 180.016C168.032 180.56 168.704 180.832 169.504 180.832C170.037 180.832 170.517 180.709 170.944 180.464C171.37 180.208 171.696 179.867 171.92 179.44L173.104 180.128C172.762 180.757 172.272 181.264 171.632 181.648C170.992 182.021 170.282 182.208 169.504 182.208ZM175.345 178.64C175.483 179.355 175.809 179.909 176.321 180.304C176.843 180.699 177.483 180.896 178.241 180.896C179.297 180.896 180.065 180.507 180.545 179.728L181.729 180.4C180.95 181.605 179.777 182.208 178.209 182.208C176.939 182.208 175.905 181.813 175.105 181.024C174.315 180.224 173.921 179.216 173.921 178C173.921 176.795 174.31 175.792 175.089 174.992C175.867 174.192 176.875 173.792 178.113 173.792C179.286 173.792 180.241 174.208 180.977 175.04C181.723 175.861 182.097 176.853 182.097 178.016C182.097 178.219 182.081 178.427 182.049 178.64H175.345ZM178.113 175.104C177.366 175.104 176.747 175.317 176.257 175.744C175.766 176.16 175.462 176.72 175.345 177.424H180.689C180.571 176.667 180.273 176.091 179.793 175.696C179.313 175.301 178.753 175.104 178.113 175.104ZM188.401 172.544C188.134 172.544 187.91 172.453 187.729 172.272C187.547 172.091 187.457 171.872 187.457 171.616C187.457 171.36 187.547 171.141 187.729 170.96C187.91 170.768 188.134 170.672 188.401 170.672C188.657 170.672 188.875 170.768 189.057 170.96C189.238 171.141 189.329 171.36 189.329 171.616C189.329 171.872 189.238 172.091 189.057 172.272C188.875 172.453 188.657 172.544 188.401 172.544ZM187.697 182V174H189.089V182H187.697ZM192.397 176.16C192.397 176.469 192.551 176.72 192.861 176.912C193.17 177.093 193.543 177.243 193.981 177.36C194.418 177.467 194.855 177.595 195.293 177.744C195.73 177.883 196.103 178.128 196.413 178.48C196.722 178.821 196.877 179.264 196.877 179.808C196.877 180.533 196.594 181.115 196.029 181.552C195.474 181.989 194.759 182.208 193.885 182.208C193.106 182.208 192.439 182.037 191.885 181.696C191.33 181.355 190.935 180.901 190.701 180.336L191.901 179.648C192.029 180.032 192.269 180.336 192.621 180.56C192.973 180.784 193.394 180.896 193.885 180.896C194.343 180.896 194.722 180.811 195.021 180.64C195.319 180.459 195.469 180.181 195.469 179.808C195.469 179.499 195.314 179.253 195.005 179.072C194.695 178.88 194.322 178.731 193.885 178.624C193.447 178.507 193.01 178.373 192.573 178.224C192.135 178.075 191.762 177.829 191.453 177.488C191.143 177.147 190.989 176.709 190.989 176.176C190.989 175.483 191.255 174.912 191.789 174.464C192.333 174.016 193.01 173.792 193.821 173.792C194.471 173.792 195.047 173.941 195.549 174.24C196.061 174.528 196.445 174.933 196.701 175.456L195.533 176.112C195.245 175.429 194.674 175.088 193.821 175.088C193.426 175.088 193.09 175.184 192.813 175.376C192.535 175.557 192.397 175.819 192.397 176.16ZM199.233 175.888C198.945 175.888 198.7 175.787 198.497 175.584C198.294 175.381 198.193 175.136 198.193 174.848C198.193 174.56 198.294 174.315 198.497 174.112C198.7 173.909 198.945 173.808 199.233 173.808C199.532 173.808 199.777 173.909 199.969 174.112C200.172 174.315 200.273 174.56 200.273 174.848C200.273 175.136 200.172 175.381 199.969 175.584C199.777 175.787 199.532 175.888 199.233 175.888ZM199.233 182.176C198.945 182.176 198.7 182.075 198.497 181.872C198.294 181.669 198.193 181.424 198.193 181.136C198.193 180.848 198.294 180.603 198.497 180.4C198.7 180.197 198.945 180.096 199.233 180.096C199.532 180.096 199.777 180.197 199.969 180.4C200.172 180.603 200.273 180.848 200.273 181.136C200.273 181.424 200.172 181.669 199.969 181.872C199.777 182.075 199.532 182.176 199.233 182.176Z" fill="white"/>
<path d="M40.316 233V224.776H37.82V222.728H40.316V220.104H37.82V218.056H40.316V210.152H43.644L46.684 218.056H50.46V210.152H52.988V218.056H55.484V220.104H52.988V222.728H55.484V224.776H52.988V233H49.628L46.588 224.776H42.812V233H40.316ZM42.812 222.728H45.82L44.86 220.104H42.748L42.812 222.728ZM50.46 228.488H50.588L50.492 224.776H49.148L50.46 228.488ZM42.748 218.056H44.092L42.748 214.088H42.62L42.748 218.056ZM48.38 222.728H50.524L50.46 220.104H47.42L48.38 222.728ZM64.6765 233V229.704L72.3245 221.832C74.0312 220.04 74.8845 218.547 74.8845 217.352C74.8845 216.477 74.6072 215.773 74.0525 215.24C73.5192 214.707 72.8258 214.44 71.9725 214.44C70.2872 214.44 69.0392 215.315 68.2285 217.064L64.5165 214.888C65.2205 213.352 66.2338 212.179 67.5565 211.368C68.8792 210.557 70.3298 210.152 71.9085 210.152C73.9352 210.152 75.6738 210.792 77.1245 212.072C78.5752 213.331 79.3005 215.037 79.3005 217.192C79.3005 219.517 78.0738 221.907 75.6205 224.36L71.2365 228.744H79.6525V233H64.6765ZM81.6765 233V229.704L89.3245 221.832C91.0312 220.04 91.8845 218.547 91.8845 217.352C91.8845 216.477 91.6072 215.773 91.0525 215.24C90.5192 214.707 89.8258 214.44 88.9725 214.44C87.2872 214.44 86.0392 215.315 85.2285 217.064L81.5165 214.888C82.2205 213.352 83.2338 212.179 84.5565 211.368C85.8792 210.557 87.3298 210.152 88.9085 210.152C90.9352 210.152 92.6738 210.792 94.1245 212.072C95.5752 213.331 96.3005 215.037 96.3005 217.192C96.3005 219.517 95.0738 221.907 92.6205 224.36L88.2365 228.744H96.6525V233H81.6765ZM105.141 228.584L102.741 237.48H99.3805L100.661 228.584H105.141ZM115.83 233.448C113.035 233.448 110.838 232.392 109.238 230.28C107.659 228.147 106.87 225.32 106.87 221.8C106.87 218.28 107.659 215.464 109.238 213.352C110.838 211.219 113.035 210.152 115.83 210.152C118.646 210.152 120.843 211.219 122.422 213.352C124.001 215.464 124.79 218.28 124.79 221.8C124.79 225.32 124.001 228.147 122.422 230.28C120.843 232.392 118.646 233.448 115.83 233.448ZM112.438 227.272C113.206 228.509 114.337 229.128 115.83 229.128C117.323 229.128 118.454 228.499 119.222 227.24C120.011 225.981 120.406 224.168 120.406 221.8C120.406 219.411 120.011 217.587 119.222 216.328C118.454 215.069 117.323 214.44 115.83 214.44C114.337 214.44 113.206 215.069 112.438 216.328C111.67 217.587 111.286 219.411 111.286 221.8C111.286 224.189 111.67 226.013 112.438 227.272ZM135.986 233.448C133.192 233.448 130.994 232.392 129.394 230.28C127.816 228.147 127.026 225.32 127.026 221.8C127.026 218.28 127.816 215.464 129.394 213.352C130.994 211.219 133.192 210.152 135.986 210.152C138.802 210.152 141 211.219 142.578 213.352C144.157 215.464 144.946 218.28 144.946 221.8C144.946 225.32 144.157 228.147 142.578 230.28C141 232.392 138.802 233.448 135.986 233.448ZM132.594 227.272C133.362 228.509 134.493 229.128 135.986 229.128C137.48 229.128 138.61 228.499 139.378 227.24C140.168 225.981 140.562 224.168 140.562 221.8C140.562 219.411 140.168 217.587 139.378 216.328C138.61 215.069 137.48 214.44 135.986 214.44C134.493 214.44 133.362 215.069 132.594 216.328C131.826 217.587 131.442 219.411 131.442 221.8C131.442 224.189 131.826 226.013 132.594 227.272ZM156.143 233.448C153.348 233.448 151.151 232.392 149.551 230.28C147.972 228.147 147.183 225.32 147.183 221.8C147.183 218.28 147.972 215.464 149.551 213.352C151.151 211.219 153.348 210.152 156.143 210.152C158.959 210.152 161.156 211.219 162.735 213.352C164.313 215.464 165.103 218.28 165.103 221.8C165.103 225.32 164.313 228.147 162.735 230.28C161.156 232.392 158.959 233.448 156.143 233.448ZM152.751 227.272C153.519 228.509 154.649 229.128 156.143 229.128C157.636 229.128 158.767 228.499 159.535 227.24C160.324 225.981 160.719 224.168 160.719 221.8C160.719 219.411 160.324 217.587 159.535 216.328C158.767 215.069 157.636 214.44 156.143 214.44C154.649 214.44 153.519 215.069 152.751 216.328C151.983 217.587 151.599 219.411 151.599 221.8C151.599 224.189 151.983 226.013 152.751 227.272Z" fill="white"/>
</g>
<rect x="16.5" y="282" width="115" height="77" rx="12" fill="#F4F4F4"/>
<path d="M73 321.5H68C67.7167 321.5 67.4793 321.404 67.288 321.212C67.0967 321.02 67.0007 320.783 67 320.5C66.9993 320.217 67.0953 319.98 67.288 319.788C67.4807 319.596 67.718 319.5 68 319.5H73V314.5C73 314.217 73.096 313.979 73.288 313.788C73.48 313.597 73.7173 313.501 74 313.5C74.2827 313.499 74.5203 313.595 74.713 313.788C74.9057 313.981 75.0013 314.218 75 314.5V319.5H80C80.2833 319.5 80.521 319.596 80.713 319.788C80.905 319.98 81.0007 320.217 81 320.5C80.9993 320.783 80.9033 321.02 80.712 321.213C80.5207 321.406 80.2833 321.501 80 321.5H75V326.5C75 326.783 74.904 327.021 74.712 327.213C74.52 327.405 74.2827 327.501 74 327.5C73.7173 327.499 73.48 327.403 73.288 327.212C73.096 327.021 73 326.783 73 326.5V321.5Z" fill="black"/>
<path d="M59.5598 370.2V371.74H56.8018V380H55.1918V371.74H52.4198V370.2H59.5598ZM62.4185 380.182C61.3918 380.182 60.5192 379.827 59.8005 379.118C59.0818 378.409 58.7225 377.536 58.7225 376.5C58.7225 375.464 59.0818 374.591 59.8005 373.882C60.5192 373.173 61.3918 372.818 62.4185 372.818C63.4545 372.818 64.3272 373.173 65.0365 373.882C65.7552 374.591 66.1145 375.464 66.1145 376.5C66.1145 377.536 65.7552 378.409 65.0365 379.118C64.3272 379.827 63.4545 380.182 62.4185 380.182ZM60.8645 378.082C61.2845 378.502 61.8025 378.712 62.4185 378.712C63.0345 378.712 63.5525 378.502 63.9725 378.082C64.3925 377.662 64.6025 377.135 64.6025 376.5C64.6025 375.865 64.3925 375.338 63.9725 374.918C63.5525 374.498 63.0345 374.288 62.4185 374.288C61.8025 374.288 61.2845 374.498 60.8645 374.918C60.4445 375.338 60.2345 375.865 60.2345 376.5C60.2345 377.135 60.4445 377.662 60.8645 378.082ZM71.1637 372.818C72.125 372.818 72.9464 373.177 73.6277 373.896C74.309 374.605 74.6497 375.473 74.6497 376.5C74.6497 377.536 74.309 378.409 73.6277 379.118C72.9464 379.827 72.125 380.182 71.1637 380.182C70.0997 380.182 69.283 379.79 68.7137 379.006V382.8H67.2017V373H68.7137V374.008C69.283 373.215 70.0997 372.818 71.1637 372.818ZM69.3437 378.11C69.7637 378.53 70.291 378.74 70.9257 378.74C71.5604 378.74 72.0877 378.53 72.5077 378.11C72.9277 377.681 73.1377 377.144 73.1377 376.5C73.1377 375.856 72.9277 375.324 72.5077 374.904C72.0877 374.475 71.5604 374.26 70.9257 374.26C70.291 374.26 69.7637 374.475 69.3437 374.904C68.9237 375.324 68.7137 375.856 68.7137 376.5C68.7137 377.144 68.9237 377.681 69.3437 378.11ZM85.344 379.258C84.6534 379.874 83.762 380.182 82.67 380.182C81.578 380.182 80.6867 379.874 79.996 379.258C79.3054 378.633 78.96 377.797 78.96 376.752V370.2H80.57V376.654C80.57 377.251 80.7427 377.727 81.088 378.082C81.4427 378.437 81.97 378.614 82.67 378.614C83.37 378.614 83.8927 378.437 84.238 378.082C84.5927 377.727 84.77 377.251 84.77 376.654V370.2H86.38V376.752C86.38 377.797 86.0347 378.633 85.344 379.258ZM91.8159 372.818C92.7772 372.818 93.5985 373.177 94.2799 373.896C94.9612 374.605 95.3019 375.473 95.3019 376.5C95.3019 377.536 94.9612 378.409 94.2799 379.118C93.5985 379.827 92.7772 380.182 91.8159 380.182C90.7519 380.182 89.9352 379.79 89.3659 379.006V382.8H87.8539V373H89.3659V374.008C89.9352 373.215 90.7519 372.818 91.8159 372.818ZM89.9959 378.11C90.4159 378.53 90.9432 378.74 91.5779 378.74C92.2125 378.74 92.7399 378.53 93.1599 378.11C93.5799 377.681 93.7899 377.144 93.7899 376.5C93.7899 375.856 93.5799 375.324 93.1599 374.904C92.7399 374.475 92.2125 374.26 91.5779 374.26C90.9432 374.26 90.4159 374.475 89.9959 374.904C89.5759 375.324 89.3659 375.856 89.3659 376.5C89.3659 377.144 89.5759 377.681 89.9959 378.11Z" fill="black"/>
<rect x="139.5" y="282" width="115" height="77" rx="12" fill="#F4F4F4"/>
<path d="M204.001 322.5V328.5M204.001 328.5L206.001 326.5M204.001 328.5L202.001 326.5" stroke="black" stroke-width="1.5" stroke-linecap="round" stroke-linejoin="round"/>
<path d="M207.001 320.5C207.001 316.729 207.001 314.843 205.829 313.672C204.657 312.501 202.772 312.5 199.001 312.5H195.001C191.23 312.5 189.344 312.5 188.173 313.672C187.002 314.844 187.001 316.729 187.001 320.5C187.001 324.271 187.001 326.157 188.173 327.328C189.345 328.499 191.23 328.5 195.001 328.5H199.001M195.001 324.5H191.001M198.001 324.5H197.501M187.001 318.5H207.001" stroke="black" stroke-width="1.5" stroke-linecap="round"/>
<path d="M169.47 380L166.698 370.2H168.392L170.45 377.858L172.676 370.2H174.16L176.372 377.858L178.43 370.2H180.124L177.352 380H175.49L173.418 372.846L171.332 380H169.47ZM182.161 371.67C181.975 371.857 181.751 371.95 181.489 371.95C181.228 371.95 180.999 371.857 180.803 371.67C180.617 371.474 180.523 371.245 180.523 370.984C180.523 370.723 180.617 370.499 180.803 370.312C180.99 370.116 181.219 370.018 181.489 370.018C181.76 370.018 181.989 370.116 182.175 370.312C182.362 370.499 182.455 370.723 182.455 370.984C182.455 371.245 182.357 371.474 182.161 371.67ZM180.733 380V373H182.245V380H180.733ZM187.627 374.456H185.891V377.816C185.891 378.105 185.956 378.315 186.087 378.446C186.218 378.567 186.409 378.637 186.661 378.656C186.922 378.665 187.244 378.661 187.627 378.642V380C186.47 380.14 185.639 380.042 185.135 379.706C184.631 379.361 184.379 378.731 184.379 377.816V374.456H183.091V373H184.379V371.488L185.891 371.04V373H187.627V374.456ZM192.4 372.818C193.203 372.818 193.852 373.075 194.346 373.588C194.841 374.101 195.088 374.806 195.088 375.702V380H193.576V375.856C193.576 375.333 193.436 374.932 193.156 374.652C192.876 374.372 192.494 374.232 192.008 374.232C191.476 374.232 191.047 374.4 190.72 374.736C190.394 375.063 190.23 375.567 190.23 376.248V380H188.718V370.2H190.23V373.896C190.688 373.177 191.411 372.818 192.4 372.818ZM201.98 370.2H203.492V380H201.98V378.992C201.411 379.785 200.594 380.182 199.53 380.182C198.569 380.182 197.748 379.827 197.066 379.118C196.385 378.399 196.044 377.527 196.044 376.5C196.044 375.464 196.385 374.591 197.066 373.882C197.748 373.173 198.569 372.818 199.53 372.818C200.594 372.818 201.411 373.21 201.98 373.994V370.2ZM198.186 378.11C198.606 378.53 199.134 378.74 199.768 378.74C200.403 378.74 200.93 378.53 201.35 378.11C201.77 377.681 201.98 377.144 201.98 376.5C201.98 375.856 201.77 375.324 201.35 374.904C200.93 374.475 200.403 374.26 199.768 374.26C199.134 374.26 198.606 374.475 198.186 374.904C197.766 375.324 197.556 375.856 197.556 376.5C197.556 377.144 197.766 377.681 198.186 378.11ZM206.487 374.176C206.869 373.308 207.588 372.874 208.643 372.874V374.512C208.064 374.475 207.56 374.615 207.131 374.932C206.701 375.24 206.487 375.753 206.487 376.472V380H204.975V373H206.487V374.176ZM214.696 373H216.208V380H214.696V378.992C214.126 379.785 213.31 380.182 212.246 380.182C211.284 380.182 210.463 379.827 209.782 379.118C209.1 378.399 208.76 377.527 208.76 376.5C208.76 375.464 209.1 374.591 209.782 373.882C210.463 373.173 211.284 372.818 212.246 372.818C213.31 372.818 214.126 373.21 214.696 373.994V373ZM210.902 378.11C211.322 378.53 211.849 378.74 212.484 378.74C213.118 378.74 213.646 378.53 214.066 378.11C214.486 377.681 214.696 377.144 214.696 376.5C214.696 375.856 214.486 375.324 214.066 374.904C213.646 374.475 213.118 374.26 212.484 374.26C211.849 374.26 211.322 374.475 210.902 374.904C210.482 375.324 210.272 375.856 210.272 376.5C210.272 377.144 210.482 377.681 210.902 378.11ZM225.754 373H227.35L225.152 380H223.668L222.212 375.282L220.742 380H219.258L217.06 373H218.656L220.014 377.83L221.484 373H222.926L224.382 377.83L225.754 373Z" fill="black"/>
<rect x="262.5" y="282" width="115" height="77" rx="12" fill="#F4F4F4"/>
<path d="M320 329.5C317.9 329.5 316.042 328.863 314.425 327.588C312.808 326.313 311.758 324.684 311.275 322.7C311.208 322.45 311.258 322.221 311.425 322.013C311.592 321.805 311.817 321.684 312.1 321.65C312.367 321.617 312.608 321.667 312.825 321.8C313.042 321.933 313.192 322.133 313.275 322.4C313.675 323.9 314.5 325.125 315.75 326.075C317 327.025 318.417 327.5 320 327.5C321.95 327.5 323.604 326.821 324.963 325.463C326.322 324.105 327.001 322.451 327 320.5C326.999 318.549 326.32 316.895 324.963 315.538C323.606 314.181 321.951 313.501 320 313.5C318.85 313.5 317.775 313.767 316.775 314.3C315.775 314.833 314.933 315.567 314.25 316.5H316C316.283 316.5 316.521 316.596 316.713 316.788C316.905 316.98 317.001 317.217 317 317.5C316.999 317.783 316.903 318.02 316.712 318.213C316.521 318.406 316.283 318.501 316 318.5H312C311.717 318.5 311.479 318.404 311.288 318.212C311.097 318.02 311.001 317.783 311 317.5V313.5C311 313.217 311.096 312.979 311.288 312.788C311.48 312.597 311.717 312.501 312 312.5C312.283 312.499 312.52 312.595 312.713 312.788C312.906 312.981 313.001 313.218 313 313.5V314.85C313.85 313.783 314.888 312.958 316.113 312.375C317.338 311.792 318.634 311.5 320 311.5C321.25 311.5 322.421 311.738 323.513 312.213C324.605 312.688 325.555 313.33 326.363 314.137C327.171 314.944 327.813 315.894 328.288 316.987C328.763 318.08 329.001 319.251 329 320.5C328.999 321.749 328.762 322.92 328.288 324.013C327.814 325.106 327.172 326.056 326.363 326.863C325.554 327.67 324.604 328.312 323.513 328.788C322.422 329.264 321.251 329.501 320 329.5ZM321 320.1L323.5 322.6C323.683 322.783 323.775 323.017 323.775 323.3C323.775 323.583 323.683 323.817 323.5 324C323.317 324.183 323.083 324.275 322.8 324.275C322.517 324.275 322.283 324.183 322.1 324L319.3 321.2C319.2 321.1 319.125 320.988 319.075 320.863C319.025 320.738 319 320.609 319 320.475V316.5C319 316.217 319.096 315.979 319.288 315.788C319.48 315.597 319.717 315.501 320 315.5C320.283 315.499 320.52 315.595 320.713 315.788C320.906 315.981 321.001 316.218 321 316.5V320.1Z" fill="black"/>
<path d="M305.461 370.2H307.071V380H305.461V375.758H301.261V380H299.651V370.2H301.261V374.218H305.461V370.2ZM310.08 371.67C309.893 371.857 309.669 371.95 309.408 371.95C309.147 371.95 308.918 371.857 308.722 371.67C308.535 371.474 308.442 371.245 308.442 370.984C308.442 370.723 308.535 370.499 308.722 370.312C308.909 370.116 309.137 370.018 309.408 370.018C309.679 370.018 309.907 370.116 310.094 370.312C310.281 370.499 310.374 370.723 310.374 370.984C310.374 371.245 310.276 371.474 310.08 371.67ZM308.652 380V373H310.164V380H308.652ZM312.957 374.932C312.957 375.165 313.083 375.352 313.335 375.492C313.596 375.623 313.909 375.739 314.273 375.842C314.646 375.935 315.019 376.047 315.393 376.178C315.766 376.309 316.079 376.533 316.331 376.85C316.592 377.158 316.723 377.55 316.723 378.026C316.723 378.698 316.461 379.225 315.939 379.608C315.425 379.991 314.777 380.182 313.993 380.182C313.302 380.182 312.709 380.037 312.215 379.748C311.72 379.459 311.361 379.057 311.137 378.544L312.439 377.788C312.681 378.46 313.199 378.796 313.993 378.796C314.786 378.796 315.183 378.535 315.183 378.012C315.183 377.788 315.052 377.606 314.791 377.466C314.539 377.326 314.226 377.209 313.853 377.116C313.489 377.013 313.12 376.897 312.747 376.766C312.373 376.635 312.056 376.421 311.795 376.122C311.543 375.814 311.417 375.427 311.417 374.96C311.417 374.316 311.659 373.798 312.145 373.406C312.639 373.014 313.251 372.818 313.979 372.818C314.557 372.818 315.071 372.949 315.519 373.21C315.976 373.462 316.326 373.817 316.569 374.274L315.295 374.988C315.052 374.456 314.613 374.19 313.979 374.19C313.689 374.19 313.447 374.255 313.251 374.386C313.055 374.507 312.957 374.689 312.957 374.932ZM321.404 374.456H319.668V377.816C319.668 378.105 319.734 378.315 319.864 378.446C319.995 378.567 320.186 378.637 320.438 378.656C320.7 378.665 321.022 378.661 321.404 378.642V380C320.247 380.14 319.416 380.042 318.912 379.706C318.408 379.361 318.156 378.731 318.156 377.816V374.456H316.868V373H318.156V371.488L319.668 371.04V373H321.404V374.456ZM325.512 380.182C324.486 380.182 323.613 379.827 322.894 379.118C322.176 378.409 321.816 377.536 321.816 376.5C321.816 375.464 322.176 374.591 322.894 373.882C323.613 373.173 324.486 372.818 325.512 372.818C326.548 372.818 327.421 373.173 328.13 373.882C328.849 374.591 329.208 375.464 329.208 376.5C329.208 377.536 328.849 378.409 328.13 379.118C327.421 379.827 326.548 380.182 325.512 380.182ZM323.958 378.082C324.378 378.502 324.896 378.712 325.512 378.712C326.128 378.712 326.646 378.502 327.066 378.082C327.486 377.662 327.696 377.135 327.696 376.5C327.696 375.865 327.486 375.338 327.066 374.918C326.646 374.498 326.128 374.288 325.512 374.288C324.896 374.288 324.378 374.498 323.958 374.918C323.538 375.338 323.328 375.865 323.328 376.5C323.328 377.135 323.538 377.662 323.958 378.082ZM331.808 374.176C332.19 373.308 332.909 372.874 333.964 372.874V374.512C333.385 374.475 332.881 374.615 332.452 374.932C332.022 375.24 331.808 375.753 331.808 376.472V380H330.296V373H331.808V374.176ZM339.656 373H341.266L338.578 380.224C337.906 382.035 336.767 382.893 335.162 382.8V381.386C335.638 381.414 336.02 381.311 336.31 381.078C336.599 380.854 336.837 380.499 337.024 380.014L337.094 379.874L334.126 373H335.778L337.864 378.082L339.656 373Z" fill="black"/>
</g>
<defs>
<clipPath id="clip0_373_3040">
<path d="M0.5 24C0.5 10.7452 11.2452 0 24.5 0H369.5C382.755 0 393.5 10.7452 393.5 24V430H0.5V24Z" fill="white"/>
</clipPath>
<clipPath id="clip1_373_3040">
<rect x="16.5" y="143" width="361" height="115" rx="16" fill="white"/>
</clipPath>
</defs>
</svg>
