<svg width="136" height="41" viewBox="0 0 136 41" fill="none" xmlns="http://www.w3.org/2000/svg">
<circle cx="20" cy="20.5" r="19.5" fill="url(#paint0_linear_783_466)" stroke="#434343"/>
<path d="M26.4535 28.9992C26.1433 29.3174 25.7117 29.4998 25.2697 29.4998H14.7299C14.2883 29.4998 13.8573 29.3178 13.5473 29.0002C13.2431 28.6886 13.0811 28.2816 13.0913 27.8546L13.3863 16.0074C13.3901 15.8548 13.5149 15.7332 13.6675 15.7332H26.3315C26.4841 15.7332 26.6089 15.8548 26.6127 16.0074L26.9077 27.8542C26.9185 28.2808 26.7571 28.6874 26.4531 28.9992H26.4535ZM23.0915 19.023C23.0915 18.8676 22.9655 18.7418 22.8103 18.7418C22.6551 18.7418 22.5291 18.8678 22.5291 19.023V22.1402C22.5291 23.1886 21.6763 24.0414 20.6279 24.0414H19.3723C18.3239 24.0414 17.4711 23.1886 17.4711 22.1402V19.023C17.4711 18.8676 17.3451 18.7418 17.1899 18.7418C17.0347 18.7418 16.9087 18.8678 16.9087 19.023V22.1402C16.9087 23.4986 18.0139 24.6038 19.3723 24.6038H20.6279C21.9863 24.6038 23.0915 23.4986 23.0915 22.1402V19.023Z" fill="white"/>
<path d="M16.2806 15.1709H14.6152V13.9587C14.6152 13.8033 14.7412 13.6775 14.8964 13.6775H16.8594L16.2806 15.1709ZM22.972 14.6033L22.7522 15.1709H25.2758V11.7813C25.2758 11.6259 25.1498 11.5001 24.9946 11.5001H19.9462C19.7908 11.5001 19.665 11.6261 19.665 11.7813V12.4169L22.4904 13.5117C22.9242 13.6797 23.1404 14.1695 22.9724 14.6031L22.972 14.6033Z" fill="#FED92B"/>
<path d="M22.5077 14.3978C22.5637 14.253 22.4919 14.09 22.3471 14.034L18.2941 12.4634C18.2245 12.4364 18.1471 12.4382 18.0789 12.4684C18.0107 12.4986 17.9571 12.5546 17.9303 12.624L16.9443 15.1684H22.2093L22.5079 14.3976L22.5077 14.3978Z" fill="#F87E07"/>
<circle cx="52" cy="20.5" r="19.5" fill="url(#paint1_linear_783_466)" stroke="#434343"/>
<g clip-path="url(#clip0_783_466)">
<path d="M52.0146 20.3383V28.4669C52.0146 28.5839 51.8917 28.6602 51.7867 28.6086L44.0884 24.8279C44.0343 24.8013 44 24.7465 44 24.6863V16.7832C44 16.6679 44.1198 16.5915 44.2245 16.64L51.9228 20.1951C51.9788 20.221 52.0146 20.2769 52.0146 20.3383ZM60 17.0303V24.9486C60 25.0088 59.9657 25.0638 59.9116 25.0902L52.7486 28.6087C52.6436 28.6604 52.5207 28.5841 52.5207 28.4671V20.3385C52.5207 20.2769 52.5564 20.221 52.6124 20.1952L55.9525 18.6526V21.3886C55.9525 21.4812 55.9989 21.5702 56.0795 21.6163C56.1193 21.639 56.1627 21.65 56.2055 21.65C56.2729 21.65 56.3392 21.623 56.3879 21.5726L56.9586 20.9813L57.4917 21.0416C57.5996 21.054 57.7079 20.9958 57.7543 20.8874C57.7676 20.856 57.7732 20.8219 57.7732 20.7878V17.8122L59.7755 16.8876C59.8804 16.8391 60 16.9156 60 17.0308V17.0303ZM56.1351 25.2896C56.0734 25.1644 55.9218 25.1128 55.7963 25.1744L53.7735 26.1679C53.6482 26.2295 53.5964 26.3809 53.6581 26.5062C53.7022 26.5954 53.792 26.6473 53.8853 26.6473C53.9228 26.6473 53.9609 26.6389 53.9968 26.6212L56.0196 25.6277C56.1449 25.5661 56.1968 25.4149 56.1351 25.2896Z" fill="white"/>
<path d="M47.4638 14.3578L44.3912 15.7792C44.268 15.8361 44.268 16.0114 44.3912 16.0683L51.9868 19.582C52.0293 19.6017 52.0782 19.6017 52.1206 19.582L55.4147 18.058L47.4638 14.3578ZM59.1771 16.3174C59.3003 16.2605 59.3003 16.0854 59.1771 16.0282L51.5823 12.5148C51.5399 12.4951 51.491 12.4951 51.4486 12.5148L49.304 13.5067L57.3432 17.166L59.1771 16.3174Z" fill="#F87E07"/>
<path d="M56.8392 17.3456L48.7999 13.6866L48.176 13.9752L56.1267 17.6753L56.8392 17.3456Z" fill="#FED92B"/>
<path d="M61.374 15.6684L63.0894 14.875V20.1082L62.2923 20.0181C62.1263 19.9992 61.961 20.0588 61.8452 20.1791L61.3744 20.6681L61.374 15.6684Z" fill="#FED92B"/>
</g>
<circle cx="84" cy="20.5" r="19.5" fill="url(#paint2_linear_783_466)" stroke="#434343"/>
<path d="M81.9696 17.7751L82.3988 19.3276C82.803 20.7901 83.0046 21.5218 83.5988 21.8543C84.193 22.1876 84.9471 21.9909 86.4555 21.5993L88.0555 21.1826C89.5638 20.7909 90.318 20.5951 90.6613 20.0193C91.0047 19.4426 90.803 18.7109 90.398 17.2484L89.9696 15.6968C89.5655 14.2334 89.363 13.5018 88.7697 13.1693C88.1747 12.8359 87.4205 13.0326 85.9121 13.4251L84.3121 13.8401C82.8038 14.2318 82.0496 14.4284 81.7071 15.0051C81.3638 15.5809 81.5655 16.3126 81.9696 17.7751Z" fill="#F87E07"/>
<path d="M75.8967 14.8725C75.9186 14.7933 75.956 14.7193 76.0066 14.6546C76.0572 14.5899 76.12 14.5358 76.1915 14.4954C76.263 14.455 76.3418 14.4291 76.4233 14.4191C76.5049 14.4092 76.5876 14.4154 76.6667 14.4375L78.0858 14.8308C78.4619 14.9332 78.805 15.1311 79.0818 15.4054C79.3587 15.6796 79.5599 16.0208 79.6658 16.3958L81.4583 22.8841L81.59 23.34C82.1215 23.5359 82.5693 23.9087 82.8583 24.3958L83.1167 24.3158L93.1062 21.5856C93.1856 21.5649 93.2684 21.5601 93.3497 21.5714C93.431 21.5827 93.5093 21.6099 93.5801 21.6515C93.6509 21.693 93.7128 21.7481 93.7623 21.8136C93.8119 21.8791 93.848 21.9537 93.8687 22.0331C93.8894 22.1126 93.8942 22.1953 93.8829 22.2766C93.8716 22.358 93.8444 22.4362 93.8028 22.5071C93.7613 22.5779 93.7062 22.6398 93.6407 22.6893C93.5752 22.7388 93.5006 22.7749 93.4212 22.7956L83.4592 25.5183L83.1842 25.6033C83.1792 26.6616 82.4483 27.63 81.3425 27.9166C80.0175 28.2616 78.655 27.4983 78.3 26.2133C77.945 24.9283 78.7317 23.6058 80.0567 23.2616C80.1228 23.245 80.1886 23.2305 80.2542 23.2183L78.4608 16.7283C78.4124 16.5617 78.3217 16.4104 78.1976 16.2891C78.0735 16.1678 77.9202 16.0805 77.7525 16.0358L76.3325 15.6416C76.2534 15.6198 76.1793 15.5825 76.1146 15.532C76.0499 15.4815 75.9957 15.4188 75.9553 15.3474C75.9148 15.2759 75.8888 15.1972 75.8787 15.1157C75.8687 15.0343 75.8748 14.9516 75.8967 14.8725Z" fill="white"/>
<circle cx="86.1424" cy="17.2857" r="1.42857" fill="#FED92B"/>
<circle cx="116" cy="20.5" r="19.5" fill="url(#paint3_linear_783_466)" stroke="#434343"/>
<path d="M120.593 14.1354H117.817V15.986H120.593V18.438L117.355 22.4629H114.116V17.8365H110.415C108.37 17.8365 106.714 19.4928 106.714 21.5376V24.3134H108.564C108.564 25.8494 109.804 27.0893 111.34 27.0893C112.876 27.0893 114.116 25.8494 114.116 24.3134H118.28L122.444 19.0856V15.986C122.444 15.4952 122.249 15.0245 121.901 14.6774C121.554 14.3304 121.084 14.1354 120.593 14.1354ZM111.34 25.2387C110.831 25.2387 110.415 24.8223 110.415 24.3134H112.266C112.266 24.8223 111.849 25.2387 111.34 25.2387Z" fill="white"/>
<path d="M122.755 23.9523C123.219 23.9523 123.598 24.3273 123.598 24.7856C123.598 25.244 123.219 25.619 122.755 25.619C122.291 25.619 121.912 25.244 121.912 24.7856C121.912 24.3273 122.291 23.9523 122.755 23.9523ZM122.755 22.2856C121.355 22.2856 120.285 23.4023 120.285 24.7856C120.285 26.169 121.415 27.2856 122.815 27.2856C124.215 27.2856 125.285 26.169 125.285 24.7856C125.285 23.4023 124.155 22.2856 122.755 22.2856Z" fill="#FED92B"/>
<path d="M114.116 15.8538C114.116 15.3428 113.701 14.9285 113.19 14.9285H110.415C109.904 14.9285 109.489 15.3428 109.489 15.8538C109.489 16.3648 109.904 16.7791 110.415 16.7791H113.19C113.701 16.7791 114.116 16.3648 114.116 15.8538Z" fill="#F87E07"/>
<defs>
<linearGradient id="paint0_linear_783_466" x1="40" y1="7.48378" x2="-2.18016e-07" y2="33.5162" gradientUnits="userSpaceOnUse">
<stop/>
<stop offset="1" stop-color="#232222"/>
</linearGradient>
<linearGradient id="paint1_linear_783_466" x1="72" y1="7.48378" x2="32" y2="33.5162" gradientUnits="userSpaceOnUse">
<stop/>
<stop offset="1" stop-color="#232222"/>
</linearGradient>
<linearGradient id="paint2_linear_783_466" x1="104" y1="7.48378" x2="64" y2="33.5162" gradientUnits="userSpaceOnUse">
<stop/>
<stop offset="1" stop-color="#232222"/>
</linearGradient>
<linearGradient id="paint3_linear_783_466" x1="136" y1="7.48378" x2="96" y2="33.5162" gradientUnits="userSpaceOnUse">
<stop/>
<stop offset="1" stop-color="#232222"/>
</linearGradient>
<clipPath id="clip0_783_466">
<rect width="20" height="20" fill="white" transform="translate(42 10.5)"/>
</clipPath>
</defs>
</svg>
