<svg width="21" height="22" viewBox="0 0 21 22" fill="none" xmlns="http://www.w3.org/2000/svg">
<path d="M10.5 7.505C8.565 7.505 7.005 9.08 7.005 11C7.005 12.92 8.58 14.495 10.5 14.495C12.42 14.495 13.995 12.92 13.995 11C13.995 9.08 12.42 7.505 10.5 7.505ZM21 11C21 9.545 21 8.12 20.925 6.665C20.85 4.985 20.46 3.485 19.23 2.27C18 1.04 16.515 0.65 14.835 0.575C13.38 0.5 11.955 0.5 10.5 0.5C9.045 0.5 7.62 0.5 6.165 0.575C4.485 0.65 2.985 1.04 1.77 2.27C0.54 3.5 0.15 4.985 0.0749999 6.665C-7.26432e-08 8.12 0 9.545 0 11C0 12.455 -7.26432e-08 13.88 0.0749999 15.335C0.15 17.015 0.54 18.515 1.77 19.73C3 20.96 4.485 21.35 6.165 21.425C7.62 21.5 9.045 21.5 10.5 21.5C11.955 21.5 13.38 21.5 14.835 21.425C16.515 21.35 18.015 20.96 19.23 19.73C20.46 18.5 20.85 17.015 20.925 15.335C21.015 13.895 21 12.455 21 11ZM10.5 16.385C7.515 16.385 5.115 13.985 5.115 11C5.115 8.015 7.515 5.615 10.5 5.615C13.485 5.615 15.885 8.015 15.885 11C15.885 13.985 13.485 16.385 10.5 16.385ZM16.11 6.65C15.42 6.65 14.85 6.095 14.85 5.39C14.85 4.685 15.405 4.13 16.11 4.13C16.815 4.13 17.37 4.685 17.37 5.39C17.3738 5.55431 17.3438 5.71764 17.2819 5.86987C17.2199 6.02211 17.1274 6.16 17.01 6.275C16.895 6.39241 16.7571 6.48495 16.6049 6.54687C16.4526 6.6088 16.2893 6.6388 16.125 6.635L16.11 6.65Z" fill="white"/>
</svg>
