<svg width="95" height="17" viewBox="0 0 95 17" fill="none" xmlns="http://www.w3.org/2000/svg">
<path d="M5.9115 0.250916H9.57498L9.45479 8.72822C9.45479 12.9969 7.89454 15.3319 4.5444 16.0573C3.36187 16.3363 2.14285 16.5359 0.928127 16.6583L0.228481 16.7312L0.196289 12.7716L0.822966 12.7458C2.05486 12.6986 3.2846 12.484 4.46284 12.1106C5.11527 11.8573 5.90291 11.2371 5.8235 8.75612V8.7411L5.9115 3.41435V0.250916Z" fill="black"/>
<path d="M49.8665 0.902786C50.2249 1.35562 50.3988 1.90289 50.3752 2.46304V15.7413H46.8211V7.44426L42.061 14.7798C41.8549 15.106 41.5609 15.4001 41.2197 15.5996C40.887 15.7992 40.535 15.9001 40.1251 15.8937C39.331 15.8937 38.5842 15.4559 38.185 14.7476L33.3626 7.35842V15.7413H29.8021V2.30852C29.7699 1.79988 29.9438 1.27407 30.2957 0.853424C30.6756 0.45424 31.1842 0.248209 31.695 0.265378C32.3797 0.233186 33.0772 0.591593 33.4892 1.21183L40.1509 11.009L46.6752 1.23329C47.0486 0.613055 47.7483 0.224601 48.4887 0.265378C48.9694 0.246063 49.506 0.473555 49.8665 0.902786Z" fill="black"/>
<path d="M70.87 1.52136C70.3699 0.465452 69.0887 0.00832081 68.0242 0.495498C67.5778 0.716551 67.2129 1.07496 66.9983 1.52136L58.5017 15.7611H62.7919L64.9852 11.8444L72.8208 11.8122L75.0614 15.7396H79.1885L70.87 1.52136ZM70.6446 8.17658H67.0627L68.8354 5.2106L70.6446 8.17658Z" fill="black"/>
<path d="M27.4628 11.0191C27.5637 12.354 26.9842 13.6804 25.9219 14.5217L25.8489 14.5689C24.602 15.2943 23.2156 15.6741 21.7948 15.6741C21.5952 15.6741 18.3867 15.6527 18.3867 15.6527C17.9725 15.6527 17.5454 15.6377 17.1205 15.6205C16.6676 15.6055 16.1998 15.5475 15.7469 15.4466C15.2941 15.3522 14.8541 15.2063 14.4271 15.011C13.9892 14.8049 13.6008 14.5259 13.2746 14.1697L13.2681 14.1632C12.9205 13.7834 12.6479 13.3434 12.4676 12.8584C12.2466 12.2575 12.1478 11.6372 12.1672 11.0063V0.266907H15.674V10.8775C15.674 11.1629 15.674 12.03 18.0884 12.03H21.5909C23.9517 12.03 23.9517 11.1629 23.9517 10.8775V0.266907H27.4649L27.4628 11.0191Z" fill="black"/>
<path d="M56.5264 0.410706H52.8457V15.8029H56.5264V0.410706Z" fill="black"/>
<path d="M93.7704 3.8941C93.6395 3.67949 93.4957 3.47775 93.339 3.2846C93.1287 2.98414 92.8883 2.70728 92.62 2.46047L92.3668 2.20723L91.7938 1.7222L91.2164 1.32301L90.8967 1.14488C89.7871 0.528936 88.5402 0.209159 87.2697 0.213451C86.0013 0.198428 84.7501 0.522497 83.6427 1.14488L83.3229 1.32301L82.7134 1.7222L82.1361 2.20723L81.8828 2.46047C81.6146 2.71157 81.3742 2.98628 81.1639 3.2846C80.4921 4.1731 80.0371 5.20755 79.8268 6.30209C79.7109 6.81073 79.653 7.32366 79.6487 7.84303C79.6594 8.61135 79.7796 9.37323 80.0071 10.1051C80.1165 10.4613 80.2496 10.8047 80.4063 11.1417L80.7647 11.7898L80.9793 12.0752C81.1016 12.292 81.2476 12.5002 81.4107 12.6847C81.7219 13.0646 82.0717 13.4101 82.4473 13.7213L83.0246 14.1527C83.2134 14.2944 83.4195 14.4145 83.6341 14.5111C84.7394 15.1314 85.9884 15.4533 87.2568 15.4468C88.523 15.4511 89.7656 15.1421 90.8838 14.5519L91.21 14.3351C91.5212 14.1549 91.8238 13.9467 92.105 13.7256C92.2831 13.5475 92.4956 13.4059 92.6415 13.2406L93.1265 12.7041L93.5579 12.1267L93.7747 11.807C94.4807 10.6073 94.8563 9.23588 94.8563 7.84088C94.8735 6.45232 94.5001 5.08093 93.779 3.89625H93.7639V3.8941H93.7704ZM92.8883 5.97158L90.0854 8.70149L90.7336 12.5817L87.2482 10.7532L83.8079 12.5817L84.4539 8.70149L81.6575 5.97158L85.5377 5.39856L87.2954 1.87672L89.0188 5.39856L92.8883 5.97158Z" fill="#F8991D"/>
</svg>
