<svg width="19" height="18" viewBox="0 0 19 18" fill="none" xmlns="http://www.w3.org/2000/svg">
<path fill-rule="evenodd" clip-rule="evenodd" d="M15.5 0C16.2956 0 17.0587 0.316071 17.6213 0.87868C18.1839 1.44129 18.5 2.20435 18.5 3V15C18.5 15.7956 18.1839 16.5587 17.6213 17.1213C17.0587 17.6839 16.2956 18 15.5 18H3.5C2.70435 18 1.94129 17.6839 1.37868 17.1213C0.816071 16.5587 0.5 15.7956 0.5 15V3C0.5 2.20435 0.816071 1.44129 1.37868 0.87868C1.94129 0.316071 2.70435 0 3.5 0H15.5ZM5.5 7C5.23478 7 4.98043 7.10536 4.79289 7.29289C4.60536 7.48043 4.5 7.73478 4.5 8V13C4.5 13.2652 4.60536 13.5196 4.79289 13.7071C4.98043 13.8946 5.23478 14 5.5 14C5.76522 14 6.01957 13.8946 6.20711 13.7071C6.39464 13.5196 6.5 13.2652 6.5 13V8C6.5 7.73478 6.39464 7.48043 6.20711 7.29289C6.01957 7.10536 5.76522 7 5.5 7ZM8.5 6C8.23478 6 7.98043 6.10536 7.79289 6.29289C7.60536 6.48043 7.5 6.73478 7.5 7V13C7.5 13.2652 7.60536 13.5196 7.79289 13.7071C7.98043 13.8946 8.23478 14 8.5 14C8.76522 14 9.01957 13.8946 9.20711 13.7071C9.39464 13.5196 9.5 13.2652 9.5 13V9.34C9.805 8.996 10.32 8.592 10.893 8.347C11.226 8.205 11.727 8.147 12.075 8.257C12.1904 8.28629 12.2933 8.35226 12.368 8.445C12.42 8.515 12.5 8.671 12.5 9V13C12.5 13.2652 12.6054 13.5196 12.7929 13.7071C12.9804 13.8946 13.2348 14 13.5 14C13.7652 14 14.0196 13.8946 14.2071 13.7071C14.3946 13.5196 14.5 13.2652 14.5 13V9C14.5 8.33 14.33 7.734 13.976 7.256C13.6503 6.82256 13.1944 6.50472 12.675 6.349C11.773 6.066 10.774 6.223 10.107 6.509C9.89347 6.60084 9.68545 6.70502 9.484 6.821C9.44208 6.59059 9.32062 6.3822 9.1408 6.23216C8.96097 6.08213 8.73419 5.99996 8.5 6ZM5.5 4C5.23478 4 4.98043 4.10536 4.79289 4.29289C4.60536 4.48043 4.5 4.73478 4.5 5C4.5 5.26522 4.60536 5.51957 4.79289 5.70711C4.98043 5.89464 5.23478 6 5.5 6C5.76522 6 6.01957 5.89464 6.20711 5.70711C6.39464 5.51957 6.5 5.26522 6.5 5C6.5 4.73478 6.39464 4.48043 6.20711 4.29289C6.01957 4.10536 5.76522 4 5.5 4Z" fill="white"/>
</svg>
