<svg width="85" height="85" viewBox="0 0 85 85" fill="none" xmlns="http://www.w3.org/2000/svg">
<g clip-path="url(#clip0_178_1729)">
<path fill-rule="evenodd" clip-rule="evenodd" d="M66.8938 32.7118C66.8938 32.0561 66.3111 31.4734 65.5824 31.4734H63.7588C63.03 31.4734 62.4465 32.0561 62.4465 32.7118L62.5204 52.2531C62.519 52.4161 62.55 52.5778 62.6117 52.7287C62.6734 52.8796 62.7646 53.0167 62.8799 53.132C62.9952 53.2473 63.1323 53.3385 63.2832 53.4002C63.4341 53.4619 63.5958 53.493 63.7588 53.4915H65.5824C66.3111 53.4915 66.8938 52.9088 66.8938 52.2531V32.7118Z" fill="black"/>
<path fill-rule="evenodd" clip-rule="evenodd" d="M69.2258 33.2958V34.1681C69.2258 34.6047 69.518 34.8969 69.9546 34.8969H82.7868C83.0739 34.8894 83.3473 34.772 83.5504 34.5689C83.7535 34.3658 83.8708 34.0925 83.8783 33.8054V32.2748C83.8783 31.6913 83.3678 31.1087 82.7868 31.1834C82.7868 31.1834 70.392 32.4218 69.9546 32.4948C69.5172 32.4948 69.2258 32.8592 69.2258 33.2966V33.2958Z" fill="black"/>
<path fill-rule="evenodd" clip-rule="evenodd" d="M58.7993 53.4924C55.5912 53.4924 53.6224 51.087 53.6224 48.3894V40.5871H52.6745C52.2371 40.5871 51.7988 40.1497 51.7988 39.7123V38.3992C51.8027 38.1685 51.8964 37.9483 52.0598 37.7855C52.2233 37.6226 52.4438 37.5299 52.6745 37.5268H53.6224V32.7127C53.621 32.5495 53.652 32.3877 53.7138 32.2367C53.7755 32.0857 53.8668 31.9485 53.9821 31.8332C54.0975 31.7178 54.2347 31.6266 54.3857 31.5648C54.5367 31.503 54.6985 31.472 54.8616 31.4734H56.6844C57.3401 31.4734 57.8506 32.0561 57.8506 32.7127V37.5268H60.6942C60.8099 37.5224 60.9254 37.5418 61.0332 37.5841C61.141 37.6264 61.2389 37.6905 61.3208 37.7724C61.4026 37.8543 61.4666 37.9523 61.5088 38.0602C61.5509 38.168 61.5703 38.2835 61.5657 38.3992V39.7098C61.5627 39.9408 61.4695 40.1616 61.3061 40.325C61.1427 40.4884 60.9219 40.5816 60.6909 40.5846H57.8506V47.805C57.8506 49.1895 58.7262 50.2113 60.2568 50.2113H60.549C60.6746 50.2072 60.7996 50.2289 60.9165 50.2751C61.0334 50.3213 61.1395 50.391 61.2283 50.4798C61.3172 50.5687 61.3869 50.6748 61.433 50.7917C61.4792 50.9085 61.501 51.0336 61.4969 51.1592V52.5445C61.4926 52.7945 61.3913 53.0331 61.2145 53.21C61.0376 53.3868 60.799 53.4881 60.549 53.4924H58.7993Z" fill="black"/>
<path fill-rule="evenodd" clip-rule="evenodd" d="M36.9265 45.2505C36.9265 41.0954 34.4481 36.9387 28.8338 36.9387C23.6569 36.9387 20.8132 41.0207 20.8132 45.2505C20.8132 49.7709 23.8752 53.7816 28.906 53.7816C32.3332 53.7816 35.6873 52.0319 36.343 49.043C36.4161 48.6786 36.1247 48.0951 35.6134 48.0951H33.135C32.9284 48.0929 32.725 48.1457 32.5456 48.2481C32.3662 48.3505 32.2172 48.4988 32.114 48.6777C31.3844 49.7003 30.3643 50.2117 28.9068 50.2117C26.7197 50.2117 25.2614 48.5325 25.1153 46.6392H35.5395C36.4883 46.6392 36.9257 46.1288 36.9257 45.2531L36.9265 45.2505ZM25.1875 43.5042C25.3336 41.6815 26.9372 40.2962 28.8338 40.2962C30.8026 40.2962 32.4062 41.6815 32.6253 43.5042H25.1875Z" fill="black"/>
<path fill-rule="evenodd" clip-rule="evenodd" d="M84.3196 45.2505C84.3196 41.0954 81.8412 36.9387 76.226 36.9387C71.0491 36.9387 68.2063 41.0207 68.2063 45.2505C68.2063 49.7709 71.2691 53.7816 76.2999 53.7816C79.7262 53.7816 83.0795 52.0319 83.7361 49.043C83.81 48.6786 83.517 48.0951 83.0073 48.0951H80.5289C80.3222 48.0928 80.1186 48.1456 79.9391 48.248C79.7595 48.3504 79.6104 48.4987 79.5071 48.6777C78.7783 49.7003 77.7574 50.2117 76.226 50.2117C74.1119 50.2117 72.6536 48.5325 72.5075 46.6392H82.9343C83.8822 46.6392 84.3196 46.1288 84.3196 45.2531V45.2505ZM72.5814 43.5042C72.7266 41.6815 74.3285 40.297 76.226 40.297C78.1948 40.297 79.7993 41.6823 79.9454 43.5051L72.5814 43.5042Z" fill="black"/>
<path fill-rule="evenodd" clip-rule="evenodd" d="M50.1217 31.6918H16.4359C16.254 31.6918 16.0739 31.7276 15.9059 31.7973C15.7378 31.8669 15.5852 31.9689 15.4566 32.0976C15.328 32.2262 15.2261 32.379 15.1565 32.547C15.087 32.7151 15.0513 32.8952 15.0514 33.0771L15.1236 46.3476C15.1236 46.3476 7.90317 33.2232 7.54047 32.5666C7.3175 32.1866 6.99835 31.8719 6.61514 31.6544C6.23193 31.4368 5.79818 31.3241 5.35755 31.3274H2.58692C2.40461 31.3269 2.22399 31.3623 2.05542 31.4317C1.88686 31.5012 1.73366 31.6032 1.60463 31.732C1.47561 31.8608 1.37329 32.0138 1.30355 32.1823C1.23381 32.3507 1.19802 32.5313 1.19824 32.7136V52.108C1.19824 52.9098 1.78595 53.4933 2.58356 53.4933H4.33325C5.13506 53.4933 5.71857 52.9098 5.71857 52.108L5.64804 38.547C5.64804 38.547 12.939 51.7436 13.3042 52.2541C13.6686 52.9828 14.3957 53.4933 15.4183 53.4933H17.9698C18.7716 53.4933 19.3551 52.9098 19.3551 52.108V34.9746H50.1217C50.3717 34.97 50.6101 34.8687 50.7869 34.6919C50.9637 34.5151 51.065 34.2767 51.0696 34.0267V32.6405C51.0655 32.3905 50.9644 32.1518 50.7878 31.9748C50.6111 31.7978 50.3726 31.6963 50.1225 31.6918H50.1217Z" fill="black"/>
<path fill-rule="evenodd" clip-rule="evenodd" d="M44.6544 40.1507C46.1127 40.1507 47.2067 40.6612 47.6441 41.6082C47.7902 42.0465 48.1546 42.1195 48.6651 42.1195H50.7069C50.9991 42.1195 51.4357 41.8274 51.4357 41.3908C51.4357 39.0576 48.592 36.941 44.6552 36.941C40.5765 36.9401 37.8747 38.9106 37.8747 41.9776C37.8747 44.3839 39.7705 45.7701 42.0307 46.4274C43.1221 46.6466 44.9465 47.0832 45.8214 47.3753C46.6962 47.5945 47.5711 47.8858 47.5711 48.6876C47.5711 49.9999 46.2588 50.3668 44.7274 50.3668C43.3421 50.3668 41.9568 49.7791 41.5924 48.7632C41.3741 48.1755 40.9358 48.1075 40.3532 48.1075H38.3096C37.9452 48.1075 37.5078 48.471 37.5078 48.9084V49.2006C37.5078 51.4608 40.5706 53.794 44.7988 53.794C47.7155 53.794 51.8714 52.5547 51.8714 48.6162C51.8714 46.283 50.34 44.6803 47.7885 44.0246C46.8398 43.8054 44.5074 43.1489 43.997 43.075C43.0482 42.7836 42.1742 42.4923 42.1742 41.7636C42.1742 40.5243 43.2657 40.1591 44.6527 40.1591L44.6544 40.1507Z" fill="black"/>
</g>
<defs>
<clipPath id="clip0_178_1729">
<rect width="83.9585" height="83.9585" fill="white" transform="translate(0.780518 0.50116)"/>
</clipPath>
</defs>
</svg>
