<svg width="241" height="72" viewBox="0 0 241 72" fill="none" xmlns="http://www.w3.org/2000/svg">
<rect x="1.17297" y="0.802856" width="238.283" height="69.4656" rx="7.26965" fill="black"/>
<rect x="1.17297" y="0.802856" width="238.283" height="69.4656" rx="7.26965" stroke="#A6A6A6" stroke-width="1.61548"/>
<path d="M121.445 38.648C117.265 38.648 113.858 41.8271 113.858 46.2056C113.858 50.5576 117.265 53.7633 121.445 53.7633C125.626 53.7633 129.033 50.5576 129.033 46.2056C129.031 41.8271 125.624 38.648 121.445 38.648ZM121.445 50.7886C119.154 50.7886 117.18 48.8996 117.18 46.2074C117.18 43.4868 119.156 41.6262 121.445 41.6262C123.735 41.6262 125.709 43.4868 125.709 46.2074C125.709 48.8978 123.735 50.7886 121.445 50.7886ZM104.893 38.648C100.714 38.648 97.3073 41.8271 97.3073 46.2056C97.3073 50.5576 100.714 53.7633 104.893 53.7633C109.075 53.7633 112.481 50.5576 112.481 46.2056C112.481 41.8271 109.075 38.648 104.893 38.648ZM104.893 50.7886C102.603 50.7886 100.629 48.8996 100.629 46.2074C100.629 43.4868 102.605 41.6262 104.893 41.6262C107.184 41.6262 109.158 43.4868 109.158 46.2074C109.16 48.8978 107.184 50.7886 104.893 50.7886ZM85.2075 40.9687V44.1745H92.8807C92.6514 45.9782 92.0508 47.295 91.1339 48.2101C90.0179 49.3261 88.2711 50.5576 85.2075 50.5576C80.4841 50.5576 76.7915 46.7494 76.7915 42.0261C76.7915 37.3027 80.4841 33.4946 85.2075 33.4946C87.7557 33.4946 89.6163 34.4968 90.9899 35.7852L93.2521 33.523C91.3329 31.6909 88.7864 30.2888 85.2075 30.2888C78.7373 30.2888 73.2979 35.5559 73.2979 42.0261C73.2979 48.4962 78.7373 53.7633 85.2075 53.7633C88.6993 53.7633 91.3347 52.6172 93.3942 50.4705C95.5125 48.3523 96.1717 45.374 96.1717 42.9697C96.1717 42.2269 96.1149 41.5392 95.9994 40.967H85.2075V40.9687ZM165.721 43.4584C165.092 41.7702 163.173 38.648 159.251 38.648C155.357 38.648 152.121 41.7115 152.121 46.2056C152.121 50.4421 155.329 53.7633 159.622 53.7633C163.086 53.7633 165.09 51.6451 165.922 50.4136L163.345 48.6953C162.487 49.9552 161.312 50.785 159.622 50.785C157.934 50.785 156.731 50.012 155.958 48.4945L166.064 44.3149L165.721 43.4584ZM155.414 45.9782C155.329 43.0568 157.676 41.5694 159.366 41.5694C160.683 41.5694 161.799 42.2287 162.172 43.1723L155.414 45.9782ZM147.199 53.3066H150.519V31.092H147.199V53.3066ZM141.758 40.3379H141.644C140.899 39.4494 139.467 38.648 137.665 38.648C133.886 38.648 130.422 41.9692 130.422 46.2359C130.422 50.4723 133.886 53.7651 137.665 53.7651C139.469 53.7651 140.899 52.9637 141.644 52.0485H141.758V53.136C141.758 56.0273 140.212 57.5733 137.722 57.5733C135.689 57.5733 134.429 56.1143 133.914 54.8829L131.023 56.0859C131.853 58.0886 134.056 60.5516 137.722 60.5516C141.616 60.5516 144.908 58.261 144.908 52.6776V39.1082H141.76V40.3379H141.758ZM137.951 50.7886C135.661 50.7886 133.743 48.8694 133.743 46.2359C133.743 43.5721 135.661 41.6262 137.951 41.6262C140.212 41.6262 141.987 43.5721 141.987 46.2359C141.987 48.8694 140.212 50.7886 137.951 50.7886ZM181.277 31.092H173.332V53.3066H176.646V44.8906H181.275C184.95 44.8906 188.565 42.2304 188.565 37.9922C188.565 33.754 184.952 31.092 181.277 31.092ZM181.362 41.7986H176.646V34.1841H181.362C183.841 34.1841 185.249 36.2365 185.249 37.9922C185.249 39.7124 183.841 41.7986 181.362 41.7986ZM201.855 38.6089C199.454 38.6089 196.968 39.6662 195.939 42.0101L198.882 43.238C199.511 42.0101 200.684 41.6085 201.912 41.6085C203.627 41.6085 205.37 42.6374 205.398 44.4659V44.6952C204.798 44.3522 203.511 43.8386 201.94 43.8386C198.768 43.8386 195.538 45.5819 195.538 48.8392C195.538 51.8122 198.139 53.726 201.054 53.726C203.282 53.726 204.512 52.7256 205.283 51.5527H205.397V53.2675H208.599V44.7503C208.601 40.8088 205.654 38.6089 201.855 38.6089ZM201.453 50.7833C200.369 50.7833 198.854 50.2395 198.854 48.8961C198.854 47.1812 200.741 46.5237 202.37 46.5237C203.826 46.5237 204.513 46.8383 205.398 47.2665C205.141 49.3261 203.369 50.7833 201.453 50.7833ZM220.26 39.094L216.459 48.7255H216.345L212.4 39.094H208.828L214.744 52.555L211.371 60.0433H214.829L223.947 39.094H220.26ZM190.395 53.3066H193.709V31.092H190.395V53.3066Z" fill="white"/>
<g filter="url(#filter0_ii_362_1574)">
<path d="M18.9104 13.3907C18.3933 13.938 18.0876 14.7875 18.0876 15.8874V55.1881C18.0876 56.2899 18.3933 57.1376 18.9104 57.6849L19.0419 57.8128L41.0575 35.7972V35.5378V35.2783L19.0419 13.261L18.9104 13.3907Z" fill="url(#paint0_linear_362_1574)"/>
<path d="M48.3947 43.1371L41.0574 35.7962V35.5368V35.2774L48.3965 27.9382L48.5618 28.0324L57.2567 32.9725C59.7392 34.3835 59.7392 36.6919 57.2567 38.1046L48.5618 43.0447L48.3947 43.1371Z" fill="url(#paint1_linear_362_1574)"/>
<g filter="url(#filter1_i_362_1574)">
<path d="M48.5619 43.044L41.0557 35.5378L18.9104 57.6849C19.7278 58.5521 21.0801 58.6587 22.6031 57.7951L48.5619 43.044Z" fill="url(#paint2_linear_362_1574)"/>
</g>
<path d="M48.5619 28.0316L22.6031 13.2823C21.0801 12.4169 19.7278 12.5253 18.9104 13.3924L41.0575 35.5395L48.5619 28.0316Z" fill="url(#paint3_linear_362_1574)"/>
</g>
<path d="M81.9097 14.9522C81.6403 14.4335 81.2662 14.0444 80.7874 13.785C80.3085 13.5156 79.7548 13.381 79.1263 13.381C78.4379 13.381 77.8244 13.5356 77.2857 13.8449C76.747 14.1541 76.323 14.5931 76.0137 15.1617C75.7144 15.7304 75.5648 16.3888 75.5648 17.137C75.5648 17.8853 75.7144 18.5487 76.0137 19.1273C76.323 19.6959 76.747 20.1349 77.2857 20.4442C77.8244 20.7534 78.4379 20.9081 79.1263 20.9081C80.0541 20.9081 80.8073 20.6487 81.3859 20.1299C81.9646 19.6112 82.3187 18.9078 82.4484 18.0199H78.5427V16.6582H84.2741V17.99C84.1643 18.7981 83.875 19.5413 83.4061 20.2197C82.9472 20.8981 82.3437 21.4418 81.5954 21.8508C80.8572 22.2499 80.0342 22.4494 79.1263 22.4494C78.1486 22.4494 77.2558 22.2249 76.4477 21.776C75.6396 21.3171 74.9961 20.6836 74.5173 19.8755C74.0484 19.0674 73.8139 18.1546 73.8139 17.137C73.8139 16.1195 74.0484 15.2066 74.5173 14.3985C74.9961 13.5905 75.6396 12.962 76.4477 12.513C77.2657 12.0541 78.1586 11.8247 79.1263 11.8247C80.2337 11.8247 81.2163 12.099 82.0743 12.6477C82.9422 13.1864 83.5707 13.9546 83.9598 14.9522H81.9097ZM88.4108 13.3361V16.3888H92.0023V17.7805H88.4108V20.9679H92.4512V22.3596H86.7049V11.9444H92.4512V13.3361H88.4108ZM102.02 11.9593V13.351H99.2513V22.3596H97.5453V13.351H94.7619V11.9593H102.02ZM110.837 11.9593V22.3596H109.131V11.9593H110.837ZM120.544 11.9593V13.351H117.776V22.3596H116.07V13.351H113.286V11.9593H120.544ZM132.399 22.4644C131.431 22.4644 130.539 22.2399 129.72 21.791C128.912 21.3321 128.269 20.6986 127.79 19.8905C127.321 19.0724 127.087 18.1546 127.087 17.137C127.087 16.1195 127.321 15.2066 127.79 14.3985C128.269 13.5905 128.912 12.962 129.72 12.513C130.539 12.0541 131.431 11.8247 132.399 11.8247C133.377 11.8247 134.27 12.0541 135.078 12.513C135.896 12.962 136.539 13.5905 137.008 14.3985C137.477 15.2066 137.711 16.1195 137.711 17.137C137.711 18.1546 137.477 19.0724 137.008 19.8905C136.539 20.6986 135.896 21.3321 135.078 21.791C134.27 22.2399 133.377 22.4644 132.399 22.4644ZM132.399 20.9829C133.087 20.9829 133.701 20.8283 134.24 20.519C134.778 20.1998 135.197 19.7508 135.497 19.1722C135.806 18.5836 135.961 17.9052 135.961 17.137C135.961 16.3689 135.806 15.6955 135.497 15.1168C135.197 14.5382 134.778 14.0943 134.24 13.785C133.701 13.4757 133.087 13.3211 132.399 13.3211C131.711 13.3211 131.097 13.4757 130.558 13.785C130.02 14.0943 129.596 14.5382 129.287 15.1168C128.987 15.6955 128.838 16.3689 128.838 17.137C128.838 17.9052 128.987 18.5836 129.287 19.1722C129.596 19.7508 130.02 20.1998 130.558 20.519C131.097 20.8283 131.711 20.9829 132.399 20.9829ZM148.683 22.3596H146.977L141.844 14.5931V22.3596H140.138V11.9444H141.844L146.977 19.696V11.9444H148.683V22.3596Z" fill="white"/>
<defs>
<filter id="filter0_ii_362_1574" x="18.0876" y="12.6851" width="41.031" height="45.7065" filterUnits="userSpaceOnUse" color-interpolation-filters="sRGB">
<feFlood flood-opacity="0" result="BackgroundImageFix"/>
<feBlend mode="normal" in="SourceGraphic" in2="BackgroundImageFix" result="shape"/>
<feColorMatrix in="SourceAlpha" type="matrix" values="0 0 0 0 0 0 0 0 0 0 0 0 0 0 0 0 0 0 127 0" result="hardAlpha"/>
<feOffset dy="-0.242322"/>
<feComposite in2="hardAlpha" operator="arithmetic" k2="-1" k3="1"/>
<feColorMatrix type="matrix" values="0 0 0 0 0 0 0 0 0 0 0 0 0 0 0 0 0 0 0.12 0"/>
<feBlend mode="normal" in2="shape" result="effect1_innerShadow_362_1574"/>
<feColorMatrix in="SourceAlpha" type="matrix" values="0 0 0 0 0 0 0 0 0 0 0 0 0 0 0 0 0 0 127 0" result="hardAlpha"/>
<feOffset dy="0.242322"/>
<feComposite in2="hardAlpha" operator="arithmetic" k2="-1" k3="1"/>
<feColorMatrix type="matrix" values="0 0 0 0 1 0 0 0 0 1 0 0 0 0 1 0 0 0 0.25 0"/>
<feBlend mode="normal" in2="effect1_innerShadow_362_1574" result="effect2_innerShadow_362_1574"/>
</filter>
<filter id="filter1_i_362_1574" x="18.9104" y="35.5378" width="29.6514" height="22.8538" filterUnits="userSpaceOnUse" color-interpolation-filters="sRGB">
<feFlood flood-opacity="0" result="BackgroundImageFix"/>
<feBlend mode="normal" in="SourceGraphic" in2="BackgroundImageFix" result="shape"/>
<feColorMatrix in="SourceAlpha" type="matrix" values="0 0 0 0 0 0 0 0 0 0 0 0 0 0 0 0 0 0 127 0" result="hardAlpha"/>
<feOffset dy="-0.242322"/>
<feComposite in2="hardAlpha" operator="arithmetic" k2="-1" k3="1"/>
<feColorMatrix type="matrix" values="0 0 0 0 0 0 0 0 0 0 0 0 0 0 0 0 0 0 0.08 0"/>
<feBlend mode="normal" in2="shape" result="effect1_innerShadow_362_1574"/>
</filter>
<linearGradient id="paint0_linear_362_1574" x1="39.106" y1="15.4716" x2="9.28391" y2="45.2937" gradientUnits="userSpaceOnUse">
<stop stop-color="#00A0FF"/>
<stop offset="0.0066" stop-color="#00A1FF"/>
<stop offset="0.2601" stop-color="#00BEFF"/>
<stop offset="0.5122" stop-color="#00D2FF"/>
<stop offset="0.7604" stop-color="#00DFFF"/>
<stop offset="1" stop-color="#00E3FF"/>
</linearGradient>
<linearGradient id="paint1_linear_362_1574" x1="60.4883" y1="35.5368" x2="17.4915" y2="35.5368" gradientUnits="userSpaceOnUse">
<stop stop-color="#FFE000"/>
<stop offset="0.4087" stop-color="#FFBD00"/>
<stop offset="0.7754" stop-color="#FFA500"/>
<stop offset="1" stop-color="#FF9C00"/>
</linearGradient>
<linearGradient id="paint2_linear_362_1574" x1="44.4855" y1="39.6142" x2="4.0431" y2="80.0566" gradientUnits="userSpaceOnUse">
<stop stop-color="#FF3A44"/>
<stop offset="1" stop-color="#C31162"/>
</linearGradient>
<linearGradient id="paint3_linear_362_1574" x1="13.333" y1="0.309627" x2="31.3917" y2="18.3683" gradientUnits="userSpaceOnUse">
<stop stop-color="#32A071"/>
<stop offset="0.0685" stop-color="#2DA771"/>
<stop offset="0.4762" stop-color="#15CF74"/>
<stop offset="0.8009" stop-color="#06E775"/>
<stop offset="1" stop-color="#00F076"/>
</linearGradient>
</defs>
</svg>
