<svg width="394" height="430" viewBox="0 0 394 430" fill="none" xmlns="http://www.w3.org/2000/svg">
<g clip-path="url(#clip0_368_2345)">
<path d="M0.5 24C0.5 10.7452 11.2452 0 24.5 0H369.5C382.755 0 393.5 10.7452 393.5 24V430H0.5V24Z" fill="white"/>
<path fill-rule="evenodd" clip-rule="evenodd" d="M348.5 28C348.5 25.7909 350.291 24 352.5 24H366.5C368.709 24 370.5 25.7909 370.5 28V33C370.5 35.2091 368.709 37 366.5 37H352.5C350.291 37 348.5 35.2091 348.5 33V28Z" fill="#D2D2D2"/>
<path d="M348.5 28C348.5 25.7909 350.291 24 352.5 24H364.5V37H352.5C350.291 37 348.5 35.2091 348.5 33V28Z" fill="#1A1A1A"/>
<path d="M371.5 28.8077V32.8658C372.316 32.5221 372.847 31.7225 372.847 30.8368C372.847 29.951 372.316 29.1514 371.5 28.8077Z" fill="#D2D2D2"/>
<path d="M353.618 34L356.621 28.209V28.126H353.067V26.9492H358.106V28.1406L355.161 34H353.618ZM362.092 34.1807C360.456 34.1807 359.181 33.0234 359.181 30.543V30.5332C359.181 28.1748 360.295 26.7734 362.096 26.7734C363.459 26.7734 364.474 27.5791 364.689 28.6826L364.699 28.7314H363.259L363.239 28.6875C363.073 28.248 362.673 27.9502 362.101 27.9502C361.081 27.9502 360.636 28.9512 360.583 30.2305C360.578 30.2842 360.578 30.3379 360.578 30.3916H360.676C360.929 29.8447 361.52 29.3613 362.492 29.3613C363.864 29.3613 364.792 30.3379 364.792 31.6709V31.6807C364.792 33.1211 363.678 34.1807 362.092 34.1807ZM360.798 31.7002C360.798 32.4424 361.364 33.0137 362.082 33.0137C362.795 33.0137 363.366 32.4521 363.366 31.7295V31.7197C363.366 30.9824 362.829 30.4453 362.092 30.4453C361.364 30.4453 360.798 30.9678 360.798 31.6953V31.7002Z" fill="white"/>
<path d="M332.381 32.5762C333.746 31.3979 335.745 31.3978 337.11 32.5762C337.179 32.6396 337.219 32.7297 337.221 32.8243C337.222 32.9186 337.186 33.0091 337.12 33.0752L334.982 35.2774C334.92 35.3421 334.834 35.3789 334.745 35.3789C334.656 35.3789 334.57 35.342 334.508 35.2774L332.37 33.0752C332.304 33.0091 332.268 32.9185 332.27 32.8243C332.271 32.7297 332.312 32.6396 332.381 32.5762ZM329.49 29.9405C332.432 27.1477 336.986 27.1477 339.928 29.9405C339.994 30.006 340.032 30.0962 340.033 30.1905C340.034 30.2846 339.998 30.3747 339.933 30.4414L338.697 31.7168C338.57 31.8468 338.364 31.8493 338.233 31.7227C337.268 30.8299 336.011 30.336 334.708 30.336C333.406 30.3365 332.15 30.8305 331.185 31.7227C331.054 31.8493 330.848 31.8469 330.721 31.7168L329.485 30.4414C329.42 30.3748 329.384 30.2845 329.385 30.1905C329.386 30.0962 329.424 30.006 329.49 29.9405ZM326.604 27.3096C331.115 22.8969 338.232 22.8967 342.743 27.3096C342.808 27.3752 342.845 27.4651 342.846 27.5586C342.846 27.6521 342.811 27.7423 342.746 27.8086L341.509 29.083C341.381 29.2137 341.174 29.2147 341.045 29.086C339.326 27.4182 337.045 26.4885 334.674 26.4883C332.302 26.4883 330.02 27.4178 328.301 29.086C328.172 29.2148 327.965 29.2137 327.838 29.083L326.6 27.8086C326.535 27.7423 326.499 27.652 326.5 27.5586C326.501 27.4651 326.538 27.3751 326.604 27.3096Z" fill="#1A1A1A"/>
<path d="M313.115 26.8846C313.115 26.3536 313.546 25.9231 314.077 25.9231H315.038C315.57 25.9231 316 26.3536 316 26.8846V34.5769C316 35.108 315.57 35.5385 315.038 35.5385H314.077C313.546 35.5385 313.115 35.108 313.115 34.5769V26.8846Z" fill="#1A1A1A"/>
<path d="M317.923 24.9615C317.923 24.4305 318.354 24 318.885 24H319.846C320.377 24 320.808 24.4305 320.808 24.9615V34.5769C320.808 35.108 320.377 35.5385 319.846 35.5385H318.885C318.354 35.5385 317.923 35.108 317.923 34.5769V24.9615Z" fill="#1A1A1A"/>
<path d="M308.308 30.25C308.308 29.719 308.738 29.2885 309.269 29.2885H310.231C310.762 29.2885 311.192 29.719 311.192 30.25V34.5769C311.192 35.108 310.762 35.5385 310.231 35.5385H309.269C308.738 35.5385 308.308 35.108 308.308 34.5769V30.25Z" fill="#1A1A1A"/>
<path d="M303.5 32.6538C303.5 32.1228 303.93 31.6923 304.462 31.6923H305.423C305.954 31.6923 306.385 32.1228 306.385 32.6538V34.5769C306.385 35.108 305.954 35.5385 305.423 35.5385H304.462C303.93 35.5385 303.5 35.108 303.5 34.5769V32.6538Z" fill="#1A1A1A"/>
<path d="M28.9219 36.2637C26.7612 36.2637 25.3037 34.9453 25.1646 33.2095L25.1572 33.1143H26.9004L26.9077 33.1655C27.0469 34.0298 27.8452 34.7183 28.9292 34.7183C30.167 34.7183 31.0166 33.8467 31.0166 32.6016V32.5869C31.0166 31.3564 30.1523 30.4922 28.9438 30.4922C28.3506 30.4922 27.8379 30.668 27.4497 31.0195C27.2593 31.1807 27.0835 31.3857 26.959 31.6201H25.3403L25.853 25.4312H32.1958V26.9839H27.3252L27.0322 30.1992H27.1567C27.5962 29.4888 28.4165 29.064 29.4126 29.064C31.3828 29.064 32.811 30.5288 32.811 32.5503V32.5649C32.811 34.7622 31.207 36.2637 28.9219 36.2637ZM36.0152 29.1519C35.3487 29.1519 34.8506 28.6392 34.8506 27.9946C34.8506 27.3428 35.3487 26.8374 36.0152 26.8374C36.689 26.8374 37.1797 27.3428 37.1797 27.9946C37.1797 28.6392 36.689 29.1519 36.0152 29.1519ZM36.0152 34.5864C35.3487 34.5864 34.8506 34.0811 34.8506 33.4292C34.8506 32.7773 35.3487 32.272 36.0152 32.272C36.689 32.272 37.1797 32.7773 37.1797 33.4292C37.1797 34.0811 36.689 34.5864 36.0152 34.5864ZM42.0098 36V27.2915H41.8853L39.2559 29.1519V27.3721L42.0172 25.4312H43.8995V36H42.0098ZM50.4947 36.2124C48.1803 36.2124 46.6642 34.9526 46.525 33.1436L46.5177 33.0557H48.3195L48.3268 33.1362C48.4293 34.0298 49.257 34.667 50.4947 34.667C51.7179 34.667 52.5309 33.9858 52.5309 33.0044V32.9897C52.5309 31.8765 51.7106 31.2612 50.3556 31.2612H49.1105V29.855H50.319C51.4835 29.855 52.2599 29.1958 52.2599 28.2729V28.2583C52.2599 27.2915 51.608 26.7202 50.4801 26.7202C49.3668 26.7202 48.5978 27.3135 48.5026 28.2583L48.4952 28.3315H46.7374L46.7447 28.251C46.9059 26.4199 48.3487 25.2188 50.4801 25.2188C52.6554 25.2188 54.069 26.354 54.069 28.0093V28.0239C54.069 29.335 53.1241 30.2065 51.857 30.4702V30.5068C53.4098 30.6533 54.4425 31.5762 54.4425 33.041V33.0557C54.4425 34.916 52.8385 36.2124 50.4947 36.2124Z" fill="#1A1A1A"/>
<path d="M122.296 105.336C120.632 105.336 119.232 104.968 118.096 104.232C116.96 103.48 116.16 102.464 115.696 101.184L118.528 99.528C119.184 101.24 120.472 102.096 122.392 102.096C123.32 102.096 124 101.928 124.432 101.592C124.864 101.256 125.08 100.832 125.08 100.32C125.08 99.728 124.816 99.272 124.288 98.952C123.76 98.616 122.816 98.256 121.456 97.872C120.704 97.648 120.064 97.424 119.536 97.2C119.024 96.976 118.504 96.68 117.976 96.312C117.464 95.928 117.072 95.448 116.8 94.872C116.528 94.296 116.392 93.624 116.392 92.856C116.392 91.336 116.928 90.128 118 89.232C119.088 88.32 120.392 87.864 121.912 87.864C123.272 87.864 124.464 88.2 125.488 88.872C126.528 89.528 127.336 90.448 127.912 91.632L125.128 93.24C124.456 91.8 123.384 91.08 121.912 91.08C121.224 91.08 120.68 91.24 120.28 91.56C119.896 91.864 119.704 92.264 119.704 92.76C119.704 93.288 119.92 93.72 120.352 94.056C120.8 94.376 121.648 94.728 122.896 95.112C123.408 95.272 123.792 95.4 124.048 95.496C124.32 95.576 124.68 95.712 125.128 95.904C125.592 96.08 125.944 96.248 126.184 96.408C126.44 96.568 126.728 96.784 127.048 97.056C127.368 97.328 127.608 97.608 127.768 97.896C127.944 98.184 128.088 98.536 128.2 98.952C128.328 99.352 128.392 99.792 128.392 100.272C128.392 101.824 127.824 103.056 126.688 103.968C125.568 104.88 124.104 105.336 122.296 105.336ZM137.08 92.664C138.392 92.664 139.472 93.104 140.32 93.984C141.184 94.864 141.616 96.08 141.616 97.632V105H138.52V98.016C138.52 97.216 138.304 96.608 137.872 96.192C137.44 95.76 136.864 95.544 136.144 95.544C135.344 95.544 134.704 95.792 134.224 96.288C133.744 96.784 133.504 97.528 133.504 98.52V105H130.408V88.2H133.504V94.344C134.256 93.224 135.448 92.664 137.08 92.664ZM154.484 103.512C153.252 104.728 151.748 105.336 149.972 105.336C148.196 105.336 146.692 104.728 145.46 103.512C144.244 102.28 143.636 100.776 143.636 99C143.636 97.224 144.244 95.728 145.46 94.512C146.692 93.28 148.196 92.664 149.972 92.664C151.748 92.664 153.252 93.28 154.484 94.512C155.716 95.728 156.332 97.224 156.332 99C156.332 100.776 155.716 102.28 154.484 103.512ZM147.644 101.376C148.268 102 149.044 102.312 149.972 102.312C150.9 102.312 151.676 102 152.3 101.376C152.924 100.752 153.236 99.96 153.236 99C153.236 98.04 152.924 97.248 152.3 96.624C151.676 96 150.9 95.688 149.972 95.688C149.044 95.688 148.268 96 147.644 96.624C147.036 97.248 146.732 98.04 146.732 99C146.732 99.96 147.036 100.752 147.644 101.376ZM165.494 92.664C167.11 92.664 168.486 93.28 169.622 94.512C170.774 95.728 171.35 97.224 171.35 99C171.35 100.776 170.774 102.28 169.622 103.512C168.486 104.728 167.11 105.336 165.494 105.336C163.814 105.336 162.518 104.752 161.606 103.584V109.8H158.51V93H161.606V94.416C162.518 93.248 163.814 92.664 165.494 92.664ZM162.542 101.448C163.166 102.072 163.958 102.384 164.918 102.384C165.878 102.384 166.67 102.072 167.294 101.448C167.934 100.808 168.254 99.992 168.254 99C168.254 98.008 167.934 97.2 167.294 96.576C166.67 95.936 165.878 95.616 164.918 95.616C163.958 95.616 163.166 95.936 162.542 96.576C161.918 97.2 161.606 98.008 161.606 99C161.606 99.992 161.918 100.808 162.542 101.448ZM190.477 105L189.469 101.976H182.773L181.765 105H178.189L184.069 88.2H188.173L194.077 105H190.477ZM183.829 98.88H188.437L186.133 92.016L183.829 98.88ZM202.236 92.664C203.548 92.664 204.628 93.104 205.476 93.984C206.34 94.864 206.772 96.08 206.772 97.632V105H203.676V98.016C203.676 97.216 203.46 96.608 203.028 96.192C202.596 95.76 202.02 95.544 201.3 95.544C200.5 95.544 199.86 95.792 199.38 96.288C198.9 96.784 198.66 97.528 198.66 98.52V105H195.564V93H198.66V94.344C199.412 93.224 200.604 92.664 202.236 92.664ZM216.982 93H220.294L215.926 105C215.302 106.728 214.47 107.976 213.43 108.744C212.406 109.528 211.126 109.88 209.59 109.8V106.92C210.422 106.936 211.078 106.76 211.558 106.392C212.054 106.024 212.446 105.432 212.734 104.616L207.814 93H211.198L214.318 101.064L216.982 93ZM228.632 95.976H225.92V100.968C225.92 101.384 226.024 101.688 226.232 101.88C226.44 102.072 226.744 102.184 227.144 102.216C227.544 102.232 228.04 102.224 228.632 102.192V105C226.504 105.24 225 105.04 224.12 104.4C223.256 103.76 222.824 102.616 222.824 100.968V95.976H220.736V93H222.824V90.576L225.92 89.64V93H228.632V95.976ZM237.486 92.664C238.798 92.664 239.878 93.104 240.726 93.984C241.59 94.864 242.022 96.08 242.022 97.632V105H238.926V98.016C238.926 97.216 238.71 96.608 238.278 96.192C237.846 95.76 237.27 95.544 236.55 95.544C235.75 95.544 235.11 95.792 234.63 96.288C234.15 96.784 233.91 97.528 233.91 98.52V105H230.814V88.2H233.91V94.344C234.662 93.224 235.854 92.664 237.486 92.664ZM246.202 91.56C245.69 91.56 245.242 91.376 244.858 91.008C244.49 90.624 244.306 90.176 244.306 89.664C244.306 89.152 244.49 88.704 244.858 88.32C245.242 87.936 245.69 87.744 246.202 87.744C246.73 87.744 247.178 87.936 247.546 88.32C247.93 88.704 248.122 89.152 248.122 89.664C248.122 90.176 247.93 90.624 247.546 91.008C247.178 91.376 246.73 91.56 246.202 91.56ZM244.666 105V93H247.762V105H244.666ZM257.268 92.664C258.58 92.664 259.66 93.104 260.508 93.984C261.372 94.864 261.804 96.08 261.804 97.632V105H258.708V98.016C258.708 97.216 258.492 96.608 258.06 96.192C257.628 95.76 257.052 95.544 256.332 95.544C255.532 95.544 254.892 95.792 254.412 96.288C253.932 96.784 253.692 97.528 253.692 98.52V105H250.596V93H253.692V94.344C254.444 93.224 255.636 92.664 257.268 92.664ZM273.639 93H276.663V104.424C276.663 106.28 276.047 107.696 274.815 108.672C273.599 109.648 272.127 110.136 270.399 110.136C269.103 110.136 267.959 109.888 266.967 109.392C265.991 108.896 265.239 108.168 264.711 107.208L267.351 105.696C267.959 106.816 269.007 107.376 270.495 107.376C271.471 107.376 272.239 107.12 272.799 106.608C273.359 106.096 273.639 105.368 273.639 104.424V103.128C272.727 104.344 271.447 104.952 269.799 104.952C268.103 104.952 266.679 104.36 265.527 103.176C264.391 101.976 263.823 100.52 263.823 98.808C263.823 97.112 264.399 95.664 265.551 94.464C266.703 93.264 268.119 92.664 269.799 92.664C271.447 92.664 272.727 93.272 273.639 94.488V93ZM267.855 101.184C268.495 101.792 269.303 102.096 270.279 102.096C271.255 102.096 272.055 101.792 272.679 101.184C273.319 100.56 273.639 99.768 273.639 98.808C273.639 97.864 273.319 97.088 272.679 96.48C272.055 95.856 271.255 95.544 270.279 95.544C269.303 95.544 268.495 95.856 267.855 96.48C267.231 97.088 266.919 97.864 266.919 98.808C266.919 99.768 267.231 100.56 267.855 101.184Z" fill="#262626"/>
<path d="M44.5 156.5H349.5C364.688 156.5 377 168.812 377 184C377 199.188 364.688 211.5 349.5 211.5H44.5C29.3122 211.5 17 199.188 17 184C17 168.812 29.3122 156.5 44.5 156.5Z" fill="white" stroke="#C4C4C4"/>
<path d="M26.5 184C26.5 172.954 35.4543 164 46.5 164H175.5C186.546 164 195.5 172.954 195.5 184C195.5 195.046 186.546 204 175.5 204H46.5C35.4543 204 26.5 195.046 26.5 184Z" fill="black"/>
<path d="M70.863 187.449C69.883 188.439 68.6837 188.933 67.265 188.933C65.8464 188.933 64.647 188.439 63.667 187.449C62.687 186.46 62.197 185.261 62.197 183.851C62.197 182.433 62.687 181.233 63.667 180.253C64.647 179.264 65.8464 178.769 67.265 178.769C68.6837 178.769 69.883 179.264 70.863 180.253C71.8524 181.233 72.347 182.433 72.347 183.851C72.347 185.261 71.8524 186.46 70.863 187.449ZM64.563 186.567C65.291 187.295 66.1917 187.659 67.265 187.659C68.3384 187.659 69.2344 187.295 69.953 186.567C70.681 185.83 71.045 184.925 71.045 183.851C71.045 182.769 70.681 181.863 69.953 181.135C69.2344 180.398 68.3384 180.029 67.265 180.029C66.1917 180.029 65.291 180.398 64.563 181.135C63.8444 181.863 63.485 182.769 63.485 183.851C63.485 184.925 63.8444 185.83 64.563 186.567ZM75.0043 182.927C75.4056 182.059 76.1336 181.625 77.1883 181.625V182.899C76.591 182.871 76.0776 183.03 75.6483 183.375C75.219 183.721 75.0043 184.276 75.0043 185.041V188.751H73.7863V181.751H75.0043V182.927ZM83.7932 178.951H85.0112V188.751H83.7932V187.547C83.1866 188.471 82.3046 188.933 81.1472 188.933C80.1672 188.933 79.3319 188.579 78.6412 187.869C77.9506 187.151 77.6052 186.278 77.6052 185.251C77.6052 184.225 77.9506 183.357 78.6412 182.647C79.3319 181.929 80.1672 181.569 81.1472 181.569C82.3046 181.569 83.1866 182.031 83.7932 182.955V178.951ZM81.3012 187.757C82.0106 187.757 82.6032 187.519 83.0792 187.043C83.5552 186.558 83.7932 185.961 83.7932 185.251C83.7932 184.542 83.5552 183.949 83.0792 183.473C82.6032 182.988 82.0106 182.745 81.3012 182.745C80.6012 182.745 80.0132 182.988 79.5372 183.473C79.0612 183.949 78.8232 184.542 78.8232 185.251C78.8232 185.961 79.0612 186.558 79.5372 187.043C80.0132 187.519 80.6012 187.757 81.3012 187.757ZM87.7106 185.811C87.832 186.437 88.1166 186.922 88.5646 187.267C89.022 187.613 89.582 187.785 90.2446 187.785C91.1686 187.785 91.8406 187.445 92.2606 186.763L93.2966 187.351C92.6153 188.406 91.5886 188.933 90.2166 188.933C89.106 188.933 88.2006 188.588 87.5006 187.897C86.81 187.197 86.4646 186.315 86.4646 185.251C86.4646 184.197 86.8053 183.319 87.4866 182.619C88.168 181.919 89.05 181.569 90.1326 181.569C91.1593 181.569 91.9946 181.933 92.6386 182.661C93.292 183.38 93.6186 184.248 93.6186 185.265C93.6186 185.443 93.6046 185.625 93.5766 185.811H87.7106ZM90.1326 182.717C89.4793 182.717 88.938 182.904 88.5086 183.277C88.0793 183.641 87.8133 184.131 87.7106 184.747H92.3866C92.284 184.085 92.0226 183.581 91.6026 183.235C91.1826 182.89 90.6926 182.717 90.1326 182.717ZM96.2367 182.927C96.6381 182.059 97.3661 181.625 98.4207 181.625V182.899C97.8234 182.871 97.3101 183.03 96.8807 183.375C96.4514 183.721 96.2367 184.276 96.2367 185.041V188.751H95.0187V181.751H96.2367V182.927ZM112.408 178.951V188.751H111.12V181.093L107.914 186.427H107.746L104.54 181.107V188.751H103.238V178.951H104.708L107.83 184.131L110.938 178.951H112.408ZM120.174 181.751H121.392V188.751H120.174V187.547C119.567 188.471 118.685 188.933 117.528 188.933C116.548 188.933 115.713 188.579 115.022 187.869C114.331 187.151 113.986 186.278 113.986 185.251C113.986 184.225 114.331 183.357 115.022 182.647C115.713 181.929 116.548 181.569 117.528 181.569C118.685 181.569 119.567 182.031 120.174 182.955V181.751ZM117.682 187.757C118.391 187.757 118.984 187.519 119.46 187.043C119.936 186.558 120.174 185.961 120.174 185.251C120.174 184.542 119.936 183.949 119.46 183.473C118.984 182.988 118.391 182.745 117.682 182.745C116.982 182.745 116.394 182.988 115.918 183.473C115.442 183.949 115.204 184.542 115.204 185.251C115.204 185.961 115.442 186.558 115.918 187.043C116.394 187.519 116.982 187.757 117.682 187.757ZM126.723 181.569C127.545 181.569 128.203 181.831 128.697 182.353C129.192 182.867 129.439 183.567 129.439 184.453V188.751H128.221V184.523C128.221 183.954 128.067 183.515 127.759 183.207C127.451 182.89 127.027 182.731 126.485 182.731C125.879 182.731 125.389 182.923 125.015 183.305C124.642 183.679 124.455 184.257 124.455 185.041V188.751H123.237V181.751H124.455V182.759C124.95 181.966 125.706 181.569 126.723 181.569ZM135.97 181.751H137.188V188.751H135.97V187.743C135.475 188.537 134.719 188.933 133.702 188.933C132.88 188.933 132.222 188.677 131.728 188.163C131.233 187.641 130.986 186.936 130.986 186.049V181.751H132.204V185.979C132.204 186.549 132.358 186.992 132.666 187.309C132.974 187.617 133.398 187.771 133.94 187.771C134.546 187.771 135.036 187.585 135.41 187.211C135.783 186.829 135.97 186.245 135.97 185.461V181.751ZM144.838 181.751H146.056V188.751H144.838V187.547C144.231 188.471 143.349 188.933 142.192 188.933C141.212 188.933 140.377 188.579 139.686 187.869C138.995 187.151 138.65 186.278 138.65 185.251C138.65 184.225 138.995 183.357 139.686 182.647C140.377 181.929 141.212 181.569 142.192 181.569C143.349 181.569 144.231 182.031 144.838 182.955V181.751ZM142.346 187.757C143.055 187.757 143.648 187.519 144.124 187.043C144.6 186.558 144.838 185.961 144.838 185.251C144.838 184.542 144.6 183.949 144.124 183.473C143.648 182.988 143.055 182.745 142.346 182.745C141.646 182.745 141.058 182.988 140.582 183.473C140.106 183.949 139.868 184.542 139.868 185.251C139.868 185.961 140.106 186.558 140.582 187.043C141.058 187.519 141.646 187.757 142.346 187.757ZM147.902 188.751V178.531H149.12V188.751H147.902ZM150.978 188.751V178.531H152.196V188.751H150.978ZM158.94 181.751H160.242L157.386 189.185C157.087 189.979 156.667 190.581 156.126 190.991C155.594 191.411 154.978 191.598 154.278 191.551V190.417C155.137 190.483 155.767 190.007 156.168 188.989L156.294 188.723L153.242 181.751H154.544L156.924 187.239L158.94 181.751Z" fill="white"/>
<path d="M203.5 184C203.5 172.954 212.454 164 223.5 164H352.5C363.546 164 372.5 172.954 372.5 184C372.5 195.046 363.546 204 352.5 204H223.5C212.454 204 203.5 195.046 203.5 184Z" fill="white"/>
<path d="M241.296 187.995C240.615 188.621 239.733 188.933 238.65 188.933C237.567 188.933 236.681 188.621 235.99 187.995C235.309 187.361 234.968 186.516 234.968 185.461V178.951H236.27V185.405C236.27 186.096 236.475 186.647 236.886 187.057C237.297 187.459 237.885 187.659 238.65 187.659C239.415 187.659 240.003 187.459 240.414 187.057C240.825 186.647 241.03 186.096 241.03 185.405V178.951H242.318V185.461C242.318 186.516 241.977 187.361 241.296 187.995ZM245.164 183.641C245.164 183.912 245.3 184.131 245.57 184.299C245.841 184.458 246.168 184.589 246.55 184.691C246.933 184.785 247.316 184.897 247.698 185.027C248.081 185.149 248.408 185.363 248.678 185.671C248.949 185.97 249.084 186.357 249.084 186.833C249.084 187.468 248.837 187.977 248.342 188.359C247.857 188.742 247.232 188.933 246.466 188.933C245.785 188.933 245.202 188.784 244.716 188.485C244.231 188.187 243.886 187.79 243.68 187.295L244.73 186.693C244.842 187.029 245.052 187.295 245.36 187.491C245.668 187.687 246.037 187.785 246.466 187.785C246.868 187.785 247.199 187.711 247.46 187.561C247.722 187.403 247.852 187.16 247.852 186.833C247.852 186.563 247.717 186.348 247.446 186.189C247.176 186.021 246.849 185.891 246.466 185.797C246.084 185.695 245.701 185.578 245.318 185.447C244.936 185.317 244.609 185.102 244.338 184.803C244.068 184.505 243.932 184.122 243.932 183.655C243.932 183.049 244.166 182.549 244.632 182.157C245.108 181.765 245.701 181.569 246.41 181.569C246.98 181.569 247.484 181.7 247.922 181.961C248.37 182.213 248.706 182.568 248.93 183.025L247.908 183.599C247.656 183.002 247.157 182.703 246.41 182.703C246.065 182.703 245.771 182.787 245.528 182.955C245.286 183.114 245.164 183.343 245.164 183.641ZM251.189 185.811C251.31 186.437 251.595 186.922 252.043 187.267C252.5 187.613 253.06 187.785 253.723 187.785C254.647 187.785 255.319 187.445 255.739 186.763L256.775 187.351C256.094 188.406 255.067 188.933 253.695 188.933C252.584 188.933 251.679 188.588 250.979 187.897C250.288 187.197 249.943 186.315 249.943 185.251C249.943 184.197 250.284 183.319 250.965 182.619C251.646 181.919 252.528 181.569 253.611 181.569C254.638 181.569 255.473 181.933 256.117 182.661C256.77 183.38 257.097 184.248 257.097 185.265C257.097 185.443 257.083 185.625 257.055 185.811H251.189ZM253.611 182.717C252.958 182.717 252.416 182.904 251.987 183.277C251.558 183.641 251.292 184.131 251.189 184.747H255.865C255.762 184.085 255.501 183.581 255.081 183.235C254.661 182.89 254.171 182.717 253.611 182.717ZM271.293 178.951V188.751H270.005V181.093L266.799 186.427H266.631L263.425 181.107V188.751H262.123V178.951H263.593L266.715 184.131L269.823 178.951H271.293ZM279.059 181.751H280.277V188.751H279.059V187.547C278.452 188.471 277.57 188.933 276.413 188.933C275.433 188.933 274.598 188.579 273.907 187.869C273.216 187.151 272.871 186.278 272.871 185.251C272.871 184.225 273.216 183.357 273.907 182.647C274.598 181.929 275.433 181.569 276.413 181.569C277.57 181.569 278.452 182.031 279.059 182.955V181.751ZM276.567 187.757C277.276 187.757 277.869 187.519 278.345 187.043C278.821 186.558 279.059 185.961 279.059 185.251C279.059 184.542 278.821 183.949 278.345 183.473C277.869 182.988 277.276 182.745 276.567 182.745C275.867 182.745 275.279 182.988 274.803 183.473C274.327 183.949 274.089 184.542 274.089 185.251C274.089 185.961 274.327 186.558 274.803 187.043C275.279 187.519 275.867 187.757 276.567 187.757ZM283.34 182.927C283.742 182.059 284.47 181.625 285.524 181.625V182.899C284.927 182.871 284.414 183.03 283.984 183.375C283.555 183.721 283.34 184.276 283.34 185.041V188.751H282.122V181.751H283.34V182.927ZM292.638 188.751H291.126L287.934 185.433V188.751H286.716V178.951H287.934V184.845L290.958 181.751H292.526L289.18 185.139L292.638 188.751ZM293.982 185.811C294.103 186.437 294.388 186.922 294.836 187.267C295.293 187.613 295.853 187.785 296.516 187.785C297.44 187.785 298.112 187.445 298.532 186.763L299.568 187.351C298.887 188.406 297.86 188.933 296.488 188.933C295.377 188.933 294.472 188.588 293.772 187.897C293.081 187.197 292.736 186.315 292.736 185.251C292.736 184.197 293.077 183.319 293.758 182.619C294.439 181.919 295.321 181.569 296.404 181.569C297.431 181.569 298.266 181.933 298.91 182.661C299.563 183.38 299.89 184.248 299.89 185.265C299.89 185.443 299.876 185.625 299.848 185.811H293.982ZM296.404 182.717C295.751 182.717 295.209 182.904 294.78 183.277C294.351 183.641 294.085 184.131 293.982 184.747H298.658C298.555 184.085 298.294 183.581 297.874 183.235C297.454 182.89 296.964 182.717 296.404 182.717ZM304.893 182.927H303.031V186.721C303.031 187.067 303.096 187.314 303.227 187.463C303.367 187.603 303.577 187.678 303.857 187.687C304.137 187.687 304.482 187.678 304.893 187.659V188.751C303.829 188.891 303.05 188.807 302.555 188.499C302.06 188.182 301.813 187.589 301.813 186.721V182.927H300.427V181.751H301.813V180.155L303.031 179.791V181.751H304.893V182.927ZM310.24 181.569C311.22 181.569 312.055 181.929 312.746 182.647C313.437 183.357 313.782 184.225 313.782 185.251C313.782 186.278 313.437 187.151 312.746 187.869C312.055 188.579 311.22 188.933 310.24 188.933C309.083 188.933 308.201 188.471 307.594 187.547V191.551H306.376V181.751H307.594V182.955C308.201 182.031 309.083 181.569 310.24 181.569ZM310.086 187.757C310.786 187.757 311.374 187.519 311.85 187.043C312.326 186.558 312.564 185.961 312.564 185.251C312.564 184.542 312.326 183.949 311.85 183.473C311.374 182.988 310.786 182.745 310.086 182.745C309.377 182.745 308.784 182.988 308.308 183.473C307.832 183.949 307.594 184.542 307.594 185.251C307.594 185.961 307.832 186.558 308.308 187.043C308.784 187.519 309.377 187.757 310.086 187.757ZM315.236 188.751V178.531H316.454V188.751H315.236ZM324.108 181.751H325.326V188.751H324.108V187.547C323.501 188.471 322.619 188.933 321.462 188.933C320.482 188.933 319.646 188.579 318.956 187.869C318.265 187.151 317.92 186.278 317.92 185.251C317.92 184.225 318.265 183.357 318.956 182.647C319.646 181.929 320.482 181.569 321.462 181.569C322.619 181.569 323.501 182.031 324.108 182.955V181.751ZM321.616 187.757C322.325 187.757 322.918 187.519 323.394 187.043C323.87 186.558 324.108 185.961 324.108 185.251C324.108 184.542 323.87 183.949 323.394 183.473C322.918 182.988 322.325 182.745 321.616 182.745C320.916 182.745 320.328 182.988 319.852 183.473C319.376 183.949 319.138 184.542 319.138 185.251C319.138 185.961 319.376 186.558 319.852 187.043C320.328 187.519 320.916 187.757 321.616 187.757ZM330.461 188.933C329.406 188.933 328.529 188.583 327.829 187.883C327.129 187.174 326.779 186.297 326.779 185.251C326.779 184.206 327.129 183.333 327.829 182.633C328.529 181.924 329.406 181.569 330.461 181.569C331.152 181.569 331.772 181.737 332.323 182.073C332.874 182.4 333.284 182.843 333.555 183.403L332.533 183.991C332.356 183.618 332.08 183.319 331.707 183.095C331.343 182.871 330.928 182.759 330.461 182.759C329.761 182.759 329.173 182.997 328.697 183.473C328.23 183.949 327.997 184.542 327.997 185.251C327.997 185.951 328.23 186.539 328.697 187.015C329.173 187.491 329.761 187.729 330.461 187.729C330.928 187.729 331.348 187.622 331.721 187.407C332.094 187.183 332.379 186.885 332.575 186.511L333.611 187.113C333.312 187.664 332.883 188.107 332.323 188.443C331.763 188.77 331.142 188.933 330.461 188.933ZM335.572 185.811C335.693 186.437 335.978 186.922 336.426 187.267C336.883 187.613 337.443 187.785 338.106 187.785C339.03 187.785 339.702 187.445 340.122 186.763L341.158 187.351C340.477 188.406 339.45 188.933 338.078 188.933C336.967 188.933 336.062 188.588 335.362 187.897C334.671 187.197 334.326 186.315 334.326 185.251C334.326 184.197 334.667 183.319 335.348 182.619C336.029 181.919 336.911 181.569 337.994 181.569C339.021 181.569 339.856 181.933 340.5 182.661C341.153 183.38 341.48 184.248 341.48 185.265C341.48 185.443 341.466 185.625 341.438 185.811H335.572ZM337.994 182.717C337.341 182.717 336.799 182.904 336.37 183.277C335.941 183.641 335.675 184.131 335.572 184.747H340.248C340.145 184.085 339.884 183.581 339.464 183.235C339.044 182.89 338.554 182.717 337.994 182.717Z" fill="#9D9D9D"/>
<path d="M20.116 258L16.9 246.8H18.468L21.028 256.016L23.748 246.8H25.252L27.972 256.016L30.532 246.8H32.1L28.884 258H27.156L24.5 249.056L21.844 258H20.116ZM37.2275 249.792C38.1662 249.792 38.9182 250.091 39.4835 250.688C40.0488 251.275 40.3315 252.075 40.3315 253.088V258H38.9395V253.168C38.9395 252.517 38.7635 252.016 38.4115 251.664C38.0595 251.301 37.5742 251.12 36.9555 251.12C36.2622 251.12 35.7022 251.339 35.2755 251.776C34.8488 252.203 34.6355 252.864 34.6355 253.76V258H33.2435V246.8H34.6355V251.152C35.2008 250.245 36.0648 249.792 37.2275 249.792ZM48.8988 250H50.2908V258H48.8988V256.624C48.2054 257.68 47.1974 258.208 45.8748 258.208C44.7548 258.208 43.8001 257.803 43.0108 256.992C42.2214 256.171 41.8268 255.173 41.8268 254C41.8268 252.827 42.2214 251.835 43.0108 251.024C43.8001 250.203 44.7548 249.792 45.8748 249.792C47.1974 249.792 48.2054 250.32 48.8988 251.376V250ZM46.0508 256.864C46.8614 256.864 47.5388 256.592 48.0828 256.048C48.6268 255.493 48.8988 254.811 48.8988 254C48.8988 253.189 48.6268 252.512 48.0828 251.968C47.5388 251.413 46.8614 251.136 46.0508 251.136C45.2508 251.136 44.5788 251.413 44.0348 251.968C43.4908 252.512 43.2188 253.189 43.2188 254C43.2188 254.811 43.4908 255.493 44.0348 256.048C44.5788 256.592 45.2508 256.864 46.0508 256.864ZM56.7518 251.344H54.6238V255.68C54.6238 256.075 54.6984 256.357 54.8478 256.528C55.0078 256.688 55.2478 256.773 55.5677 256.784C55.8877 256.784 56.2824 256.773 56.7518 256.752V258C55.5358 258.16 54.6451 258.064 54.0798 257.712C53.5144 257.349 53.2318 256.672 53.2318 255.68V251.344H51.6478V250H53.2318V248.176L54.6238 247.76V250H56.7518V251.344ZM71.8706 250H73.3266L70.8466 258H69.4226L67.5506 252.08L65.6786 258H64.2546L61.7746 250H63.2306L64.9906 256.08L66.8786 250H68.2226L70.1106 256.096L71.8706 250ZM81.1986 256.992C80.3773 257.803 79.38 258.208 78.2066 258.208C77.0333 258.208 76.036 257.803 75.2146 256.992C74.404 256.181 73.9986 255.184 73.9986 254C73.9986 252.816 74.404 251.819 75.2146 251.008C76.036 250.197 77.0333 249.792 78.2066 249.792C79.38 249.792 80.3773 250.197 81.1986 251.008C82.02 251.819 82.4306 252.816 82.4306 254C82.4306 255.184 82.02 256.181 81.1986 256.992ZM78.2066 256.848C79.0066 256.848 79.6786 256.576 80.2226 256.032C80.7666 255.488 81.0386 254.811 81.0386 254C81.0386 253.189 80.7666 252.512 80.2226 251.968C79.6786 251.424 79.0066 251.152 78.2066 251.152C77.4173 251.152 76.7506 251.424 76.2066 251.968C75.6626 252.512 75.3906 253.189 75.3906 254C75.3906 254.811 75.6626 255.488 76.2066 256.032C76.7506 256.576 77.4173 256.848 78.2066 256.848ZM89.5916 250H90.9836V258H89.5916V256.848C89.0263 257.755 88.1623 258.208 86.9996 258.208C86.061 258.208 85.309 257.915 84.7436 257.328C84.1783 256.731 83.8956 255.925 83.8956 254.912V250H85.2876V254.832C85.2876 255.483 85.4636 255.989 85.8156 256.352C86.1676 256.704 86.653 256.88 87.2716 256.88C87.965 256.88 88.525 256.667 88.9516 256.24C89.3783 255.803 89.5916 255.136 89.5916 254.24V250ZM93.1029 258V246.32H94.4949V258H93.1029ZM103.243 246.8H104.635V258H103.243V256.624C102.549 257.68 101.541 258.208 100.219 258.208C99.0985 258.208 98.1438 257.803 97.3545 256.992C96.5652 256.171 96.1705 255.173 96.1705 254C96.1705 252.827 96.5652 251.835 97.3545 251.024C98.1438 250.203 99.0985 249.792 100.219 249.792C101.541 249.792 102.549 250.32 103.243 251.376V246.8ZM100.395 256.864C101.205 256.864 101.883 256.592 102.427 256.048C102.971 255.493 103.243 254.811 103.243 254C103.243 253.189 102.971 252.512 102.427 251.968C101.883 251.413 101.205 251.136 100.395 251.136C99.5945 251.136 98.9225 251.413 98.3785 251.968C97.8345 252.512 97.5625 253.189 97.5625 254C97.5625 254.811 97.8345 255.493 98.3785 256.048C98.9225 256.592 99.5945 256.864 100.395 256.864ZM116.328 250H117.816L114.552 258.496C114.21 259.403 113.73 260.091 113.112 260.56C112.504 261.04 111.8 261.253 111 261.2V259.904C111.981 259.979 112.701 259.435 113.16 258.272L113.304 257.968L109.816 250H111.304L114.024 256.272L116.328 250ZM125.417 256.992C124.596 257.803 123.599 258.208 122.425 258.208C121.252 258.208 120.255 257.803 119.433 256.992C118.623 256.181 118.217 255.184 118.217 254C118.217 252.816 118.623 251.819 119.433 251.008C120.255 250.197 121.252 249.792 122.425 249.792C123.599 249.792 124.596 250.197 125.417 251.008C126.239 251.819 126.649 252.816 126.649 254C126.649 255.184 126.239 256.181 125.417 256.992ZM122.425 256.848C123.225 256.848 123.897 256.576 124.441 256.032C124.985 255.488 125.257 254.811 125.257 254C125.257 253.189 124.985 252.512 124.441 251.968C123.897 251.424 123.225 251.152 122.425 251.152C121.636 251.152 120.969 251.424 120.425 251.968C119.881 252.512 119.609 253.189 119.609 254C119.609 254.811 119.881 255.488 120.425 256.032C120.969 256.576 121.636 256.848 122.425 256.848ZM133.81 250H135.202V258H133.81V256.848C133.245 257.755 132.381 258.208 131.218 258.208C130.28 258.208 129.528 257.915 128.962 257.328C128.397 256.731 128.114 255.925 128.114 254.912V250H129.506V254.832C129.506 255.483 129.682 255.989 130.034 256.352C130.386 256.704 130.872 256.88 131.49 256.88C132.184 256.88 132.744 256.667 133.17 256.24C133.597 255.803 133.81 255.136 133.81 254.24V250ZM141.322 258V246.32H142.714V258H141.322ZM145.541 248.544C145.275 248.544 145.051 248.453 144.869 248.272C144.688 248.091 144.597 247.872 144.597 247.616C144.597 247.36 144.688 247.141 144.869 246.96C145.051 246.768 145.275 246.672 145.541 246.672C145.797 246.672 146.016 246.768 146.197 246.96C146.379 247.141 146.469 247.36 146.469 247.616C146.469 247.872 146.379 248.091 146.197 248.272C146.016 248.453 145.797 248.544 145.541 248.544ZM144.837 258V250H146.229V258H144.837ZM155.121 258H153.393L149.745 254.208V258H148.353V246.8H149.745V253.536L153.201 250H154.993L151.169 253.872L155.121 258ZM156.657 254.64C156.796 255.355 157.121 255.909 157.633 256.304C158.156 256.699 158.796 256.896 159.553 256.896C160.609 256.896 161.377 256.507 161.857 255.728L163.041 256.4C162.262 257.605 161.089 258.208 159.521 258.208C158.252 258.208 157.217 257.813 156.417 257.024C155.628 256.224 155.233 255.216 155.233 254C155.233 252.795 155.622 251.792 156.401 250.992C157.18 250.192 158.188 249.792 159.425 249.792C160.598 249.792 161.553 250.208 162.289 251.04C163.036 251.861 163.409 252.853 163.409 254.016C163.409 254.219 163.393 254.427 163.361 254.64H156.657ZM159.425 251.104C158.678 251.104 158.06 251.317 157.569 251.744C157.078 252.16 156.774 252.72 156.657 253.424H162.001C161.884 252.667 161.585 252.091 161.105 251.696C160.625 251.301 160.065 251.104 159.425 251.104ZM173.361 251.344H171.233V255.68C171.233 256.075 171.308 256.357 171.457 256.528C171.617 256.688 171.857 256.773 172.177 256.784C172.497 256.784 172.892 256.773 173.361 256.752V258C172.145 258.16 171.254 258.064 170.689 257.712C170.124 257.349 169.841 256.672 169.841 255.68V251.344H168.257V250H169.841V248.176L171.233 247.76V250H173.361V251.344ZM181.355 256.992C180.534 257.803 179.536 258.208 178.363 258.208C177.19 258.208 176.192 257.803 175.371 256.992C174.56 256.181 174.155 255.184 174.155 254C174.155 252.816 174.56 251.819 175.371 251.008C176.192 250.197 177.19 249.792 178.363 249.792C179.536 249.792 180.534 250.197 181.355 251.008C182.176 251.819 182.587 252.816 182.587 254C182.587 255.184 182.176 256.181 181.355 256.992ZM178.363 256.848C179.163 256.848 179.835 256.576 180.379 256.032C180.923 255.488 181.195 254.811 181.195 254C181.195 253.189 180.923 252.512 180.379 251.968C179.835 251.424 179.163 251.152 178.363 251.152C177.574 251.152 176.907 251.424 176.363 251.968C175.819 252.512 175.547 253.189 175.547 254C175.547 254.811 175.819 255.488 176.363 256.032C176.907 256.576 177.574 256.848 178.363 256.848ZM192.644 249.792C193.764 249.792 194.719 250.203 195.508 251.024C196.297 251.835 196.692 252.827 196.692 254C196.692 255.173 196.297 256.171 195.508 256.992C194.719 257.803 193.764 258.208 192.644 258.208C191.321 258.208 190.313 257.68 189.62 256.624V258H188.228V246.8H189.62V251.376C190.313 250.32 191.321 249.792 192.644 249.792ZM192.468 256.864C193.268 256.864 193.94 256.592 194.484 256.048C195.028 255.493 195.3 254.811 195.3 254C195.3 253.189 195.028 252.512 194.484 251.968C193.94 251.413 193.268 251.136 192.468 251.136C191.657 251.136 190.98 251.413 190.436 251.968C189.892 252.512 189.62 253.189 189.62 254C189.62 254.811 189.892 255.493 190.436 256.048C190.98 256.592 191.657 256.864 192.468 256.864ZM203.873 250H205.265V258H203.873V256.848C203.308 257.755 202.444 258.208 201.281 258.208C200.342 258.208 199.59 257.915 199.025 257.328C198.46 256.731 198.177 255.925 198.177 254.912V250H199.569V254.832C199.569 255.483 199.745 255.989 200.097 256.352C200.449 256.704 200.934 256.88 201.553 256.88C202.246 256.88 202.806 256.667 203.233 256.24C203.66 255.803 203.873 255.136 203.873 254.24V250ZM212.968 250H214.456L211.192 258.496C210.851 259.403 210.371 260.091 209.752 260.56C209.144 261.04 208.44 261.253 207.64 261.2V259.904C208.621 259.979 209.341 259.435 209.8 258.272L209.944 257.968L206.456 250H207.944L210.664 256.272L212.968 250ZM217.671 254.72C217.671 254.251 217.772 253.813 217.975 253.408C218.177 253.003 218.423 252.656 218.711 252.368C218.999 252.08 219.287 251.808 219.575 251.552C219.863 251.285 220.108 250.997 220.311 250.688C220.513 250.368 220.615 250.032 220.615 249.68C220.615 249.147 220.428 248.741 220.055 248.464C219.692 248.176 219.217 248.032 218.631 248.032C217.457 248.032 216.705 248.549 216.375 249.584L215.111 248.88C215.377 248.133 215.831 247.568 216.471 247.184C217.111 246.789 217.836 246.592 218.647 246.592C219.596 246.592 220.407 246.859 221.079 247.392C221.761 247.925 222.103 248.667 222.103 249.616C222.103 250.064 222.001 250.485 221.799 250.88C221.596 251.275 221.351 251.616 221.063 251.904C220.775 252.192 220.487 252.475 220.199 252.752C219.911 253.019 219.665 253.323 219.463 253.664C219.26 253.995 219.159 254.347 219.159 254.72H217.671ZM218.407 258.176C218.119 258.176 217.873 258.075 217.671 257.872C217.468 257.669 217.367 257.424 217.367 257.136C217.367 256.848 217.468 256.603 217.671 256.4C217.873 256.197 218.119 256.096 218.407 256.096C218.705 256.096 218.951 256.197 219.143 256.4C219.345 256.603 219.447 256.848 219.447 257.136C219.447 257.424 219.345 257.669 219.143 257.872C218.951 258.075 218.705 258.176 218.407 258.176Z" fill="#262626"/>
<rect x="17" y="287.5" width="360" height="187" rx="7.5" fill="#F5F5F5"/>
<rect x="17" y="287.5" width="360" height="187" rx="7.5" stroke="#D9D9D9"/>
<path d="M44.5 313C43.9696 313 43.4609 313.211 43.0858 313.586C42.7107 313.961 42.5 314.47 42.5 315C42.5 315.53 42.7107 316.039 43.0858 316.414C43.4609 316.789 43.9696 317 44.5 317C45.61 317 46.5 316.11 46.5 315C46.5 314.47 46.2893 313.961 45.9142 313.586C45.5391 313.211 45.0304 313 44.5 313Z" fill="black" fill-opacity="0.5"/>
<path d="M63.64 319L61.344 315.08H58.6V319H57.62V309.2H61.54C62.352 309.2 63.0427 309.489 63.612 310.068C64.1907 310.637 64.48 311.328 64.48 312.14C64.48 312.803 64.2793 313.395 63.878 313.918C63.486 314.431 62.982 314.777 62.366 314.954L64.76 319H63.64ZM58.6 310.124V314.156H61.54C62.0813 314.156 62.5433 313.96 62.926 313.568C63.3087 313.167 63.5 312.691 63.5 312.14C63.5 311.58 63.3087 311.104 62.926 310.712C62.5433 310.32 62.0813 310.124 61.54 310.124H58.6ZM66.9629 310.32C66.8323 310.451 66.6736 310.516 66.4869 310.516C66.3003 310.516 66.1416 310.451 66.0109 310.32C65.8803 310.189 65.8149 310.031 65.8149 309.844C65.8149 309.657 65.8803 309.499 66.0109 309.368C66.1416 309.237 66.3003 309.172 66.4869 309.172C66.6736 309.172 66.8323 309.237 66.9629 309.368C67.0936 309.499 67.1589 309.657 67.1589 309.844C67.1589 310.031 67.0936 310.189 66.9629 310.32ZM66.0249 319V312H66.9489V319H66.0249ZM72.1717 319.168C71.117 319.168 70.2397 318.818 69.5397 318.118C68.8397 317.409 68.4897 316.536 68.4897 315.5C68.4897 314.464 68.8397 313.596 69.5397 312.896C70.2397 312.187 71.117 311.832 72.1717 311.832C72.8624 311.832 73.483 312 74.0337 312.336C74.5844 312.663 74.9857 313.106 75.2377 313.666L74.4817 314.1C74.295 313.68 73.9917 313.349 73.5717 313.106C73.161 312.854 72.6944 312.728 72.1717 312.728C71.397 312.728 70.7437 312.999 70.2117 313.54C69.6797 314.072 69.4137 314.725 69.4137 315.5C69.4137 316.275 69.6797 316.933 70.2117 317.474C70.7437 318.006 71.397 318.272 72.1717 318.272C72.6944 318.272 73.161 318.151 73.5717 317.908C73.9824 317.656 74.3044 317.32 74.5377 316.9L75.3077 317.348C75.0184 317.908 74.5937 318.351 74.0337 318.678C73.4737 319.005 72.853 319.168 72.1717 319.168ZM79.7999 311.832C80.8359 311.832 81.6713 312.201 82.3059 312.938C82.9499 313.666 83.2719 314.529 83.2719 315.528C83.2719 315.631 83.2626 315.775 83.2439 315.962H77.0979C77.1913 316.671 77.4899 317.236 77.9939 317.656C78.5073 318.067 79.1373 318.272 79.8839 318.272C80.4159 318.272 80.8733 318.165 81.2559 317.95C81.6479 317.726 81.9419 317.437 82.1379 317.082L82.9499 317.558C82.6419 318.053 82.2219 318.445 81.6899 318.734C81.1579 319.023 80.5513 319.168 79.8699 319.168C78.7686 319.168 77.8726 318.823 77.1819 318.132C76.4913 317.441 76.1459 316.564 76.1459 315.5C76.1459 314.455 76.4866 313.582 77.1679 312.882C77.8493 312.182 78.7266 311.832 79.7999 311.832ZM79.7999 312.728C79.0719 312.728 78.4606 312.947 77.9659 313.386C77.4806 313.815 77.1913 314.375 77.0979 315.066H82.3199C82.2266 314.329 81.9419 313.755 81.4659 313.344C80.9899 312.933 80.4346 312.728 79.7999 312.728ZM88.3817 315.122V314.226H93.4217V315.122H88.3817ZM98.5952 319V318.118L102.123 314.562C103.131 313.554 103.635 312.691 103.635 311.972C103.635 311.347 103.439 310.861 103.047 310.516C102.664 310.161 102.202 309.984 101.661 309.984C100.653 309.984 99.9205 310.446 99.4632 311.37L98.6372 310.88C98.9452 310.273 99.3652 309.816 99.8972 309.508C100.429 309.191 101.017 309.032 101.661 309.032C102.445 309.032 103.131 309.298 103.719 309.83C104.316 310.353 104.615 311.067 104.615 311.972C104.615 312.541 104.456 313.087 104.139 313.61C103.822 314.133 103.374 314.683 102.795 315.262L99.9952 318.048H104.825V319H98.5952ZM115.891 309.2H116.815V319H115.891V317.628C115.247 318.655 114.304 319.168 113.063 319.168C112.064 319.168 111.21 318.813 110.501 318.104C109.801 317.395 109.451 316.527 109.451 315.5C109.451 314.473 109.801 313.605 110.501 312.896C111.21 312.187 112.064 311.832 113.063 311.832C114.304 311.832 115.247 312.345 115.891 313.372V309.2ZM111.173 317.474C111.705 318.006 112.358 318.272 113.133 318.272C113.907 318.272 114.561 318.006 115.093 317.474C115.625 316.933 115.891 316.275 115.891 315.5C115.891 314.725 115.625 314.072 115.093 313.54C114.561 312.999 113.907 312.728 113.133 312.728C112.358 312.728 111.705 312.999 111.173 313.54C110.641 314.072 110.375 314.725 110.375 315.5C110.375 316.275 110.641 316.933 111.173 317.474ZM122.005 311.832C123.041 311.832 123.876 312.201 124.511 312.938C125.155 313.666 125.477 314.529 125.477 315.528C125.477 315.631 125.468 315.775 125.449 315.962H119.303C119.396 316.671 119.695 317.236 120.199 317.656C120.712 318.067 121.342 318.272 122.089 318.272C122.621 318.272 123.078 318.165 123.461 317.95C123.853 317.726 124.147 317.437 124.343 317.082L125.155 317.558C124.847 318.053 124.427 318.445 123.895 318.734C123.363 319.023 122.756 319.168 122.075 319.168C120.974 319.168 120.078 318.823 119.387 318.132C118.696 317.441 118.351 316.564 118.351 315.5C118.351 314.455 118.692 313.582 119.373 312.882C120.054 312.182 120.932 311.832 122.005 311.832ZM122.005 312.728C121.277 312.728 120.666 312.947 120.171 313.386C119.686 313.815 119.396 314.375 119.303 315.066H124.525C124.432 314.329 124.147 313.755 123.671 313.344C123.195 312.933 122.64 312.728 122.005 312.728ZM127.871 313.162C128.3 312.313 129.037 311.888 130.083 311.888V312.784C129.448 312.784 128.921 312.971 128.501 313.344C128.081 313.717 127.871 314.305 127.871 315.108V319H126.947V312H127.871V313.162ZM132.287 310.32C132.156 310.451 131.998 310.516 131.811 310.516C131.624 310.516 131.466 310.451 131.335 310.32C131.204 310.189 131.139 310.031 131.139 309.844C131.139 309.657 131.204 309.499 131.335 309.368C131.466 309.237 131.624 309.172 131.811 309.172C131.998 309.172 132.156 309.237 132.287 309.368C132.418 309.499 132.483 309.657 132.483 309.844C132.483 310.031 132.418 310.189 132.287 310.32ZM131.349 319V312H132.273V319H131.349ZM137.496 319.168C136.441 319.168 135.564 318.818 134.864 318.118C134.164 317.409 133.814 316.536 133.814 315.5C133.814 314.464 134.164 313.596 134.864 312.896C135.564 312.187 136.441 311.832 137.496 311.832C138.187 311.832 138.807 312 139.358 312.336C139.909 312.663 140.31 313.106 140.562 313.666L139.806 314.1C139.619 313.68 139.316 313.349 138.896 313.106C138.485 312.854 138.019 312.728 137.496 312.728C136.721 312.728 136.068 312.999 135.536 313.54C135.004 314.072 134.738 314.725 134.738 315.5C134.738 316.275 135.004 316.933 135.536 317.474C136.068 318.006 136.721 318.272 137.496 318.272C138.019 318.272 138.485 318.151 138.896 317.908C139.307 317.656 139.629 317.32 139.862 316.9L140.632 317.348C140.343 317.908 139.918 318.351 139.358 318.678C138.798 319.005 138.177 319.168 137.496 319.168ZM147.91 312H148.834V319H147.91V317.628C147.266 318.655 146.323 319.168 145.082 319.168C144.083 319.168 143.229 318.813 142.52 318.104C141.82 317.395 141.47 316.527 141.47 315.5C141.47 314.473 141.82 313.605 142.52 312.896C143.229 312.187 144.083 311.832 145.082 311.832C146.323 311.832 147.266 312.345 147.91 313.372V312ZM143.192 317.474C143.724 318.006 144.377 318.272 145.152 318.272C145.927 318.272 146.58 318.006 147.112 317.474C147.644 316.933 147.91 316.275 147.91 315.5C147.91 314.725 147.644 314.072 147.112 313.54C146.58 312.999 145.927 312.728 145.152 312.728C144.377 312.728 143.724 312.999 143.192 313.54C142.66 314.072 142.394 314.725 142.394 315.5C142.394 316.275 142.66 316.933 143.192 317.474ZM157.931 315.122V314.226H162.971V315.122H157.931ZM171.742 313.274C172.526 313.377 173.17 313.68 173.674 314.184C174.187 314.679 174.444 315.337 174.444 316.158C174.444 317.091 174.122 317.829 173.478 318.37C172.843 318.902 172.069 319.168 171.154 319.168C170.426 319.168 169.777 319 169.208 318.664C168.639 318.328 168.237 317.847 168.004 317.222L168.816 316.746C168.975 317.231 169.259 317.6 169.67 317.852C170.081 318.095 170.575 318.216 171.154 318.216C171.826 318.216 172.377 318.039 172.806 317.684C173.245 317.32 173.464 316.811 173.464 316.158C173.464 315.505 173.245 315.001 172.806 314.646C172.377 314.282 171.826 314.1 171.154 314.1V314.086L171.14 314.1H170.874L170.454 313.456L172.89 310.124H168.284V309.2H174.024V310.124L171.742 313.274ZM177.254 317.81L176.414 320.96H175.574L176.134 317.81H177.254ZM184.814 317.796C184.17 318.711 183.26 319.168 182.084 319.168C180.908 319.168 179.993 318.711 179.34 317.796C178.696 316.872 178.374 315.64 178.374 314.1C178.374 312.56 178.696 311.333 179.34 310.418C179.993 309.494 180.908 309.032 182.084 309.032C183.26 309.032 184.17 309.494 184.814 310.418C185.467 311.333 185.794 312.56 185.794 314.1C185.794 315.64 185.467 316.872 184.814 317.796ZM180.068 317.138C180.553 317.857 181.225 318.216 182.084 318.216C182.942 318.216 183.61 317.857 184.086 317.138C184.571 316.419 184.814 315.407 184.814 314.1C184.814 312.793 184.571 311.781 184.086 311.062C183.61 310.343 182.942 309.984 182.084 309.984C181.225 309.984 180.553 310.343 180.068 311.062C179.592 311.781 179.354 312.793 179.354 314.1C179.354 315.407 179.592 316.419 180.068 317.138ZM193.632 317.796C192.988 318.711 192.078 319.168 190.902 319.168C189.726 319.168 188.812 318.711 188.158 317.796C187.514 316.872 187.192 315.64 187.192 314.1C187.192 312.56 187.514 311.333 188.158 310.418C188.812 309.494 189.726 309.032 190.902 309.032C192.078 309.032 192.988 309.494 193.632 310.418C194.286 311.333 194.612 312.56 194.612 314.1C194.612 315.64 194.286 316.872 193.632 317.796ZM188.886 317.138C189.372 317.857 190.044 318.216 190.902 318.216C191.761 318.216 192.428 317.857 192.904 317.138C193.39 316.419 193.632 315.407 193.632 314.1C193.632 312.793 193.39 311.781 192.904 311.062C192.428 310.343 191.761 309.984 190.902 309.984C190.044 309.984 189.372 310.343 188.886 311.062C188.41 311.781 188.172 312.793 188.172 314.1C188.172 315.407 188.41 316.419 188.886 317.138ZM202.451 317.796C201.807 318.711 200.897 319.168 199.721 319.168C198.545 319.168 197.63 318.711 196.977 317.796C196.333 316.872 196.011 315.64 196.011 314.1C196.011 312.56 196.333 311.333 196.977 310.418C197.63 309.494 198.545 309.032 199.721 309.032C200.897 309.032 201.807 309.494 202.451 310.418C203.104 311.333 203.431 312.56 203.431 314.1C203.431 315.64 203.104 316.872 202.451 317.796ZM197.705 317.138C198.19 317.857 198.862 318.216 199.721 318.216C200.579 318.216 201.247 317.857 201.723 317.138C202.208 316.419 202.451 315.407 202.451 314.1C202.451 312.793 202.208 311.781 201.723 311.062C201.247 310.343 200.579 309.984 199.721 309.984C198.862 309.984 198.19 310.343 197.705 311.062C197.229 311.781 196.991 312.793 196.991 314.1C196.991 315.407 197.229 316.419 197.705 317.138Z" fill="black" fill-opacity="0.2"/>
<line x1="32.5" y1="336.5" x2="361.5" y2="336.5" stroke="black" stroke-opacity="0.1"/>
<path d="M44.5 357C43.9696 357 43.4609 357.211 43.0858 357.586C42.7107 357.961 42.5 358.47 42.5 359C42.5 359.53 42.7107 360.039 43.0858 360.414C43.4609 360.789 43.9696 361 44.5 361C45.61 361 46.5 360.11 46.5 359C46.5 358.47 46.2893 357.961 45.9142 357.586C45.5391 357.211 45.0304 357 44.5 357Z" fill="black" fill-opacity="0.5"/>
<path d="M63.64 363L61.344 359.08H58.6V363H57.62V353.2H61.54C62.352 353.2 63.0427 353.489 63.612 354.068C64.1907 354.637 64.48 355.328 64.48 356.14C64.48 356.803 64.2793 357.395 63.878 357.918C63.486 358.431 62.982 358.777 62.366 358.954L64.76 363H63.64ZM58.6 354.124V358.156H61.54C62.0813 358.156 62.5433 357.96 62.926 357.568C63.3087 357.167 63.5 356.691 63.5 356.14C63.5 355.58 63.3087 355.104 62.926 354.712C62.5433 354.32 62.0813 354.124 61.54 354.124H58.6ZM66.9629 354.32C66.8323 354.451 66.6736 354.516 66.4869 354.516C66.3003 354.516 66.1416 354.451 66.0109 354.32C65.8803 354.189 65.8149 354.031 65.8149 353.844C65.8149 353.657 65.8803 353.499 66.0109 353.368C66.1416 353.237 66.3003 353.172 66.4869 353.172C66.6736 353.172 66.8323 353.237 66.9629 353.368C67.0936 353.499 67.1589 353.657 67.1589 353.844C67.1589 354.031 67.0936 354.189 66.9629 354.32ZM66.0249 363V356H66.9489V363H66.0249ZM72.1717 363.168C71.117 363.168 70.2397 362.818 69.5397 362.118C68.8397 361.409 68.4897 360.536 68.4897 359.5C68.4897 358.464 68.8397 357.596 69.5397 356.896C70.2397 356.187 71.117 355.832 72.1717 355.832C72.8624 355.832 73.483 356 74.0337 356.336C74.5844 356.663 74.9857 357.106 75.2377 357.666L74.4817 358.1C74.295 357.68 73.9917 357.349 73.5717 357.106C73.161 356.854 72.6944 356.728 72.1717 356.728C71.397 356.728 70.7437 356.999 70.2117 357.54C69.6797 358.072 69.4137 358.725 69.4137 359.5C69.4137 360.275 69.6797 360.933 70.2117 361.474C70.7437 362.006 71.397 362.272 72.1717 362.272C72.6944 362.272 73.161 362.151 73.5717 361.908C73.9824 361.656 74.3044 361.32 74.5377 360.9L75.3077 361.348C75.0184 361.908 74.5937 362.351 74.0337 362.678C73.4737 363.005 72.853 363.168 72.1717 363.168ZM79.7999 355.832C80.8359 355.832 81.6713 356.201 82.3059 356.938C82.9499 357.666 83.2719 358.529 83.2719 359.528C83.2719 359.631 83.2626 359.775 83.2439 359.962H77.0979C77.1913 360.671 77.4899 361.236 77.9939 361.656C78.5073 362.067 79.1373 362.272 79.8839 362.272C80.4159 362.272 80.8733 362.165 81.2559 361.95C81.6479 361.726 81.9419 361.437 82.1379 361.082L82.9499 361.558C82.6419 362.053 82.2219 362.445 81.6899 362.734C81.1579 363.023 80.5513 363.168 79.8699 363.168C78.7686 363.168 77.8726 362.823 77.1819 362.132C76.4913 361.441 76.1459 360.564 76.1459 359.5C76.1459 358.455 76.4866 357.582 77.1679 356.882C77.8493 356.182 78.7266 355.832 79.7999 355.832ZM79.7999 356.728C79.0719 356.728 78.4606 356.947 77.9659 357.386C77.4806 357.815 77.1913 358.375 77.0979 359.066H82.3199C82.2266 358.329 81.9419 357.755 81.4659 357.344C80.9899 356.933 80.4346 356.728 79.7999 356.728ZM88.3817 359.122V358.226H93.4217V359.122H88.3817ZM98.5952 363V362.118L102.123 358.562C103.131 357.554 103.635 356.691 103.635 355.972C103.635 355.347 103.439 354.861 103.047 354.516C102.664 354.161 102.202 353.984 101.661 353.984C100.653 353.984 99.9205 354.446 99.4632 355.37L98.6372 354.88C98.9452 354.273 99.3652 353.816 99.8972 353.508C100.429 353.191 101.017 353.032 101.661 353.032C102.445 353.032 103.131 353.298 103.719 353.83C104.316 354.353 104.615 355.067 104.615 355.972C104.615 356.541 104.456 357.087 104.139 357.61C103.822 358.133 103.374 358.683 102.795 359.262L99.9952 362.048H104.825V363H98.5952ZM115.891 353.2H116.815V363H115.891V361.628C115.247 362.655 114.304 363.168 113.063 363.168C112.064 363.168 111.21 362.813 110.501 362.104C109.801 361.395 109.451 360.527 109.451 359.5C109.451 358.473 109.801 357.605 110.501 356.896C111.21 356.187 112.064 355.832 113.063 355.832C114.304 355.832 115.247 356.345 115.891 357.372V353.2ZM111.173 361.474C111.705 362.006 112.358 362.272 113.133 362.272C113.907 362.272 114.561 362.006 115.093 361.474C115.625 360.933 115.891 360.275 115.891 359.5C115.891 358.725 115.625 358.072 115.093 357.54C114.561 356.999 113.907 356.728 113.133 356.728C112.358 356.728 111.705 356.999 111.173 357.54C110.641 358.072 110.375 358.725 110.375 359.5C110.375 360.275 110.641 360.933 111.173 361.474ZM122.005 355.832C123.041 355.832 123.876 356.201 124.511 356.938C125.155 357.666 125.477 358.529 125.477 359.528C125.477 359.631 125.468 359.775 125.449 359.962H119.303C119.396 360.671 119.695 361.236 120.199 361.656C120.712 362.067 121.342 362.272 122.089 362.272C122.621 362.272 123.078 362.165 123.461 361.95C123.853 361.726 124.147 361.437 124.343 361.082L125.155 361.558C124.847 362.053 124.427 362.445 123.895 362.734C123.363 363.023 122.756 363.168 122.075 363.168C120.974 363.168 120.078 362.823 119.387 362.132C118.696 361.441 118.351 360.564 118.351 359.5C118.351 358.455 118.692 357.582 119.373 356.882C120.054 356.182 120.932 355.832 122.005 355.832ZM122.005 356.728C121.277 356.728 120.666 356.947 120.171 357.386C119.686 357.815 119.396 358.375 119.303 359.066H124.525C124.432 358.329 124.147 357.755 123.671 357.344C123.195 356.933 122.64 356.728 122.005 356.728ZM127.871 357.162C128.3 356.313 129.037 355.888 130.083 355.888V356.784C129.448 356.784 128.921 356.971 128.501 357.344C128.081 357.717 127.871 358.305 127.871 359.108V363H126.947V356H127.871V357.162ZM132.287 354.32C132.156 354.451 131.998 354.516 131.811 354.516C131.624 354.516 131.466 354.451 131.335 354.32C131.204 354.189 131.139 354.031 131.139 353.844C131.139 353.657 131.204 353.499 131.335 353.368C131.466 353.237 131.624 353.172 131.811 353.172C131.998 353.172 132.156 353.237 132.287 353.368C132.418 353.499 132.483 353.657 132.483 353.844C132.483 354.031 132.418 354.189 132.287 354.32ZM131.349 363V356H132.273V363H131.349ZM137.496 363.168C136.441 363.168 135.564 362.818 134.864 362.118C134.164 361.409 133.814 360.536 133.814 359.5C133.814 358.464 134.164 357.596 134.864 356.896C135.564 356.187 136.441 355.832 137.496 355.832C138.187 355.832 138.807 356 139.358 356.336C139.909 356.663 140.31 357.106 140.562 357.666L139.806 358.1C139.619 357.68 139.316 357.349 138.896 357.106C138.485 356.854 138.019 356.728 137.496 356.728C136.721 356.728 136.068 356.999 135.536 357.54C135.004 358.072 134.738 358.725 134.738 359.5C134.738 360.275 135.004 360.933 135.536 361.474C136.068 362.006 136.721 362.272 137.496 362.272C138.019 362.272 138.485 362.151 138.896 361.908C139.307 361.656 139.629 361.32 139.862 360.9L140.632 361.348C140.343 361.908 139.918 362.351 139.358 362.678C138.798 363.005 138.177 363.168 137.496 363.168ZM147.91 356H148.834V363H147.91V361.628C147.266 362.655 146.323 363.168 145.082 363.168C144.083 363.168 143.229 362.813 142.52 362.104C141.82 361.395 141.47 360.527 141.47 359.5C141.47 358.473 141.82 357.605 142.52 356.896C143.229 356.187 144.083 355.832 145.082 355.832C146.323 355.832 147.266 356.345 147.91 357.372V356ZM143.192 361.474C143.724 362.006 144.377 362.272 145.152 362.272C145.927 362.272 146.58 362.006 147.112 361.474C147.644 360.933 147.91 360.275 147.91 359.5C147.91 358.725 147.644 358.072 147.112 357.54C146.58 356.999 145.927 356.728 145.152 356.728C144.377 356.728 143.724 356.999 143.192 357.54C142.66 358.072 142.394 358.725 142.394 359.5C142.394 360.275 142.66 360.933 143.192 361.474ZM157.931 359.122V358.226H162.971V359.122H157.931ZM171.742 357.274C172.526 357.377 173.17 357.68 173.674 358.184C174.187 358.679 174.444 359.337 174.444 360.158C174.444 361.091 174.122 361.829 173.478 362.37C172.843 362.902 172.069 363.168 171.154 363.168C170.426 363.168 169.777 363 169.208 362.664C168.639 362.328 168.237 361.847 168.004 361.222L168.816 360.746C168.975 361.231 169.259 361.6 169.67 361.852C170.081 362.095 170.575 362.216 171.154 362.216C171.826 362.216 172.377 362.039 172.806 361.684C173.245 361.32 173.464 360.811 173.464 360.158C173.464 359.505 173.245 359.001 172.806 358.646C172.377 358.282 171.826 358.1 171.154 358.1V358.086L171.14 358.1H170.874L170.454 357.456L172.89 354.124H168.284V353.2H174.024V354.124L171.742 357.274ZM177.254 361.81L176.414 364.96H175.574L176.134 361.81H177.254ZM184.814 361.796C184.17 362.711 183.26 363.168 182.084 363.168C180.908 363.168 179.993 362.711 179.34 361.796C178.696 360.872 178.374 359.64 178.374 358.1C178.374 356.56 178.696 355.333 179.34 354.418C179.993 353.494 180.908 353.032 182.084 353.032C183.26 353.032 184.17 353.494 184.814 354.418C185.467 355.333 185.794 356.56 185.794 358.1C185.794 359.64 185.467 360.872 184.814 361.796ZM180.068 361.138C180.553 361.857 181.225 362.216 182.084 362.216C182.942 362.216 183.61 361.857 184.086 361.138C184.571 360.419 184.814 359.407 184.814 358.1C184.814 356.793 184.571 355.781 184.086 355.062C183.61 354.343 182.942 353.984 182.084 353.984C181.225 353.984 180.553 354.343 180.068 355.062C179.592 355.781 179.354 356.793 179.354 358.1C179.354 359.407 179.592 360.419 180.068 361.138ZM193.632 361.796C192.988 362.711 192.078 363.168 190.902 363.168C189.726 363.168 188.812 362.711 188.158 361.796C187.514 360.872 187.192 359.64 187.192 358.1C187.192 356.56 187.514 355.333 188.158 354.418C188.812 353.494 189.726 353.032 190.902 353.032C192.078 353.032 192.988 353.494 193.632 354.418C194.286 355.333 194.612 356.56 194.612 358.1C194.612 359.64 194.286 360.872 193.632 361.796ZM188.886 361.138C189.372 361.857 190.044 362.216 190.902 362.216C191.761 362.216 192.428 361.857 192.904 361.138C193.39 360.419 193.632 359.407 193.632 358.1C193.632 356.793 193.39 355.781 192.904 355.062C192.428 354.343 191.761 353.984 190.902 353.984C190.044 353.984 189.372 354.343 188.886 355.062C188.41 355.781 188.172 356.793 188.172 358.1C188.172 359.407 188.41 360.419 188.886 361.138ZM202.451 361.796C201.807 362.711 200.897 363.168 199.721 363.168C198.545 363.168 197.63 362.711 196.977 361.796C196.333 360.872 196.011 359.64 196.011 358.1C196.011 356.56 196.333 355.333 196.977 354.418C197.63 353.494 198.545 353.032 199.721 353.032C200.897 353.032 201.807 353.494 202.451 354.418C203.104 355.333 203.431 356.56 203.431 358.1C203.431 359.64 203.104 360.872 202.451 361.796ZM197.705 361.138C198.19 361.857 198.862 362.216 199.721 362.216C200.579 362.216 201.247 361.857 201.723 361.138C202.208 360.419 202.451 359.407 202.451 358.1C202.451 356.793 202.208 355.781 201.723 355.062C201.247 354.343 200.579 353.984 199.721 353.984C198.862 353.984 198.19 354.343 197.705 355.062C197.229 355.781 196.991 356.793 196.991 358.1C196.991 359.407 197.229 360.419 197.705 361.138Z" fill="black" fill-opacity="0.2"/>
<line x1="32.5" y1="380.5" x2="361.5" y2="380.5" stroke="black" stroke-opacity="0.1"/>
<path d="M44.5 401C43.9696 401 43.4609 401.211 43.0858 401.586C42.7107 401.961 42.5 402.47 42.5 403C42.5 403.53 42.7107 404.039 43.0858 404.414C43.4609 404.789 43.9696 405 44.5 405C45.61 405 46.5 404.11 46.5 403C46.5 402.47 46.2893 401.961 45.9142 401.586C45.5391 401.211 45.0304 401 44.5 401Z" fill="black" fill-opacity="0.5"/>
<path d="M63.64 407L61.344 403.08H58.6V407H57.62V397.2H61.54C62.352 397.2 63.0427 397.489 63.612 398.068C64.1907 398.637 64.48 399.328 64.48 400.14C64.48 400.803 64.2793 401.395 63.878 401.918C63.486 402.431 62.982 402.777 62.366 402.954L64.76 407H63.64ZM58.6 398.124V402.156H61.54C62.0813 402.156 62.5433 401.96 62.926 401.568C63.3087 401.167 63.5 400.691 63.5 400.14C63.5 399.58 63.3087 399.104 62.926 398.712C62.5433 398.32 62.0813 398.124 61.54 398.124H58.6ZM66.9629 398.32C66.8323 398.451 66.6736 398.516 66.4869 398.516C66.3003 398.516 66.1416 398.451 66.0109 398.32C65.8803 398.189 65.8149 398.031 65.8149 397.844C65.8149 397.657 65.8803 397.499 66.0109 397.368C66.1416 397.237 66.3003 397.172 66.4869 397.172C66.6736 397.172 66.8323 397.237 66.9629 397.368C67.0936 397.499 67.1589 397.657 67.1589 397.844C67.1589 398.031 67.0936 398.189 66.9629 398.32ZM66.0249 407V400H66.9489V407H66.0249ZM72.1717 407.168C71.117 407.168 70.2397 406.818 69.5397 406.118C68.8397 405.409 68.4897 404.536 68.4897 403.5C68.4897 402.464 68.8397 401.596 69.5397 400.896C70.2397 400.187 71.117 399.832 72.1717 399.832C72.8624 399.832 73.483 400 74.0337 400.336C74.5844 400.663 74.9857 401.106 75.2377 401.666L74.4817 402.1C74.295 401.68 73.9917 401.349 73.5717 401.106C73.161 400.854 72.6944 400.728 72.1717 400.728C71.397 400.728 70.7437 400.999 70.2117 401.54C69.6797 402.072 69.4137 402.725 69.4137 403.5C69.4137 404.275 69.6797 404.933 70.2117 405.474C70.7437 406.006 71.397 406.272 72.1717 406.272C72.6944 406.272 73.161 406.151 73.5717 405.908C73.9824 405.656 74.3044 405.32 74.5377 404.9L75.3077 405.348C75.0184 405.908 74.5937 406.351 74.0337 406.678C73.4737 407.005 72.853 407.168 72.1717 407.168ZM79.7999 399.832C80.8359 399.832 81.6713 400.201 82.3059 400.938C82.9499 401.666 83.2719 402.529 83.2719 403.528C83.2719 403.631 83.2626 403.775 83.2439 403.962H77.0979C77.1913 404.671 77.4899 405.236 77.9939 405.656C78.5073 406.067 79.1373 406.272 79.8839 406.272C80.4159 406.272 80.8733 406.165 81.2559 405.95C81.6479 405.726 81.9419 405.437 82.1379 405.082L82.9499 405.558C82.6419 406.053 82.2219 406.445 81.6899 406.734C81.1579 407.023 80.5513 407.168 79.8699 407.168C78.7686 407.168 77.8726 406.823 77.1819 406.132C76.4913 405.441 76.1459 404.564 76.1459 403.5C76.1459 402.455 76.4866 401.582 77.1679 400.882C77.8493 400.182 78.7266 399.832 79.7999 399.832ZM79.7999 400.728C79.0719 400.728 78.4606 400.947 77.9659 401.386C77.4806 401.815 77.1913 402.375 77.0979 403.066H82.3199C82.2266 402.329 81.9419 401.755 81.4659 401.344C80.9899 400.933 80.4346 400.728 79.7999 400.728ZM88.3817 403.122V402.226H93.4217V403.122H88.3817ZM98.5952 407V406.118L102.123 402.562C103.131 401.554 103.635 400.691 103.635 399.972C103.635 399.347 103.439 398.861 103.047 398.516C102.664 398.161 102.202 397.984 101.661 397.984C100.653 397.984 99.9205 398.446 99.4632 399.37L98.6372 398.88C98.9452 398.273 99.3652 397.816 99.8972 397.508C100.429 397.191 101.017 397.032 101.661 397.032C102.445 397.032 103.131 397.298 103.719 397.83C104.316 398.353 104.615 399.067 104.615 399.972C104.615 400.541 104.456 401.087 104.139 401.61C103.822 402.133 103.374 402.683 102.795 403.262L99.9952 406.048H104.825V407H98.5952ZM115.891 397.2H116.815V407H115.891V405.628C115.247 406.655 114.304 407.168 113.063 407.168C112.064 407.168 111.21 406.813 110.501 406.104C109.801 405.395 109.451 404.527 109.451 403.5C109.451 402.473 109.801 401.605 110.501 400.896C111.21 400.187 112.064 399.832 113.063 399.832C114.304 399.832 115.247 400.345 115.891 401.372V397.2ZM111.173 405.474C111.705 406.006 112.358 406.272 113.133 406.272C113.907 406.272 114.561 406.006 115.093 405.474C115.625 404.933 115.891 404.275 115.891 403.5C115.891 402.725 115.625 402.072 115.093 401.54C114.561 400.999 113.907 400.728 113.133 400.728C112.358 400.728 111.705 400.999 111.173 401.54C110.641 402.072 110.375 402.725 110.375 403.5C110.375 404.275 110.641 404.933 111.173 405.474ZM122.005 399.832C123.041 399.832 123.876 400.201 124.511 400.938C125.155 401.666 125.477 402.529 125.477 403.528C125.477 403.631 125.468 403.775 125.449 403.962H119.303C119.396 404.671 119.695 405.236 120.199 405.656C120.712 406.067 121.342 406.272 122.089 406.272C122.621 406.272 123.078 406.165 123.461 405.95C123.853 405.726 124.147 405.437 124.343 405.082L125.155 405.558C124.847 406.053 124.427 406.445 123.895 406.734C123.363 407.023 122.756 407.168 122.075 407.168C120.974 407.168 120.078 406.823 119.387 406.132C118.696 405.441 118.351 404.564 118.351 403.5C118.351 402.455 118.692 401.582 119.373 400.882C120.054 400.182 120.932 399.832 122.005 399.832ZM122.005 400.728C121.277 400.728 120.666 400.947 120.171 401.386C119.686 401.815 119.396 402.375 119.303 403.066H124.525C124.432 402.329 124.147 401.755 123.671 401.344C123.195 400.933 122.64 400.728 122.005 400.728ZM127.871 401.162C128.3 400.313 129.037 399.888 130.083 399.888V400.784C129.448 400.784 128.921 400.971 128.501 401.344C128.081 401.717 127.871 402.305 127.871 403.108V407H126.947V400H127.871V401.162ZM132.287 398.32C132.156 398.451 131.998 398.516 131.811 398.516C131.624 398.516 131.466 398.451 131.335 398.32C131.204 398.189 131.139 398.031 131.139 397.844C131.139 397.657 131.204 397.499 131.335 397.368C131.466 397.237 131.624 397.172 131.811 397.172C131.998 397.172 132.156 397.237 132.287 397.368C132.418 397.499 132.483 397.657 132.483 397.844C132.483 398.031 132.418 398.189 132.287 398.32ZM131.349 407V400H132.273V407H131.349ZM137.496 407.168C136.441 407.168 135.564 406.818 134.864 406.118C134.164 405.409 133.814 404.536 133.814 403.5C133.814 402.464 134.164 401.596 134.864 400.896C135.564 400.187 136.441 399.832 137.496 399.832C138.187 399.832 138.807 400 139.358 400.336C139.909 400.663 140.31 401.106 140.562 401.666L139.806 402.1C139.619 401.68 139.316 401.349 138.896 401.106C138.485 400.854 138.019 400.728 137.496 400.728C136.721 400.728 136.068 400.999 135.536 401.54C135.004 402.072 134.738 402.725 134.738 403.5C134.738 404.275 135.004 404.933 135.536 405.474C136.068 406.006 136.721 406.272 137.496 406.272C138.019 406.272 138.485 406.151 138.896 405.908C139.307 405.656 139.629 405.32 139.862 404.9L140.632 405.348C140.343 405.908 139.918 406.351 139.358 406.678C138.798 407.005 138.177 407.168 137.496 407.168ZM147.91 400H148.834V407H147.91V405.628C147.266 406.655 146.323 407.168 145.082 407.168C144.083 407.168 143.229 406.813 142.52 406.104C141.82 405.395 141.47 404.527 141.47 403.5C141.47 402.473 141.82 401.605 142.52 400.896C143.229 400.187 144.083 399.832 145.082 399.832C146.323 399.832 147.266 400.345 147.91 401.372V400ZM143.192 405.474C143.724 406.006 144.377 406.272 145.152 406.272C145.927 406.272 146.58 406.006 147.112 405.474C147.644 404.933 147.91 404.275 147.91 403.5C147.91 402.725 147.644 402.072 147.112 401.54C146.58 400.999 145.927 400.728 145.152 400.728C144.377 400.728 143.724 400.999 143.192 401.54C142.66 402.072 142.394 402.725 142.394 403.5C142.394 404.275 142.66 404.933 143.192 405.474ZM157.931 403.122V402.226H162.971V403.122H157.931ZM171.742 401.274C172.526 401.377 173.17 401.68 173.674 402.184C174.187 402.679 174.444 403.337 174.444 404.158C174.444 405.091 174.122 405.829 173.478 406.37C172.843 406.902 172.069 407.168 171.154 407.168C170.426 407.168 169.777 407 169.208 406.664C168.639 406.328 168.237 405.847 168.004 405.222L168.816 404.746C168.975 405.231 169.259 405.6 169.67 405.852C170.081 406.095 170.575 406.216 171.154 406.216C171.826 406.216 172.377 406.039 172.806 405.684C173.245 405.32 173.464 404.811 173.464 404.158C173.464 403.505 173.245 403.001 172.806 402.646C172.377 402.282 171.826 402.1 171.154 402.1V402.086L171.14 402.1H170.874L170.454 401.456L172.89 398.124H168.284V397.2H174.024V398.124L171.742 401.274ZM177.254 405.81L176.414 408.96H175.574L176.134 405.81H177.254ZM184.814 405.796C184.17 406.711 183.26 407.168 182.084 407.168C180.908 407.168 179.993 406.711 179.34 405.796C178.696 404.872 178.374 403.64 178.374 402.1C178.374 400.56 178.696 399.333 179.34 398.418C179.993 397.494 180.908 397.032 182.084 397.032C183.26 397.032 184.17 397.494 184.814 398.418C185.467 399.333 185.794 400.56 185.794 402.1C185.794 403.64 185.467 404.872 184.814 405.796ZM180.068 405.138C180.553 405.857 181.225 406.216 182.084 406.216C182.942 406.216 183.61 405.857 184.086 405.138C184.571 404.419 184.814 403.407 184.814 402.1C184.814 400.793 184.571 399.781 184.086 399.062C183.61 398.343 182.942 397.984 182.084 397.984C181.225 397.984 180.553 398.343 180.068 399.062C179.592 399.781 179.354 400.793 179.354 402.1C179.354 403.407 179.592 404.419 180.068 405.138ZM193.632 405.796C192.988 406.711 192.078 407.168 190.902 407.168C189.726 407.168 188.812 406.711 188.158 405.796C187.514 404.872 187.192 403.64 187.192 402.1C187.192 400.56 187.514 399.333 188.158 398.418C188.812 397.494 189.726 397.032 190.902 397.032C192.078 397.032 192.988 397.494 193.632 398.418C194.286 399.333 194.612 400.56 194.612 402.1C194.612 403.64 194.286 404.872 193.632 405.796ZM188.886 405.138C189.372 405.857 190.044 406.216 190.902 406.216C191.761 406.216 192.428 405.857 192.904 405.138C193.39 404.419 193.632 403.407 193.632 402.1C193.632 400.793 193.39 399.781 192.904 399.062C192.428 398.343 191.761 397.984 190.902 397.984C190.044 397.984 189.372 398.343 188.886 399.062C188.41 399.781 188.172 400.793 188.172 402.1C188.172 403.407 188.41 404.419 188.886 405.138ZM202.451 405.796C201.807 406.711 200.897 407.168 199.721 407.168C198.545 407.168 197.63 406.711 196.977 405.796C196.333 404.872 196.011 403.64 196.011 402.1C196.011 400.56 196.333 399.333 196.977 398.418C197.63 397.494 198.545 397.032 199.721 397.032C200.897 397.032 201.807 397.494 202.451 398.418C203.104 399.333 203.431 400.56 203.431 402.1C203.431 403.64 203.104 404.872 202.451 405.796ZM197.705 405.138C198.19 405.857 198.862 406.216 199.721 406.216C200.579 406.216 201.247 405.857 201.723 405.138C202.208 404.419 202.451 403.407 202.451 402.1C202.451 400.793 202.208 399.781 201.723 399.062C201.247 398.343 200.579 397.984 199.721 397.984C198.862 397.984 198.19 398.343 197.705 399.062C197.229 399.781 196.991 400.793 196.991 402.1C196.991 403.407 197.229 404.419 197.705 405.138Z" fill="black" fill-opacity="0.2"/>
<circle cx="34.5312" cy="97.9688" r="17.4678" transform="rotate(180 34.5312 97.9688)" fill="white" stroke="#D9D9D9" stroke-width="1.12695"/>
<path d="M35.8216 104.981L37.5371 103.333L31.9647 97.9688L37.5371 92.6045L35.8216 90.9566L28.5215 97.9688L35.8216 104.981Z" fill="black"/>
<circle cx="356.5" cy="98" r="19.4634" transform="rotate(180 356.5 98)" fill="white" stroke="#D9D9D9" stroke-width="1.07329"/>
<path d="M364.031 105.418C363.67 105.788 363.168 106 362.655 106H350.405C349.892 106 349.391 105.788 349.031 105.419C348.677 105.057 348.489 104.584 348.501 104.088L348.843 90.3187C348.848 90.1413 348.993 90 349.17 90H363.889C364.066 90 364.211 90.1413 364.216 90.3187L364.558 104.087C364.571 104.583 364.383 105.056 364.03 105.418H364.031ZM360.123 93.8235C360.123 93.6429 359.977 93.4967 359.796 93.4967C359.616 93.4967 359.469 93.6431 359.469 93.8235V97.4464C359.469 98.6649 358.478 99.6561 357.26 99.6561H355.801C354.582 99.6561 353.591 98.6649 353.591 97.4464V93.8235C353.591 93.6429 353.444 93.4967 353.264 93.4967C353.084 93.4967 352.937 93.6431 352.937 93.8235V97.4464C352.937 99.0252 354.222 100.31 355.801 100.31H357.26C358.839 100.31 360.123 99.0252 360.123 97.4464V93.8235Z" fill="black"/>
</g>
<defs>
<clipPath id="clip0_368_2345">
<path d="M0.5 24C0.5 10.7452 11.2452 0 24.5 0H369.5C382.755 0 393.5 10.7452 393.5 24V430H0.5V24Z" fill="white"/>
</clipPath>
</defs>
</svg>
