<svg width="29" height="25" viewBox="0 0 29 25" fill="none" xmlns="http://www.w3.org/2000/svg">
<path d="M24.0905 3.34466C24.0905 1.87798 22.886 0.677979 21.4138 0.677979H17.3986V3.34466H21.4138V6.878L16.7562 12.678H12.045V6.01133H6.69145C3.73361 6.01133 1.33789 8.39801 1.33789 11.3447V15.3447H4.01467C4.01467 17.558 5.80812 19.3447 8.02984 19.3447C10.2516 19.3447 12.045 17.558 12.045 15.3447H18.041L24.0905 7.81134V3.34466ZM4.01467 12.678V11.3447C4.01467 9.87801 5.21922 8.67801 6.69145 8.67801H9.36823V12.678H4.01467ZM8.02984 16.678C7.29373 16.678 6.69145 16.078 6.69145 15.3447H9.36823C9.36823 16.078 8.76596 16.678 8.02984 16.678Z" fill="#C4C4C4"/>
<path d="M5.35333 2.01123H12.0453V4.67791H5.35333V2.01123ZM24.0908 11.3446C21.8691 11.3446 20.0756 13.1313 20.0756 15.3446C20.0756 17.558 21.8691 19.3446 24.0908 19.3446C26.3125 19.3446 28.106 17.558 28.106 15.3446C28.106 13.1313 26.3125 11.3446 24.0908 11.3446ZM24.0908 16.678C23.3547 16.678 22.7524 16.0779 22.7524 15.3446C22.7524 14.6113 23.3547 14.0113 24.0908 14.0113C24.8269 14.0113 25.4292 14.6113 25.4292 15.3446C25.4292 16.0779 24.8269 16.678 24.0908 16.678Z" fill="#C4C4C4"/>
<path d="M-0.000244141 22.0113H28.106V24.678H-0.000244141V22.0113Z" fill="#C4C4C4"/>
</svg>
