<svg width="65" height="64" viewBox="0 0 65 64" fill="none" xmlns="http://www.w3.org/2000/svg">
<path d="M53.0955 59.1973C52.1028 60.2155 50.7217 60.7992 49.3073 60.7992H15.5799C14.1668 60.7992 12.7876 60.2168 11.7956 59.2005C10.8222 58.2034 10.3038 56.901 10.3364 55.5346L11.2804 17.6235C11.2926 17.1352 11.6919 16.7461 12.1803 16.7461H52.7051C53.1934 16.7461 53.5927 17.1352 53.6049 17.6235L54.5489 55.5333C54.5835 56.8984 54.067 58.1995 53.0942 59.1973H53.0955ZM42.3371 27.2735C42.3371 26.7762 41.9339 26.3736 41.4372 26.3736C40.9406 26.3736 40.5374 26.7768 40.5374 27.2735V37.2485C40.5374 40.6034 37.8084 43.3323 34.4535 43.3323H30.4356C27.0807 43.3323 24.3518 40.6034 24.3518 37.2485V27.2735C24.3518 26.7762 23.9486 26.3736 23.4519 26.3736C22.9553 26.3736 22.5521 26.7768 22.5521 27.2735V37.2485C22.5521 41.5954 26.0887 45.132 30.4356 45.132H34.4535C38.8004 45.132 42.3371 41.5954 42.3371 37.2485V27.2735Z" fill="black"/>
<path d="M20.5431 14.9468H15.2139V11.0677C15.2139 10.5704 15.6171 10.1679 16.1137 10.1679H22.3953L20.5431 14.9468ZM41.9556 13.1304L41.2523 14.9468H49.3278V4.10004C49.3278 3.60276 48.9246 3.2002 48.4279 3.2002H32.2731C31.7758 3.2002 31.3732 3.6034 31.3732 4.10004V6.13396L40.4145 9.63731C41.8027 10.1749 42.4945 11.7423 41.9569 13.1298L41.9556 13.1304Z" fill="#FBA819"/>
<path d="M40.4699 12.4731C40.6491 12.0098 40.4193 11.4882 39.956 11.309L26.9864 6.28305C26.7636 6.19665 26.516 6.20241 26.2977 6.29905C26.0795 6.39569 25.908 6.57489 25.8222 6.79697L22.667 14.9391H39.515L40.4705 12.4725L40.4699 12.4731Z" fill="#F87E07"/>
</svg>
